G04*
G04 #@! TF.GenerationSoftware,Altium Limited,Altium Designer,21.6.4 (81)*
G04*
G04 Layer_Color=65535*
%FSLAX25Y25*%
%MOIN*%
G70*
G04*
G04 #@! TF.SameCoordinates,E723B31F-DAC3-422C-9DD4-3D6A13DCE0CD*
G04*
G04*
G04 #@! TF.FilePolarity,Positive*
G04*
G01*
G75*
%ADD10C,0.00394*%
%ADD11C,0.00787*%
%ADD12C,0.00500*%
%ADD13C,0.01181*%
%ADD14C,0.00800*%
%ADD15C,0.01000*%
G36*
X64718Y96960D02*
X64650D01*
Y97028D01*
X64718D01*
Y96960D01*
D02*
G37*
G36*
X64379Y97164D02*
X64582D01*
Y97096D01*
X64514D01*
Y97028D01*
X64447D01*
Y96960D01*
X64311D01*
Y97028D01*
X64175D01*
Y97096D01*
X64243D01*
Y97232D01*
X64379D01*
Y97164D01*
D02*
G37*
G36*
X67774Y95467D02*
X67706D01*
Y95534D01*
Y95602D01*
X67638D01*
Y95670D01*
X67774D01*
Y95467D01*
D02*
G37*
G36*
X67027Y95738D02*
X67095D01*
Y95602D01*
X67298D01*
Y95534D01*
Y95467D01*
Y95399D01*
X67366D01*
Y95331D01*
X67230D01*
Y95399D01*
X67163D01*
Y95467D01*
X67095D01*
Y95602D01*
X66891D01*
Y95670D01*
X66959D01*
Y95806D01*
X67027D01*
Y95738D01*
D02*
G37*
G36*
X68317Y95263D02*
X68249D01*
Y95331D01*
Y95399D01*
X68317D01*
Y95263D01*
D02*
G37*
G36*
X66823Y95127D02*
X66891D01*
Y95059D01*
X66823D01*
Y94991D01*
X66755D01*
Y95195D01*
X66823D01*
Y95127D01*
D02*
G37*
G36*
X66552Y97707D02*
X67027D01*
Y97639D01*
X67230D01*
Y97571D01*
X67502D01*
Y97504D01*
X67638D01*
Y97436D01*
X67774D01*
Y97368D01*
X67910D01*
Y97300D01*
X67977D01*
Y97232D01*
X68113D01*
Y97164D01*
X68249D01*
Y97096D01*
X68860D01*
Y97028D01*
X69064D01*
Y96960D01*
X69200D01*
Y96892D01*
X69403D01*
Y96825D01*
X69539D01*
Y96757D01*
X69675D01*
Y96689D01*
X69811D01*
Y96621D01*
X69879D01*
Y96553D01*
X69947D01*
Y96485D01*
X70015D01*
Y96417D01*
X70082D01*
Y96349D01*
X70218D01*
Y96281D01*
X70286D01*
Y96214D01*
X70354D01*
Y96146D01*
X70422D01*
Y96078D01*
X70490D01*
Y96010D01*
X70558D01*
Y95942D01*
X70626D01*
Y95874D01*
X70693D01*
Y95806D01*
X70761D01*
Y95738D01*
X70829D01*
Y95670D01*
X70897D01*
Y95602D01*
X70965D01*
Y95534D01*
X71033D01*
Y95467D01*
X71101D01*
Y95399D01*
X71169D01*
Y95331D01*
X71237D01*
Y95263D01*
X71305D01*
Y95195D01*
X71372D01*
Y95127D01*
X71440D01*
Y94991D01*
X71508D01*
Y94855D01*
X71576D01*
Y94720D01*
X71644D01*
Y94652D01*
X71712D01*
Y94516D01*
X71780D01*
Y94380D01*
X71848D01*
Y94312D01*
X71916D01*
Y94176D01*
X71984D01*
Y93973D01*
X72052D01*
Y93769D01*
X72119D01*
Y93497D01*
X72187D01*
Y93022D01*
X72255D01*
Y92818D01*
X72323D01*
Y92954D01*
X72391D01*
Y93090D01*
X72459D01*
Y93158D01*
X72527D01*
Y93226D01*
X72595D01*
Y93294D01*
X72730D01*
Y93362D01*
X73206D01*
Y93294D01*
X73274D01*
Y93226D01*
X73342D01*
Y93158D01*
X73410D01*
Y93090D01*
X73477D01*
Y92954D01*
X73545D01*
Y92683D01*
X73613D01*
Y92411D01*
X73681D01*
Y91325D01*
X73749D01*
Y91460D01*
X73817D01*
Y91596D01*
X73885D01*
Y91732D01*
X73953D01*
Y92071D01*
X74021D01*
Y92207D01*
X74089D01*
Y92275D01*
X74156D01*
Y92343D01*
X74224D01*
Y92411D01*
X74292D01*
Y92479D01*
X74360D01*
Y92547D01*
X74496D01*
Y92615D01*
X75107D01*
Y92547D01*
X75243D01*
Y92479D01*
X75311D01*
Y92411D01*
X75447D01*
Y92275D01*
X75515D01*
Y92139D01*
X75582D01*
Y91936D01*
X75650D01*
Y91392D01*
X75582D01*
Y91053D01*
X75990D01*
Y90985D01*
X76126D01*
Y90917D01*
X76193D01*
Y90714D01*
X76261D01*
Y90238D01*
X76193D01*
Y90035D01*
X76126D01*
Y89831D01*
X76058D01*
Y89763D01*
X76126D01*
Y89695D01*
X76329D01*
Y89627D01*
X76533D01*
Y89695D01*
X76601D01*
Y89763D01*
X76669D01*
Y89967D01*
X76737D01*
Y90102D01*
X76805D01*
Y90306D01*
X76872D01*
Y90442D01*
X76940D01*
Y90510D01*
X77008D01*
Y90646D01*
X77076D01*
Y90714D01*
X77144D01*
Y90849D01*
X77212D01*
Y90985D01*
X77280D01*
Y91121D01*
X77348D01*
Y91257D01*
X77416D01*
Y91392D01*
X77484D01*
Y91528D01*
X77552D01*
Y91664D01*
X77619D01*
Y91732D01*
X77687D01*
Y91800D01*
X77755D01*
Y91936D01*
X77823D01*
Y92004D01*
X77891D01*
Y92071D01*
X77959D01*
Y92139D01*
X78027D01*
Y92207D01*
X78095D01*
Y92343D01*
X78163D01*
Y92411D01*
X78231D01*
Y92479D01*
X78298D01*
Y92547D01*
X78366D01*
Y92615D01*
X78502D01*
Y92683D01*
X78638D01*
Y92751D01*
X78774D01*
Y92818D01*
X78842D01*
Y92886D01*
X78977D01*
Y92954D01*
X79724D01*
Y92886D01*
X79860D01*
Y92818D01*
X79996D01*
Y92751D01*
X80132D01*
Y92683D01*
X80200D01*
Y92615D01*
X80335D01*
Y92479D01*
X80471D01*
Y92411D01*
X80539D01*
Y92343D01*
X80607D01*
Y92207D01*
X80675D01*
Y92004D01*
X80743D01*
Y91800D01*
X80811D01*
Y91596D01*
X80879D01*
Y91392D01*
X80947D01*
Y90374D01*
X80879D01*
Y89763D01*
X80811D01*
Y89423D01*
X80879D01*
Y89084D01*
X80811D01*
Y88201D01*
X80743D01*
Y88065D01*
X80675D01*
Y87794D01*
X80607D01*
Y87658D01*
X80811D01*
Y87590D01*
X80947D01*
Y87522D01*
X81082D01*
Y87454D01*
X81218D01*
Y87386D01*
X81354D01*
Y87318D01*
X81422D01*
Y87251D01*
X81626D01*
Y87183D01*
X81829D01*
Y87115D01*
X82101D01*
Y87047D01*
X82305D01*
Y86979D01*
X82372D01*
Y86911D01*
X82576D01*
Y86843D01*
X82712D01*
Y86775D01*
X82848D01*
Y86707D01*
X82916D01*
Y86639D01*
X82984D01*
Y86572D01*
X83119D01*
Y86504D01*
X83255D01*
Y86436D01*
X83391D01*
Y86368D01*
X83595D01*
Y86300D01*
X83731D01*
Y86232D01*
X83866D01*
Y86164D01*
X84002D01*
Y86096D01*
X84138D01*
Y86028D01*
X84274D01*
Y85960D01*
X84410D01*
Y85892D01*
X84477D01*
Y85825D01*
X84681D01*
Y85757D01*
X84817D01*
Y85689D01*
X84885D01*
Y85621D01*
X84953D01*
Y85553D01*
X85021D01*
Y85485D01*
X85089D01*
Y85417D01*
X85157D01*
Y85349D01*
X85224D01*
Y85146D01*
X85292D01*
Y84738D01*
X85224D01*
Y84602D01*
X85089D01*
Y84535D01*
X84817D01*
Y84467D01*
X84545D01*
Y84399D01*
X84002D01*
Y84331D01*
X82984D01*
Y84399D01*
X82780D01*
Y84467D01*
X82508D01*
Y84535D01*
X82101D01*
Y84602D01*
X81761D01*
Y84670D01*
X81422D01*
Y84738D01*
X81015D01*
Y84806D01*
X80811D01*
Y84874D01*
X80132D01*
Y84942D01*
X79928D01*
Y85010D01*
X79792D01*
Y85078D01*
X79589D01*
Y85146D01*
X79453D01*
Y85078D01*
X79317D01*
Y85010D01*
X79181D01*
Y84942D01*
X79113D01*
Y84874D01*
X78977D01*
Y84806D01*
X78910D01*
Y84738D01*
X78842D01*
Y84670D01*
X78774D01*
Y84602D01*
X78706D01*
Y84535D01*
X78570D01*
Y84467D01*
X78502D01*
Y84399D01*
X78434D01*
Y84331D01*
X78366D01*
Y84263D01*
X78298D01*
Y84195D01*
X78163D01*
Y84127D01*
X78027D01*
Y84059D01*
X77891D01*
Y83991D01*
X77823D01*
Y83923D01*
X77755D01*
Y83855D01*
X77687D01*
Y83788D01*
X77552D01*
Y83720D01*
X77416D01*
Y83652D01*
X77348D01*
Y83584D01*
X77212D01*
Y83516D01*
X77144D01*
Y83448D01*
X77280D01*
Y83380D01*
X77416D01*
Y83312D01*
X77552D01*
Y83244D01*
X77687D01*
Y83176D01*
X77823D01*
Y83109D01*
X77959D01*
Y83041D01*
X78095D01*
Y82973D01*
X78231D01*
Y82905D01*
X78434D01*
Y82837D01*
X78638D01*
Y82769D01*
X78910D01*
Y82701D01*
X79045D01*
Y82633D01*
X79181D01*
Y82565D01*
X79317D01*
Y82497D01*
X79453D01*
Y82429D01*
X79589D01*
Y82362D01*
X79656D01*
Y82294D01*
X79724D01*
Y82226D01*
X79860D01*
Y82158D01*
X79996D01*
Y82090D01*
X80064D01*
Y82022D01*
X80132D01*
Y81954D01*
X80200D01*
Y81886D01*
X80268D01*
Y81683D01*
X80335D01*
Y81479D01*
X80268D01*
Y81139D01*
X80200D01*
Y80936D01*
X80132D01*
Y80868D01*
X80064D01*
Y80732D01*
X79996D01*
Y80664D01*
X79928D01*
Y80596D01*
X79860D01*
Y80528D01*
X79792D01*
Y80460D01*
X79724D01*
Y80392D01*
X79589D01*
Y80325D01*
X79521D01*
Y80257D01*
X79453D01*
Y80189D01*
X79385D01*
Y80121D01*
X79317D01*
Y80053D01*
X79249D01*
Y79985D01*
X79113D01*
Y79917D01*
X78910D01*
Y79849D01*
X78706D01*
Y79781D01*
X77959D01*
Y79713D01*
X77076D01*
Y79646D01*
X76601D01*
Y79713D01*
X75990D01*
Y78899D01*
X75922D01*
Y78288D01*
X75854D01*
Y78084D01*
Y78016D01*
Y77473D01*
X75786D01*
Y76590D01*
X75854D01*
Y76454D01*
X75990D01*
Y76386D01*
X76058D01*
Y76318D01*
X76193D01*
Y76250D01*
X76261D01*
Y76183D01*
X76465D01*
Y76115D01*
X76601D01*
Y76047D01*
X76737D01*
Y75979D01*
X76872D01*
Y75911D01*
X77008D01*
Y75843D01*
X77212D01*
Y75775D01*
X77348D01*
Y75707D01*
X77484D01*
Y75639D01*
X77552D01*
Y75572D01*
X77687D01*
Y75504D01*
X77755D01*
Y75436D01*
X77891D01*
Y75368D01*
X78027D01*
Y75300D01*
X78163D01*
Y75232D01*
X78298D01*
Y75164D01*
X78366D01*
Y75096D01*
X78502D01*
Y75028D01*
X78570D01*
Y74960D01*
X78638D01*
Y74892D01*
X78774D01*
Y74825D01*
X78842D01*
Y74757D01*
X78910D01*
Y74689D01*
X78977D01*
Y74621D01*
X79045D01*
Y74553D01*
X79113D01*
Y74485D01*
X79181D01*
Y74349D01*
X79249D01*
Y74281D01*
X79317D01*
Y74146D01*
X79385D01*
Y74078D01*
X79453D01*
Y74010D01*
X79521D01*
Y73874D01*
X79589D01*
Y73195D01*
X79521D01*
Y73059D01*
X79453D01*
Y72923D01*
X79385D01*
Y72787D01*
X79317D01*
Y72720D01*
X79249D01*
Y72652D01*
X79181D01*
Y72516D01*
X79113D01*
Y72448D01*
X79045D01*
Y72380D01*
X78977D01*
Y72312D01*
X78910D01*
Y72244D01*
X78842D01*
Y72176D01*
X78774D01*
Y72109D01*
X78570D01*
Y72041D01*
X78434D01*
Y71973D01*
X78231D01*
Y71905D01*
X78027D01*
Y71837D01*
X77823D01*
Y71769D01*
X77687D01*
Y71701D01*
X77484D01*
Y71633D01*
X77348D01*
Y71565D01*
X77212D01*
Y71497D01*
X77008D01*
Y71430D01*
X76601D01*
Y71362D01*
X76261D01*
Y71294D01*
X74428D01*
Y71362D01*
X74224D01*
Y71430D01*
X73953D01*
Y71497D01*
X73545D01*
Y71565D01*
X73274D01*
Y71633D01*
X73070D01*
Y71701D01*
X72934D01*
Y71769D01*
X72730D01*
Y71837D01*
X72595D01*
Y71905D01*
X72527D01*
Y71973D01*
X72459D01*
Y72041D01*
X72255D01*
Y72109D01*
X72187D01*
Y72176D01*
X72119D01*
Y72244D01*
X71984D01*
Y72312D01*
X71916D01*
Y72380D01*
X71780D01*
Y72448D01*
X71644D01*
Y72516D01*
X71508D01*
Y72584D01*
X71372D01*
Y72652D01*
X71305D01*
Y72720D01*
X71169D01*
Y72787D01*
X71101D01*
Y72855D01*
X70965D01*
Y72923D01*
X70897D01*
Y72991D01*
X70761D01*
Y73059D01*
X70626D01*
Y73127D01*
X70558D01*
Y73195D01*
X70422D01*
Y73263D01*
X70354D01*
Y73331D01*
X70218D01*
Y73399D01*
X70150D01*
Y73467D01*
X70015D01*
Y73535D01*
X69879D01*
Y73602D01*
X69811D01*
Y73670D01*
X69743D01*
Y73738D01*
X69607D01*
Y73806D01*
X69471D01*
Y73874D01*
X69336D01*
Y73942D01*
X69268D01*
Y74010D01*
X69132D01*
Y74078D01*
X69064D01*
Y74146D01*
X68928D01*
Y74213D01*
X68792D01*
Y74281D01*
X68724D01*
Y74349D01*
X68589D01*
Y74417D01*
X68521D01*
Y74485D01*
X68385D01*
Y74553D01*
X68317D01*
Y74621D01*
X68181D01*
Y74689D01*
X68113D01*
Y74757D01*
X68045D01*
Y74281D01*
X67977D01*
Y73806D01*
X67910D01*
Y73670D01*
X67842D01*
Y73535D01*
X67774D01*
Y73399D01*
X67706D01*
Y73263D01*
X67638D01*
Y73195D01*
X67570D01*
Y73059D01*
X67502D01*
Y72991D01*
X67434D01*
Y72923D01*
X67298D01*
Y72855D01*
X67230D01*
Y72787D01*
X67095D01*
Y72720D01*
X67027D01*
Y72652D01*
X66891D01*
Y72584D01*
X66619D01*
Y72516D01*
X65669D01*
Y72584D01*
X65601D01*
Y72516D01*
X65261D01*
Y72584D01*
X65058D01*
Y72652D01*
X64922D01*
Y72720D01*
X64786D01*
Y72787D01*
X64650D01*
Y72855D01*
X64514D01*
Y72923D01*
X64447D01*
Y72991D01*
X64379D01*
Y73059D01*
X64311D01*
Y73127D01*
X64243D01*
Y73195D01*
X64175D01*
Y73263D01*
X64107D01*
Y73399D01*
X64039D01*
Y73467D01*
X63971D01*
Y73602D01*
X63903D01*
Y73738D01*
X63836D01*
Y73874D01*
X63768D01*
Y74078D01*
X63700D01*
Y74553D01*
X63632D01*
Y74960D01*
X63564D01*
Y75164D01*
X63632D01*
Y75300D01*
X63700D01*
Y75843D01*
X63768D01*
Y75979D01*
X63632D01*
Y76047D01*
X63564D01*
Y76115D01*
X63496D01*
Y76183D01*
X63428D01*
Y76250D01*
X63292D01*
Y76318D01*
X63156D01*
Y76386D01*
X63089D01*
Y76454D01*
X62953D01*
Y76522D01*
X62817D01*
Y76454D01*
X62613D01*
Y76386D01*
X62545D01*
Y76318D01*
X62410D01*
Y76250D01*
X62274D01*
Y76183D01*
X62138D01*
Y76115D01*
X61934D01*
Y76047D01*
X61798D01*
Y75979D01*
X61527D01*
Y75911D01*
X61391D01*
Y75843D01*
X61187D01*
Y75775D01*
X61051D01*
Y75707D01*
X60848D01*
Y75639D01*
X60508D01*
Y75572D01*
X60305D01*
Y75504D01*
X58336D01*
Y75572D01*
X57860D01*
Y75639D01*
X57657D01*
Y75707D01*
X57453D01*
Y75775D01*
X57317D01*
Y75843D01*
X57249D01*
Y75911D01*
X57113D01*
Y75979D01*
X57045D01*
Y76047D01*
X56910D01*
Y76115D01*
X56774D01*
Y76183D01*
X56638D01*
Y76250D01*
X56570D01*
Y76318D01*
X56502D01*
Y76386D01*
X56434D01*
Y76454D01*
X56298D01*
Y76522D01*
X56230D01*
Y76590D01*
X56163D01*
Y76658D01*
X56027D01*
Y76726D01*
X55959D01*
Y76794D01*
X55891D01*
Y76862D01*
X55823D01*
Y76997D01*
X55755D01*
Y77065D01*
X55687D01*
Y77133D01*
X55619D01*
Y77269D01*
X55551D01*
Y77405D01*
X55484D01*
Y77473D01*
X55416D01*
Y77609D01*
X55348D01*
Y77812D01*
X55280D01*
Y77948D01*
X55212D01*
Y78016D01*
X55008D01*
Y77948D01*
X54873D01*
Y77880D01*
X54601D01*
Y77812D01*
X54329D01*
Y77744D01*
X52768D01*
Y77676D01*
X52224D01*
Y77744D01*
X52021D01*
Y77812D01*
X51817D01*
Y77880D01*
X51613D01*
Y77948D01*
X51477D01*
Y78016D01*
X51342D01*
Y78152D01*
X51274D01*
Y78423D01*
X51342D01*
Y78695D01*
X51410D01*
Y78831D01*
X51477D01*
Y78899D01*
X51545D01*
Y78967D01*
X51613D01*
Y79035D01*
X51681D01*
Y79102D01*
X51749D01*
Y79170D01*
X51817D01*
Y79238D01*
X51953D01*
Y79306D01*
X52089D01*
Y79374D01*
X52292D01*
Y79442D01*
X52428D01*
Y79510D01*
X52564D01*
Y79578D01*
X52768D01*
Y79646D01*
X52903D01*
Y79713D01*
X53175D01*
Y79781D01*
X53311D01*
Y79849D01*
X53379D01*
Y79917D01*
X53514D01*
Y79985D01*
X53718D01*
Y80053D01*
X53854D01*
Y80121D01*
X54058D01*
Y80189D01*
X54601D01*
Y81343D01*
X54669D01*
Y81547D01*
X54737D01*
Y81751D01*
X54805D01*
Y81886D01*
X54737D01*
Y81954D01*
X54669D01*
Y82022D01*
X54533D01*
Y82090D01*
X54465D01*
Y82158D01*
X54397D01*
Y82226D01*
X54329D01*
Y82294D01*
X54194D01*
Y82362D01*
X54058D01*
Y82429D01*
X53922D01*
Y82497D01*
X53786D01*
Y82565D01*
X53650D01*
Y82633D01*
X53447D01*
Y82701D01*
X53379D01*
Y82769D01*
X53311D01*
Y82837D01*
X53175D01*
Y82905D01*
X53107D01*
Y82973D01*
X53039D01*
Y83041D01*
X52971D01*
Y83109D01*
X52836D01*
Y83176D01*
X52768D01*
Y83244D01*
X52632D01*
Y83312D01*
X52564D01*
Y83448D01*
X52428D01*
Y83516D01*
X52360D01*
Y83584D01*
X52292D01*
Y83652D01*
X52224D01*
Y83720D01*
X52157D01*
Y83788D01*
X52089D01*
Y83923D01*
X52021D01*
Y84059D01*
X51953D01*
Y84331D01*
X51885D01*
Y85146D01*
X51953D01*
Y85281D01*
X52021D01*
Y85349D01*
X52089D01*
Y85485D01*
X52224D01*
Y85553D01*
X52292D01*
Y85621D01*
X52360D01*
Y85689D01*
X52496D01*
Y85757D01*
X52632D01*
Y85825D01*
X52768D01*
Y85892D01*
X52903D01*
Y85960D01*
X53039D01*
Y86028D01*
X53175D01*
Y86096D01*
X53379D01*
Y86164D01*
X53582D01*
Y86232D01*
X54194D01*
Y86300D01*
X55484D01*
Y86232D01*
X55551D01*
Y86300D01*
X55619D01*
Y87047D01*
X55551D01*
Y87454D01*
X55619D01*
Y87929D01*
X55687D01*
Y88201D01*
X55755D01*
Y88541D01*
X55823D01*
Y88880D01*
X55687D01*
Y88948D01*
X55551D01*
Y89016D01*
X55416D01*
Y89084D01*
X55280D01*
Y89152D01*
X55144D01*
Y89220D01*
X55008D01*
Y89288D01*
X54873D01*
Y89355D01*
X54737D01*
Y89423D01*
X54601D01*
Y89491D01*
X54465D01*
Y89559D01*
X54329D01*
Y89627D01*
X54261D01*
Y89695D01*
X54058D01*
Y89763D01*
X53922D01*
Y89831D01*
X53786D01*
Y89899D01*
X53718D01*
Y89967D01*
X53582D01*
Y90035D01*
X53514D01*
Y90102D01*
X53379D01*
Y90170D01*
X53243D01*
Y90238D01*
X53175D01*
Y90306D01*
X53039D01*
Y90374D01*
X52971D01*
Y90442D01*
X52903D01*
Y90510D01*
X52836D01*
Y90578D01*
X52768D01*
Y90714D01*
X52700D01*
Y90781D01*
X52632D01*
Y90917D01*
X52564D01*
Y90985D01*
X52496D01*
Y91121D01*
X52428D01*
Y91732D01*
X52496D01*
Y91800D01*
X52564D01*
Y91936D01*
X52632D01*
Y92004D01*
X52700D01*
Y92071D01*
X52768D01*
Y92139D01*
X52836D01*
Y92207D01*
X52903D01*
Y92343D01*
X53107D01*
Y92411D01*
X53243D01*
Y92479D01*
X53786D01*
Y92547D01*
X53990D01*
Y92615D01*
X54329D01*
Y92683D01*
X56434D01*
Y92615D01*
X56774D01*
Y92547D01*
X56977D01*
Y92479D01*
X57317D01*
Y92411D01*
X57521D01*
Y92343D01*
X57657D01*
Y92275D01*
X57792D01*
Y92207D01*
X57860D01*
Y92139D01*
X57996D01*
Y92071D01*
X58132D01*
Y92004D01*
X58268D01*
Y91936D01*
X58471D01*
Y91868D01*
X58607D01*
Y91800D01*
X58743D01*
Y91732D01*
X58811D01*
Y91664D01*
X59082D01*
Y91732D01*
X59150D01*
Y91800D01*
X59286D01*
Y91868D01*
X59490D01*
Y91936D01*
X59761D01*
Y91868D01*
X60576D01*
Y91800D01*
X60848D01*
Y91732D01*
X61119D01*
Y91664D01*
X61187D01*
Y92004D01*
X61255D01*
Y92343D01*
X61323D01*
Y92547D01*
X61391D01*
Y92751D01*
X61459D01*
Y92886D01*
X61527D01*
Y93090D01*
X61595D01*
Y93226D01*
X61663D01*
Y93362D01*
X61730D01*
Y93429D01*
X61798D01*
Y93565D01*
X61866D01*
Y93633D01*
X61934D01*
Y93769D01*
X62002D01*
Y93837D01*
X62070D01*
Y93905D01*
X62138D01*
Y93973D01*
X62274D01*
Y94041D01*
X62410D01*
Y94312D01*
X62477D01*
Y94380D01*
X62545D01*
Y94516D01*
X62613D01*
Y94652D01*
X62681D01*
Y94788D01*
X62749D01*
Y94923D01*
X62817D01*
Y94991D01*
X62885D01*
Y95059D01*
X62817D01*
Y95467D01*
X62885D01*
Y95738D01*
X62953D01*
Y95942D01*
X63021D01*
Y96214D01*
X62953D01*
Y96349D01*
X63021D01*
Y96485D01*
X63156D01*
Y96417D01*
X63292D01*
Y96485D01*
X63360D01*
Y96689D01*
X63292D01*
Y96825D01*
X63360D01*
Y97028D01*
X63428D01*
Y97164D01*
X63564D01*
Y97028D01*
X63700D01*
Y97096D01*
X63768D01*
Y97028D01*
X63971D01*
Y96960D01*
X64039D01*
Y96892D01*
X64107D01*
Y96825D01*
X64175D01*
Y96892D01*
X64447D01*
Y96825D01*
X64650D01*
Y96689D01*
X64514D01*
Y96621D01*
X64582D01*
Y96553D01*
X64990D01*
Y96485D01*
X65329D01*
Y96417D01*
X65669D01*
Y96349D01*
X66076D01*
Y96417D01*
X66280D01*
Y96349D01*
X66212D01*
Y96214D01*
X66280D01*
Y96146D01*
X66348D01*
Y96078D01*
X66416D01*
Y96010D01*
X66552D01*
Y95942D01*
X66619D01*
Y95874D01*
X66687D01*
Y95602D01*
X66348D01*
Y95195D01*
X66280D01*
Y95127D01*
X66144D01*
Y95059D01*
X66076D01*
Y94991D01*
X66144D01*
Y94923D01*
X66212D01*
Y94788D01*
X66280D01*
Y94720D01*
X66348D01*
Y94516D01*
X66687D01*
Y94380D01*
X66755D01*
Y94312D01*
X66823D01*
Y94380D01*
X66891D01*
Y94516D01*
X66959D01*
Y94448D01*
X67027D01*
Y94041D01*
X66959D01*
Y94108D01*
X66891D01*
Y94041D01*
X66823D01*
Y93973D01*
X66484D01*
Y94041D01*
X66348D01*
Y94108D01*
X66212D01*
Y94312D01*
X66280D01*
Y94380D01*
X66212D01*
Y94584D01*
X66144D01*
Y94176D01*
X65940D01*
Y94244D01*
X65737D01*
Y94312D01*
X65465D01*
Y94380D01*
X65329D01*
Y94448D01*
X64990D01*
Y94516D01*
X64718D01*
Y94312D01*
X64650D01*
Y94380D01*
X64447D01*
Y94448D01*
X64311D01*
Y94516D01*
X64243D01*
Y94584D01*
X64175D01*
Y94448D01*
X64243D01*
Y94380D01*
X64311D01*
Y94312D01*
X64379D01*
Y94244D01*
X64514D01*
Y94176D01*
X64650D01*
Y94108D01*
X64990D01*
Y94041D01*
X66008D01*
Y93973D01*
X65329D01*
Y93905D01*
X65397D01*
Y93837D01*
X65533D01*
Y93769D01*
X65601D01*
Y93633D01*
X65669D01*
Y93701D01*
X65737D01*
Y93769D01*
X65873D01*
Y93701D01*
X66008D01*
Y93633D01*
X66280D01*
Y93565D01*
X65873D01*
Y93497D01*
X65805D01*
Y93429D01*
X65737D01*
Y93226D01*
X65940D01*
Y93158D01*
X66144D01*
Y93090D01*
X66552D01*
Y93022D01*
X67366D01*
Y93090D01*
X67706D01*
Y93158D01*
X67842D01*
Y93226D01*
X67977D01*
Y93362D01*
X68045D01*
Y93429D01*
X68113D01*
Y93497D01*
X68181D01*
Y93633D01*
X68249D01*
Y93769D01*
X68317D01*
Y93905D01*
X68181D01*
Y93837D01*
X68113D01*
Y93769D01*
X68045D01*
Y93701D01*
X67977D01*
Y93633D01*
X67910D01*
Y93497D01*
X67638D01*
Y93429D01*
X67366D01*
Y93294D01*
X67230D01*
Y93362D01*
X66891D01*
Y93429D01*
X66619D01*
Y93497D01*
X66687D01*
Y93565D01*
X66755D01*
Y93633D01*
X66687D01*
Y93701D01*
X67095D01*
Y93769D01*
X67366D01*
Y93837D01*
X67434D01*
Y93905D01*
X67502D01*
Y93973D01*
X67638D01*
Y94108D01*
X67706D01*
Y94176D01*
X67774D01*
Y94380D01*
X67842D01*
Y94312D01*
X67910D01*
Y94516D01*
X67977D01*
Y94923D01*
X67910D01*
Y94991D01*
X67842D01*
Y95263D01*
X67774D01*
Y95399D01*
X67842D01*
Y95331D01*
X67910D01*
Y95263D01*
X67977D01*
Y95195D01*
X68113D01*
Y95059D01*
X68045D01*
Y94991D01*
X68113D01*
Y94923D01*
X68385D01*
Y94991D01*
X68317D01*
Y95195D01*
X68385D01*
Y95059D01*
X68453D01*
Y94923D01*
X68589D01*
Y95059D01*
X68521D01*
Y95263D01*
X68453D01*
Y95399D01*
X68385D01*
Y95467D01*
X68317D01*
Y95602D01*
X68249D01*
Y95738D01*
X68181D01*
Y95806D01*
X68113D01*
Y95874D01*
X68045D01*
Y95942D01*
X67977D01*
Y96078D01*
X67910D01*
Y96146D01*
X67774D01*
Y96214D01*
X67706D01*
Y96281D01*
X67638D01*
Y96349D01*
X67570D01*
Y96417D01*
X67502D01*
Y96485D01*
X67366D01*
Y96553D01*
X67230D01*
Y96621D01*
X67095D01*
Y96689D01*
X67027D01*
Y96757D01*
X66959D01*
Y96825D01*
X66552D01*
Y96892D01*
X66348D01*
Y96825D01*
X66212D01*
Y96892D01*
X66076D01*
Y96825D01*
X66212D01*
Y96757D01*
X66280D01*
Y96689D01*
X66076D01*
Y96621D01*
X66008D01*
Y96553D01*
X65940D01*
Y96621D01*
X65873D01*
Y96892D01*
X65940D01*
Y97028D01*
X65737D01*
Y97096D01*
X65397D01*
Y97164D01*
X65261D01*
Y97300D01*
X65329D01*
Y97368D01*
X65397D01*
Y97436D01*
X65533D01*
Y97504D01*
X65669D01*
Y97571D01*
X65873D01*
Y97639D01*
X66076D01*
Y97707D01*
X66348D01*
Y97775D01*
X66552D01*
Y97707D01*
D02*
G37*
G36*
X67027Y94923D02*
X67163D01*
Y94855D01*
X67230D01*
Y94720D01*
X67095D01*
Y94855D01*
X66959D01*
Y94923D01*
Y94991D01*
X67027D01*
Y94923D01*
D02*
G37*
G36*
X67434Y94652D02*
X67502D01*
Y94516D01*
X67434D01*
Y94448D01*
Y94380D01*
X67366D01*
Y94244D01*
X67230D01*
Y94380D01*
X67298D01*
Y94720D01*
X67434D01*
Y94652D01*
D02*
G37*
%LPC*%
G36*
X63564Y96485D02*
X63428D01*
Y96417D01*
X63496D01*
Y96349D01*
X63564D01*
Y96485D01*
D02*
G37*
G36*
X65329Y95602D02*
X65261D01*
Y95534D01*
X65329D01*
Y95602D01*
D02*
G37*
G36*
X65737Y95738D02*
X65533D01*
Y95670D01*
X65397D01*
Y95602D01*
X65465D01*
Y95467D01*
X65601D01*
Y95534D01*
X65669D01*
Y95602D01*
X65737D01*
Y95738D01*
D02*
G37*
G36*
X65261Y95534D02*
X65193D01*
Y95467D01*
X65261D01*
Y95534D01*
D02*
G37*
G36*
X63428Y96281D02*
X63292D01*
Y96146D01*
X63360D01*
Y96078D01*
X63292D01*
Y95806D01*
X63224D01*
Y95602D01*
X63156D01*
Y95331D01*
X63089D01*
Y95195D01*
X63021D01*
Y95059D01*
X63089D01*
Y95127D01*
X63156D01*
Y95263D01*
X63224D01*
Y95399D01*
X63292D01*
Y95534D01*
X63360D01*
Y95602D01*
Y95670D01*
X63428D01*
Y96281D01*
D02*
G37*
G36*
X63021Y95059D02*
X62953D01*
Y94923D01*
X63021D01*
Y95059D01*
D02*
G37*
G36*
X62953Y94923D02*
X62885D01*
Y94855D01*
X62953D01*
Y94923D01*
D02*
G37*
G36*
X68589Y94788D02*
X68521D01*
Y94720D01*
X68589D01*
Y94788D01*
D02*
G37*
G36*
X68385Y94652D02*
X68317D01*
Y94584D01*
X68385D01*
Y94652D01*
D02*
G37*
G36*
X62817D02*
X62749D01*
Y94516D01*
X62681D01*
Y94312D01*
X62749D01*
Y94448D01*
X62817D01*
Y94652D01*
D02*
G37*
G36*
X68249Y94448D02*
X68181D01*
Y94380D01*
X68113D01*
Y94244D01*
X68181D01*
Y94312D01*
X68249D01*
Y94380D01*
Y94448D01*
D02*
G37*
G36*
X68589Y94380D02*
X68521D01*
Y94312D01*
X68385D01*
Y94244D01*
Y94176D01*
X68317D01*
Y94041D01*
X68385D01*
Y93973D01*
X68453D01*
Y93905D01*
X68521D01*
Y94041D01*
X68589D01*
Y94380D01*
D02*
G37*
G36*
X64514Y93905D02*
X64447D01*
Y93769D01*
X64514D01*
Y93701D01*
X64582D01*
Y93633D01*
X64650D01*
Y93565D01*
X64786D01*
Y93497D01*
X65058D01*
Y93429D01*
X65533D01*
Y93565D01*
X65465D01*
Y93633D01*
X65126D01*
Y93565D01*
X65058D01*
Y93633D01*
X64990D01*
Y93701D01*
X64786D01*
Y93769D01*
X64718D01*
Y93701D01*
X64650D01*
Y93769D01*
X64582D01*
Y93837D01*
X64514D01*
Y93905D01*
D02*
G37*
G36*
X63700Y94041D02*
X63496D01*
Y93973D01*
X63428D01*
Y93905D01*
X63360D01*
Y93769D01*
X63292D01*
Y93565D01*
X63224D01*
Y93362D01*
X63156D01*
Y93294D01*
X63089D01*
Y93362D01*
X62953D01*
Y93429D01*
X62817D01*
Y93497D01*
X62749D01*
Y93769D01*
X62681D01*
Y93905D01*
X62477D01*
Y93769D01*
X62410D01*
Y93701D01*
X62342D01*
Y93633D01*
X62274D01*
Y93565D01*
X62206D01*
Y93497D01*
X62138D01*
Y93362D01*
X62070D01*
Y93226D01*
X62002D01*
Y93158D01*
X61934D01*
Y93022D01*
X61866D01*
Y92818D01*
X61798D01*
Y92683D01*
X61730D01*
Y92411D01*
X61663D01*
Y92207D01*
X61730D01*
Y92275D01*
X61798D01*
Y92343D01*
X61866D01*
Y92411D01*
X61934D01*
Y92479D01*
X62002D01*
Y92547D01*
X62070D01*
Y92615D01*
X62138D01*
Y92683D01*
X62274D01*
Y92751D01*
X62342D01*
Y92818D01*
X62477D01*
Y92886D01*
X62545D01*
Y92954D01*
X62681D01*
Y93022D01*
X62817D01*
Y93090D01*
X62953D01*
Y93158D01*
X63089D01*
Y93226D01*
X63224D01*
Y93294D01*
X63496D01*
Y93362D01*
X63564D01*
Y93429D01*
X63496D01*
Y93633D01*
X63700D01*
Y93429D01*
X64447D01*
Y93497D01*
X64311D01*
Y93565D01*
X64243D01*
Y93633D01*
X64107D01*
Y93701D01*
X64039D01*
Y93769D01*
X63971D01*
Y93837D01*
X63903D01*
Y93905D01*
X63836D01*
Y93973D01*
X63700D01*
Y94041D01*
D02*
G37*
G36*
X64854Y93158D02*
X64650D01*
Y93090D01*
X64311D01*
Y93022D01*
X64107D01*
Y92954D01*
X63971D01*
Y92886D01*
X63768D01*
Y92818D01*
X63700D01*
Y92751D01*
X63496D01*
Y92683D01*
X63428D01*
Y92615D01*
X63360D01*
Y92547D01*
X63224D01*
Y92479D01*
X63156D01*
Y92411D01*
X62953D01*
Y92343D01*
X62817D01*
Y92275D01*
X62749D01*
Y92343D01*
X62477D01*
Y92275D01*
X62342D01*
Y92207D01*
X62206D01*
Y92139D01*
X62070D01*
Y92071D01*
X61934D01*
Y92004D01*
X62002D01*
Y91936D01*
X61934D01*
Y91868D01*
X61866D01*
Y91800D01*
X61798D01*
Y91732D01*
X61730D01*
Y91664D01*
X62206D01*
Y91596D01*
X62274D01*
Y91528D01*
X62342D01*
Y91460D01*
X62410D01*
Y91392D01*
X62477D01*
Y91257D01*
X62545D01*
Y91121D01*
X62613D01*
Y90917D01*
X62681D01*
Y90510D01*
X62545D01*
Y90578D01*
X62477D01*
Y90714D01*
X62410D01*
Y90781D01*
X62342D01*
Y90917D01*
X62274D01*
Y91053D01*
X62206D01*
Y91121D01*
X62138D01*
Y91257D01*
X62070D01*
Y91325D01*
X61934D01*
Y91392D01*
X61459D01*
Y91325D01*
X61255D01*
Y91392D01*
X61323D01*
Y91460D01*
X60644D01*
Y91528D01*
X60508D01*
Y91596D01*
X60440D01*
Y91528D01*
X60305D01*
Y91596D01*
X60169D01*
Y91664D01*
X59422D01*
Y91596D01*
X59218D01*
Y91528D01*
X59082D01*
Y91460D01*
X58947D01*
Y91325D01*
X58811D01*
Y91257D01*
X58743D01*
Y91189D01*
X58675D01*
Y91121D01*
X58607D01*
Y90985D01*
X58539D01*
Y90849D01*
X58471D01*
Y90306D01*
X58539D01*
Y90238D01*
X58675D01*
Y90170D01*
X58879D01*
Y90102D01*
X59150D01*
Y90035D01*
X60237D01*
Y89967D01*
X60848D01*
Y89899D01*
X61323D01*
Y89831D01*
X61730D01*
Y89763D01*
X62002D01*
Y89695D01*
X62274D01*
Y89627D01*
X62477D01*
Y89559D01*
X62613D01*
Y89491D01*
X62817D01*
Y89423D01*
X63021D01*
Y89355D01*
X63224D01*
Y89288D01*
X63428D01*
Y89220D01*
X63564D01*
Y89152D01*
X63768D01*
Y89084D01*
X64039D01*
Y89016D01*
X64243D01*
Y88948D01*
X64514D01*
Y88880D01*
X65058D01*
Y88812D01*
X65873D01*
Y88880D01*
X66280D01*
Y88948D01*
X66484D01*
Y89016D01*
X66687D01*
Y89084D01*
X66959D01*
Y89152D01*
X67095D01*
Y89220D01*
X67298D01*
Y89288D01*
X67434D01*
Y89355D01*
X67570D01*
Y89423D01*
X67638D01*
Y89491D01*
X67774D01*
Y89559D01*
X67842D01*
Y89627D01*
X67977D01*
Y89695D01*
X68045D01*
Y89763D01*
X68113D01*
Y89899D01*
X68181D01*
Y89967D01*
X68249D01*
Y90035D01*
X68317D01*
Y90102D01*
X68385D01*
Y90306D01*
X68113D01*
Y90238D01*
X67977D01*
Y90170D01*
X67706D01*
Y90238D01*
X67774D01*
Y90374D01*
X67842D01*
Y90442D01*
X67910D01*
Y90510D01*
X67977D01*
Y90578D01*
X68113D01*
Y90646D01*
X68249D01*
Y90714D01*
X68385D01*
Y90781D01*
X68453D01*
Y90849D01*
X68317D01*
Y90917D01*
X68249D01*
Y90985D01*
X68181D01*
Y91053D01*
X68113D01*
Y91121D01*
X68045D01*
Y91189D01*
X67977D01*
Y91121D01*
X67774D01*
Y91053D01*
X67570D01*
Y90985D01*
X67434D01*
Y90917D01*
X67298D01*
Y90849D01*
X67095D01*
Y90781D01*
X67027D01*
Y90714D01*
X66891D01*
Y90646D01*
X66755D01*
Y90578D01*
X66687D01*
Y90510D01*
X66552D01*
Y90442D01*
X66416D01*
Y90374D01*
X66348D01*
Y90306D01*
X66280D01*
Y90238D01*
X66212D01*
Y90170D01*
X66144D01*
Y90102D01*
X66008D01*
Y90238D01*
X66076D01*
Y90306D01*
X66144D01*
Y90442D01*
X65940D01*
Y90510D01*
X65669D01*
Y90578D01*
X65533D01*
Y90646D01*
X65397D01*
Y90714D01*
X65329D01*
Y90781D01*
X65261D01*
Y90917D01*
X65193D01*
Y91053D01*
X65126D01*
Y91664D01*
X65193D01*
Y91868D01*
X65261D01*
Y92004D01*
X65329D01*
Y92139D01*
X65397D01*
Y92343D01*
X65465D01*
Y92411D01*
X65533D01*
Y92547D01*
X65601D01*
Y92615D01*
X65669D01*
Y92683D01*
X65737D01*
Y92818D01*
X65805D01*
Y92886D01*
X65669D01*
Y92954D01*
X65533D01*
Y93022D01*
X65329D01*
Y93090D01*
X65058D01*
Y92954D01*
X64990D01*
Y92886D01*
X64922D01*
Y92751D01*
X64854D01*
Y92683D01*
X64786D01*
Y92615D01*
X64718D01*
Y92479D01*
X64650D01*
Y92343D01*
X64582D01*
Y92275D01*
X64514D01*
Y92139D01*
X64447D01*
Y92004D01*
X64379D01*
Y91868D01*
X64243D01*
Y92071D01*
X64311D01*
Y92207D01*
X64379D01*
Y92343D01*
X64447D01*
Y92479D01*
X64514D01*
Y92615D01*
X64582D01*
Y92683D01*
X64650D01*
Y92818D01*
X64718D01*
Y92954D01*
X64786D01*
Y93022D01*
X64854D01*
Y93158D01*
D02*
G37*
G36*
X61866Y92004D02*
X61798D01*
Y91936D01*
X61866D01*
Y92004D01*
D02*
G37*
G36*
X68181Y91936D02*
X68113D01*
Y91868D01*
X68181D01*
Y91936D01*
D02*
G37*
G36*
X61798D02*
X61663D01*
Y91868D01*
X61798D01*
Y91936D01*
D02*
G37*
G36*
X55823D02*
X55755D01*
Y91800D01*
X55687D01*
Y91868D01*
X55551D01*
Y91800D01*
X55212D01*
Y91732D01*
X55008D01*
Y91596D01*
X55212D01*
Y91664D01*
X55416D01*
Y91732D01*
X55551D01*
Y91664D01*
X55619D01*
Y91732D01*
X55959D01*
Y91664D01*
X56027D01*
Y91596D01*
X56230D01*
Y91528D01*
X56366D01*
Y91460D01*
X56434D01*
Y91392D01*
X56570D01*
Y91325D01*
X56706D01*
Y91257D01*
X56774D01*
Y91189D01*
X56842D01*
Y91121D01*
X56910D01*
Y91053D01*
X56977D01*
Y91121D01*
X57045D01*
Y91053D01*
X57181D01*
Y91121D01*
X57113D01*
Y91189D01*
X56977D01*
Y91257D01*
X56910D01*
Y91325D01*
X56842D01*
Y91392D01*
X56706D01*
Y91460D01*
X56638D01*
Y91528D01*
X56434D01*
Y91596D01*
X56298D01*
Y91664D01*
X56366D01*
Y91732D01*
X56230D01*
Y91800D01*
X56027D01*
Y91868D01*
X55959D01*
Y91800D01*
X55891D01*
Y91868D01*
X55823D01*
Y91936D01*
D02*
G37*
G36*
X67298Y92683D02*
X67027D01*
Y92615D01*
X66891D01*
Y92547D01*
X66823D01*
Y92411D01*
X66755D01*
Y92071D01*
X66823D01*
Y91936D01*
X66891D01*
Y91868D01*
X66959D01*
Y91800D01*
X67027D01*
Y91732D01*
X67434D01*
Y91800D01*
X67502D01*
Y92139D01*
X67434D01*
Y92479D01*
X67366D01*
Y92615D01*
X67298D01*
Y92683D01*
D02*
G37*
G36*
X56502Y91664D02*
X56434D01*
Y91596D01*
X56502D01*
Y91664D01*
D02*
G37*
G36*
X73070Y93090D02*
X72798D01*
Y93022D01*
X72663D01*
Y92886D01*
X72595D01*
Y92818D01*
X72527D01*
Y92615D01*
X72459D01*
Y91936D01*
X72527D01*
Y91732D01*
X72595D01*
Y91528D01*
X72663D01*
Y91460D01*
X72798D01*
Y91528D01*
X73274D01*
Y91596D01*
X73410D01*
Y91664D01*
Y91868D01*
X73342D01*
Y91936D01*
X73410D01*
Y92071D01*
X73342D01*
Y92411D01*
X73274D01*
Y92683D01*
X73206D01*
Y92954D01*
X73138D01*
Y93022D01*
X73070D01*
Y93090D01*
D02*
G37*
G36*
X67706Y92615D02*
X67434D01*
Y92547D01*
X67502D01*
Y92411D01*
X67570D01*
Y91392D01*
X67706D01*
Y91460D01*
X67774D01*
Y92411D01*
X67706D01*
Y92615D01*
D02*
G37*
G36*
X55891Y91392D02*
X55823D01*
Y91325D01*
X55891D01*
Y91392D01*
D02*
G37*
G36*
X74971Y92411D02*
X74768D01*
Y92343D01*
X74496D01*
Y92275D01*
X74428D01*
Y92207D01*
X74292D01*
Y92139D01*
X74224D01*
Y92004D01*
X74156D01*
Y91664D01*
X74224D01*
Y91460D01*
X74292D01*
Y91392D01*
X74360D01*
Y91325D01*
X74428D01*
Y91257D01*
X74496D01*
Y91189D01*
X74564D01*
Y91121D01*
X74835D01*
Y91053D01*
X74971D01*
Y91121D01*
X75107D01*
Y91189D01*
X75243D01*
Y91257D01*
X75311D01*
Y91392D01*
X75379D01*
Y91528D01*
X75447D01*
Y92071D01*
X75379D01*
Y92139D01*
X75311D01*
Y92207D01*
X75243D01*
Y92275D01*
X75175D01*
Y92343D01*
X74971D01*
Y92411D01*
D02*
G37*
G36*
X72391Y91664D02*
X72323D01*
Y90985D01*
X72527D01*
Y91053D01*
X72595D01*
Y91189D01*
X72663D01*
Y91257D01*
X72595D01*
Y91325D01*
X72527D01*
Y91392D01*
X72459D01*
Y91596D01*
X72391D01*
Y91664D01*
D02*
G37*
G36*
X68589Y91325D02*
X68453D01*
Y91257D01*
X68181D01*
Y91189D01*
X68249D01*
Y91121D01*
X68317D01*
Y91053D01*
X68385D01*
Y90985D01*
X68656D01*
Y91189D01*
X68589D01*
Y91325D01*
D02*
G37*
G36*
X54940Y91664D02*
X54873D01*
Y91596D01*
X54737D01*
Y91460D01*
X54669D01*
Y91392D01*
X54601D01*
Y90781D01*
X54805D01*
Y90849D01*
X54737D01*
Y90985D01*
X54669D01*
Y91189D01*
X54737D01*
Y91325D01*
X54805D01*
Y91392D01*
X54873D01*
Y91460D01*
X54940D01*
Y91528D01*
X55008D01*
Y91596D01*
X54940D01*
Y91664D01*
D02*
G37*
G36*
X68724Y90849D02*
X68589D01*
Y90781D01*
X68656D01*
Y90714D01*
X68724D01*
Y90849D01*
D02*
G37*
G36*
X66484Y92751D02*
X66008D01*
Y92683D01*
X65940D01*
Y92615D01*
X65873D01*
Y92547D01*
X65805D01*
Y92411D01*
X65737D01*
Y92343D01*
X65669D01*
Y92207D01*
X65601D01*
Y92139D01*
X65533D01*
Y92004D01*
X65465D01*
Y91868D01*
X65397D01*
Y91732D01*
X65329D01*
Y91121D01*
X65397D01*
Y90985D01*
X65465D01*
Y90917D01*
X65601D01*
Y90849D01*
X65737D01*
Y90781D01*
X65873D01*
Y90714D01*
X66416D01*
Y90781D01*
X66348D01*
Y90917D01*
X66280D01*
Y91189D01*
X66212D01*
Y91460D01*
X66280D01*
Y91800D01*
X66348D01*
Y92004D01*
X66416D01*
Y92139D01*
X66484D01*
Y92275D01*
X66552D01*
Y92343D01*
X66619D01*
Y92411D01*
X66687D01*
Y92547D01*
X66755D01*
Y92683D01*
X66484D01*
Y92751D01*
D02*
G37*
G36*
X57724Y90781D02*
X57657D01*
Y90714D01*
X57724D01*
Y90781D01*
D02*
G37*
G36*
X56502Y90849D02*
X56434D01*
Y90781D01*
X56366D01*
Y90646D01*
X56502D01*
Y90714D01*
X56570D01*
Y90781D01*
X56502D01*
Y90849D01*
D02*
G37*
G36*
X54940Y90714D02*
X54873D01*
Y90646D01*
X54940D01*
Y90714D01*
D02*
G37*
G36*
X54805D02*
X54669D01*
Y90646D01*
X54805D01*
Y90714D01*
D02*
G37*
G36*
X79521Y90646D02*
X79181D01*
Y90578D01*
X79521D01*
Y90646D01*
D02*
G37*
G36*
X78977Y90714D02*
X78570D01*
Y90646D01*
X78502D01*
Y90578D01*
X79113D01*
Y90646D01*
X78977D01*
Y90714D01*
D02*
G37*
G36*
X56706D02*
X56638D01*
Y90646D01*
X56570D01*
Y90578D01*
X56774D01*
Y90646D01*
X56706D01*
Y90714D01*
D02*
G37*
G36*
X56027Y90849D02*
X55891D01*
Y90781D01*
Y90714D01*
Y90578D01*
X56027D01*
Y90849D01*
D02*
G37*
G36*
X55687Y91053D02*
X55484D01*
Y90917D01*
X55416D01*
Y90781D01*
X55484D01*
Y90849D01*
X55551D01*
Y90714D01*
X55619D01*
Y90781D01*
X55687D01*
Y90646D01*
X55619D01*
Y90578D01*
X55687D01*
Y90510D01*
X55755D01*
Y90578D01*
X55823D01*
Y90917D01*
X55687D01*
Y90849D01*
X55551D01*
Y90917D01*
X55619D01*
Y90985D01*
X55687D01*
Y91053D01*
D02*
G37*
G36*
X56977Y90578D02*
X56842D01*
Y90442D01*
X56977D01*
Y90510D01*
Y90578D01*
D02*
G37*
G36*
X78570Y90306D02*
X78502D01*
Y90238D01*
X78570D01*
Y90306D01*
D02*
G37*
G36*
X57317Y90578D02*
X57113D01*
Y90510D01*
X57045D01*
Y90306D01*
X57113D01*
Y90374D01*
X57385D01*
Y90306D01*
X57453D01*
Y90170D01*
X57385D01*
Y90238D01*
X57317D01*
Y90170D01*
X57385D01*
Y90102D01*
X57249D01*
Y90035D01*
X57317D01*
Y89967D01*
X57249D01*
Y89899D01*
X57181D01*
Y89831D01*
X57317D01*
Y89899D01*
X57385D01*
Y90035D01*
X57453D01*
Y90102D01*
X57521D01*
Y90306D01*
X57589D01*
Y90374D01*
X57657D01*
Y90510D01*
X57589D01*
Y90442D01*
X57521D01*
Y90510D01*
X57317D01*
Y90578D01*
D02*
G37*
G36*
X79453Y90170D02*
X79385D01*
Y90102D01*
Y90035D01*
X79453D01*
Y90170D01*
D02*
G37*
G36*
X79249D02*
X79181D01*
Y90035D01*
X79249D01*
Y90102D01*
Y90170D01*
D02*
G37*
G36*
X74089Y91189D02*
X74021D01*
Y90849D01*
X74089D01*
Y90578D01*
X74156D01*
Y90510D01*
X74224D01*
Y90442D01*
X74292D01*
Y90374D01*
X74360D01*
Y90306D01*
X74292D01*
Y90102D01*
X74224D01*
Y89967D01*
X74089D01*
Y90035D01*
X74021D01*
Y90170D01*
X73885D01*
Y90374D01*
X73817D01*
Y90510D01*
X73749D01*
Y90714D01*
X73681D01*
Y91121D01*
X73545D01*
Y91189D01*
X73070D01*
Y91121D01*
X72934D01*
Y90985D01*
X72866D01*
Y90849D01*
X72934D01*
Y90714D01*
X73002D01*
Y90646D01*
X73138D01*
Y90578D01*
X73206D01*
Y90510D01*
X73410D01*
Y90442D01*
X73477D01*
Y90374D01*
X73613D01*
Y90306D01*
X73681D01*
Y90238D01*
X73749D01*
Y90170D01*
X73817D01*
Y90102D01*
X73885D01*
Y90035D01*
X73953D01*
Y89967D01*
X74021D01*
Y89831D01*
X74089D01*
Y89695D01*
X73953D01*
Y89491D01*
X73885D01*
Y89559D01*
X73817D01*
Y89695D01*
X73749D01*
Y89763D01*
X73681D01*
Y89831D01*
X73613D01*
Y89899D01*
X73545D01*
Y89967D01*
X73477D01*
Y90035D01*
X73410D01*
Y90102D01*
X73342D01*
Y90170D01*
X73206D01*
Y90238D01*
X73070D01*
Y90306D01*
X73002D01*
Y90374D01*
X72934D01*
Y90442D01*
X72866D01*
Y90510D01*
X72798D01*
Y90578D01*
X72730D01*
Y90646D01*
X72663D01*
Y90714D01*
X72595D01*
Y90781D01*
X72255D01*
Y90374D01*
X72187D01*
Y90102D01*
X72119D01*
Y89831D01*
X72052D01*
Y89763D01*
X72119D01*
Y89695D01*
X72323D01*
Y89763D01*
X72663D01*
Y89695D01*
X72730D01*
Y89559D01*
X72798D01*
Y89423D01*
X72866D01*
Y89355D01*
X72934D01*
Y89288D01*
X73002D01*
Y89220D01*
X73070D01*
Y89152D01*
X73138D01*
Y89084D01*
X73206D01*
Y89016D01*
X73274D01*
Y88948D01*
X73342D01*
Y88880D01*
X73477D01*
Y88812D01*
X73613D01*
Y88744D01*
X73749D01*
Y88676D01*
X73953D01*
Y88608D01*
X74021D01*
Y88676D01*
X74156D01*
Y88608D01*
X74224D01*
Y88676D01*
X74564D01*
Y88744D01*
X74768D01*
Y88812D01*
X74903D01*
Y88880D01*
X75039D01*
Y88948D01*
X75175D01*
Y89016D01*
X75243D01*
Y89084D01*
X75311D01*
Y89152D01*
X75379D01*
Y89220D01*
X75447D01*
Y89288D01*
X75515D01*
Y89355D01*
X75582D01*
Y89423D01*
X75650D01*
Y89491D01*
X75718D01*
Y89627D01*
X75786D01*
Y89763D01*
X75854D01*
Y90035D01*
X75922D01*
Y90306D01*
X75990D01*
Y90646D01*
X75922D01*
Y90781D01*
X75515D01*
Y90714D01*
X75447D01*
Y90646D01*
X75379D01*
Y90578D01*
X75311D01*
Y90510D01*
X75243D01*
Y90102D01*
X75175D01*
Y90035D01*
X75107D01*
Y89967D01*
X75039D01*
Y89831D01*
X74768D01*
Y90170D01*
X74835D01*
Y90374D01*
X74903D01*
Y90442D01*
X74835D01*
Y90646D01*
X74903D01*
Y90714D01*
X74971D01*
Y90781D01*
X74700D01*
Y90849D01*
X74360D01*
Y90917D01*
X74292D01*
Y90985D01*
X74224D01*
Y91053D01*
X74156D01*
Y91121D01*
X74089D01*
Y91189D01*
D02*
G37*
G36*
X56230Y90781D02*
X56095D01*
Y90714D01*
X56163D01*
Y90646D01*
X56230D01*
Y90510D01*
X56502D01*
Y90442D01*
X56434D01*
Y90306D01*
X56638D01*
Y90170D01*
X56706D01*
Y90102D01*
X56774D01*
Y90170D01*
X56842D01*
Y90035D01*
X57045D01*
Y89967D01*
X57181D01*
Y90035D01*
X57113D01*
Y90102D01*
X57045D01*
Y90170D01*
X56842D01*
Y90238D01*
X56706D01*
Y90374D01*
X56638D01*
Y90442D01*
X56570D01*
Y90510D01*
X56502D01*
Y90578D01*
X56298D01*
Y90646D01*
X56230D01*
Y90781D01*
D02*
G37*
G36*
X80064Y89899D02*
X79996D01*
Y89831D01*
X80064D01*
Y89899D01*
D02*
G37*
G36*
X78706Y89967D02*
X78638D01*
Y89831D01*
X78502D01*
Y89967D01*
X78434D01*
Y89831D01*
X78366D01*
Y89763D01*
X78434D01*
Y89695D01*
X78638D01*
Y89763D01*
X78706D01*
Y89627D01*
X78774D01*
Y89763D01*
X78706D01*
Y89967D01*
D02*
G37*
G36*
X80200Y90374D02*
X80064D01*
Y90306D01*
X79792D01*
Y90170D01*
X79589D01*
Y90035D01*
X79656D01*
Y90102D01*
X79792D01*
Y90035D01*
X79860D01*
Y90102D01*
X79996D01*
Y90170D01*
X80132D01*
Y90102D01*
X80064D01*
Y89967D01*
X80132D01*
Y89763D01*
X80200D01*
Y89967D01*
X80132D01*
Y90035D01*
X80200D01*
Y90374D01*
D02*
G37*
G36*
X79928Y89899D02*
X79792D01*
Y89763D01*
X79928D01*
Y89899D01*
D02*
G37*
G36*
X79724Y89831D02*
X79589D01*
Y89763D01*
X79724D01*
Y89831D01*
D02*
G37*
G36*
X79113Y90035D02*
X78977D01*
Y89899D01*
X79045D01*
Y89967D01*
X79113D01*
Y89831D01*
X79249D01*
Y89899D01*
X79317D01*
Y89831D01*
X79385D01*
Y89763D01*
X79453D01*
Y89899D01*
X79385D01*
Y89967D01*
X79181D01*
X79113Y90035D01*
D02*
G37*
G36*
X78910Y89899D02*
X78774D01*
Y89831D01*
X78842D01*
Y89763D01*
X78977D01*
Y89831D01*
X78910D01*
Y89899D01*
D02*
G37*
G36*
X54940Y90578D02*
X54737D01*
Y90510D01*
X54805D01*
Y90442D01*
X54873D01*
Y90374D01*
X54940D01*
Y90306D01*
X55008D01*
Y90238D01*
X55076D01*
Y90170D01*
X55144D01*
Y90102D01*
X55280D01*
Y90035D01*
X55416D01*
Y89967D01*
X55551D01*
Y89899D01*
X55619D01*
Y89831D01*
X55755D01*
Y89763D01*
X56027D01*
Y89695D01*
X56298D01*
Y89627D01*
X56910D01*
Y89695D01*
X57113D01*
Y89763D01*
X57181D01*
Y89831D01*
X56977D01*
Y89763D01*
X56842D01*
Y89831D01*
X56706D01*
Y89763D01*
X56570D01*
Y89831D01*
X56502D01*
Y89763D01*
X56163D01*
Y89831D01*
X56027D01*
Y89899D01*
X55755D01*
Y89967D01*
X55687D01*
Y90035D01*
X55619D01*
Y90102D01*
X55416D01*
Y90170D01*
X55280D01*
Y90306D01*
X55212D01*
Y90374D01*
X55144D01*
Y90306D01*
X55076D01*
Y90374D01*
X55008D01*
Y90442D01*
X54940D01*
Y90578D01*
D02*
G37*
G36*
X80132Y89763D02*
X80064D01*
Y89695D01*
X79996D01*
Y89559D01*
X80064D01*
Y89627D01*
X80132D01*
Y89763D01*
D02*
G37*
G36*
X79996Y89559D02*
X79928D01*
Y89491D01*
X79996D01*
Y89559D01*
D02*
G37*
G36*
X79928Y89491D02*
X79792D01*
Y89423D01*
X79928D01*
Y89491D01*
D02*
G37*
G36*
X60848Y89627D02*
X60440D01*
Y89491D01*
X60508D01*
Y89423D01*
X60780D01*
Y89491D01*
X60848D01*
Y89627D01*
D02*
G37*
G36*
X79792Y89423D02*
X79589D01*
Y89355D01*
X79453D01*
Y89288D01*
X79317D01*
Y89220D01*
X79249D01*
Y89152D01*
X79385D01*
Y89220D01*
X79589D01*
Y89288D01*
X79724D01*
Y89355D01*
X79792D01*
Y89423D01*
D02*
G37*
G36*
X78298Y90646D02*
X78231D01*
Y90578D01*
X78163D01*
Y90510D01*
X78095D01*
Y90442D01*
X78027D01*
Y90374D01*
X77959D01*
Y90306D01*
X77891D01*
Y90238D01*
X77823D01*
Y90170D01*
X77755D01*
Y90035D01*
X77687D01*
Y89831D01*
X77619D01*
Y89763D01*
X77687D01*
Y89559D01*
X77755D01*
Y89423D01*
X77891D01*
Y89355D01*
X77959D01*
Y89288D01*
X78095D01*
Y89220D01*
X78163D01*
Y89152D01*
X78434D01*
Y89220D01*
X78502D01*
Y89288D01*
X78231D01*
Y89355D01*
X78095D01*
Y89423D01*
X77959D01*
Y89491D01*
X77891D01*
Y89559D01*
X77823D01*
Y90102D01*
X77891D01*
Y90170D01*
X78027D01*
Y90238D01*
X78095D01*
Y90306D01*
X78163D01*
Y90374D01*
X78231D01*
Y90510D01*
X78366D01*
Y90578D01*
X78298D01*
Y90646D01*
D02*
G37*
G36*
X61527Y89491D02*
X61391D01*
Y89152D01*
X61459D01*
Y89220D01*
X61595D01*
Y89288D01*
X61663D01*
Y89423D01*
X61527D01*
Y89491D01*
D02*
G37*
G36*
X79181Y89220D02*
X78570D01*
Y89152D01*
X78638D01*
Y89084D01*
X78910D01*
Y89152D01*
X79181D01*
Y89220D01*
D02*
G37*
G36*
X58947Y88948D02*
X58811D01*
Y88880D01*
X58947D01*
Y88948D01*
D02*
G37*
G36*
X58811Y88880D02*
X58675D01*
Y88812D01*
X58811D01*
Y88880D01*
D02*
G37*
G36*
X68724Y90442D02*
X68589D01*
Y90170D01*
X68521D01*
Y89967D01*
X68453D01*
Y89831D01*
X68385D01*
Y89695D01*
X68317D01*
Y89627D01*
X68249D01*
Y89559D01*
X68181D01*
Y89423D01*
X68045D01*
Y89152D01*
X68113D01*
Y88812D01*
X68045D01*
Y88744D01*
X67977D01*
Y89016D01*
X67910D01*
Y89152D01*
X67774D01*
Y89084D01*
X67706D01*
Y88880D01*
X67638D01*
Y88948D01*
X67434D01*
Y88880D01*
X67366D01*
Y88812D01*
X67230D01*
Y88744D01*
X67027D01*
Y88676D01*
X66823D01*
Y88608D01*
X66619D01*
Y88541D01*
X66348D01*
Y88473D01*
X65940D01*
Y88405D01*
Y88337D01*
X65873D01*
Y88201D01*
X65805D01*
Y88065D01*
X65737D01*
Y87997D01*
X65465D01*
Y88065D01*
X65397D01*
Y88133D01*
X65329D01*
Y88405D01*
X65261D01*
Y88473D01*
X64582D01*
Y88541D01*
X64175D01*
Y88473D01*
X64107D01*
Y88405D01*
X64039D01*
Y88337D01*
X63971D01*
Y88269D01*
X63768D01*
Y88337D01*
X63700D01*
Y88676D01*
X63632D01*
Y88744D01*
X63428D01*
Y88812D01*
X63224D01*
Y88880D01*
X63021D01*
Y88948D01*
X62817D01*
Y89016D01*
X62681D01*
Y89084D01*
X62477D01*
Y89152D01*
X62274D01*
Y89220D01*
X62070D01*
Y89288D01*
X61934D01*
Y89355D01*
X61866D01*
Y89288D01*
X61798D01*
Y89220D01*
X61730D01*
Y89084D01*
X61663D01*
Y89016D01*
X61527D01*
Y88948D01*
X61323D01*
Y89016D01*
X61255D01*
Y89288D01*
X61187D01*
Y89559D01*
X61051D01*
Y89491D01*
X60984D01*
Y89423D01*
X60916D01*
Y89355D01*
X60848D01*
Y89288D01*
X60712D01*
Y89220D01*
X60440D01*
Y89288D01*
X60373D01*
Y89423D01*
X60305D01*
Y89627D01*
X60237D01*
Y89695D01*
X59626D01*
Y89627D01*
X59558D01*
Y89491D01*
X59490D01*
Y89423D01*
X59422D01*
Y89152D01*
X59490D01*
Y89084D01*
X59558D01*
Y89016D01*
X59693D01*
Y88948D01*
X59761D01*
Y88880D01*
X59829D01*
Y88812D01*
X59897D01*
Y88744D01*
X60033D01*
Y88676D01*
X60169D01*
Y88608D01*
X60373D01*
Y88541D01*
X60440D01*
Y88473D01*
X60576D01*
Y88405D01*
X60780D01*
Y88337D01*
X60984D01*
Y88269D01*
X61187D01*
Y88201D01*
X61391D01*
Y88133D01*
X61934D01*
Y88065D01*
X62138D01*
Y87997D01*
X62681D01*
Y87929D01*
X62953D01*
Y87862D01*
X63224D01*
Y87794D01*
X63496D01*
Y87726D01*
X63700D01*
Y87658D01*
X63903D01*
Y87590D01*
X64107D01*
Y87522D01*
X64379D01*
Y87454D01*
X64718D01*
Y87386D01*
X65873D01*
Y87454D01*
X66212D01*
Y87386D01*
X66008D01*
Y87318D01*
X65737D01*
Y87251D01*
X65397D01*
Y87183D01*
X65126D01*
Y87115D01*
X65193D01*
Y87047D01*
X65329D01*
Y86979D01*
X65465D01*
Y86911D01*
X66348D01*
Y86979D01*
X66552D01*
Y87047D01*
X66755D01*
Y87115D01*
X66891D01*
Y87183D01*
X67027D01*
Y87251D01*
X67095D01*
Y87115D01*
X67027D01*
Y87047D01*
X66959D01*
Y86979D01*
X66823D01*
Y86911D01*
X66687D01*
Y86843D01*
X66552D01*
Y86775D01*
X66348D01*
Y86707D01*
X66144D01*
Y86639D01*
X65669D01*
Y86707D01*
X65329D01*
Y86775D01*
X65261D01*
Y86843D01*
X65126D01*
Y86911D01*
X64990D01*
Y86979D01*
X64922D01*
Y87047D01*
X64786D01*
Y87115D01*
X64718D01*
Y87183D01*
X64582D01*
Y86911D01*
X64514D01*
Y86843D01*
X64582D01*
Y86775D01*
X64650D01*
Y86707D01*
X64718D01*
Y86572D01*
X64786D01*
Y86436D01*
X64922D01*
Y86368D01*
X64990D01*
Y86300D01*
X65397D01*
Y86232D01*
X65533D01*
Y86164D01*
X65737D01*
Y86096D01*
X65940D01*
Y86028D01*
X66076D01*
Y85960D01*
X66212D01*
Y85892D01*
X66348D01*
Y85825D01*
X66687D01*
Y85757D01*
X66823D01*
Y85689D01*
X66959D01*
Y85621D01*
X67502D01*
Y85757D01*
X67570D01*
Y85960D01*
X67638D01*
Y86164D01*
X67706D01*
Y86436D01*
X67774D01*
Y86639D01*
X67638D01*
Y86775D01*
X67706D01*
Y86843D01*
X67774D01*
Y86911D01*
X67706D01*
Y86979D01*
X67638D01*
Y87047D01*
X67706D01*
Y87115D01*
X67774D01*
Y87183D01*
X67910D01*
Y87251D01*
X67977D01*
Y87318D01*
X67910D01*
Y87454D01*
X67842D01*
Y87590D01*
X67910D01*
Y87726D01*
X67977D01*
Y87794D01*
X68045D01*
Y87862D01*
X68113D01*
Y87929D01*
X68181D01*
Y87997D01*
X68249D01*
Y88065D01*
X68317D01*
Y88133D01*
X68385D01*
Y88201D01*
X68453D01*
Y88269D01*
X68521D01*
Y88337D01*
X68589D01*
Y88405D01*
X68656D01*
Y88473D01*
X68724D01*
Y88541D01*
X68860D01*
Y88676D01*
X68928D01*
Y88744D01*
X68996D01*
Y88948D01*
X69064D01*
Y89627D01*
X68996D01*
Y90102D01*
X68928D01*
Y90306D01*
X68860D01*
Y90374D01*
X68724D01*
Y90442D01*
D02*
G37*
G36*
X58675Y88812D02*
X58607D01*
Y88744D01*
X58675D01*
Y88812D01*
D02*
G37*
G36*
X58607Y88744D02*
X58471D01*
Y88676D01*
X58607D01*
Y88744D01*
D02*
G37*
G36*
X58471Y88676D02*
X58403D01*
Y88608D01*
X58471D01*
Y88676D01*
D02*
G37*
G36*
X63971Y88608D02*
X63836D01*
Y88541D01*
X63971D01*
Y88608D01*
D02*
G37*
G36*
X59558Y88473D02*
X59422D01*
Y88405D01*
X59558D01*
Y88473D01*
D02*
G37*
G36*
X58403Y88608D02*
X58336D01*
Y88541D01*
X58268D01*
Y88405D01*
X58471D01*
Y88473D01*
X58403D01*
Y88608D01*
D02*
G37*
G36*
X59218Y88812D02*
X59014D01*
Y88744D01*
X58879D01*
Y88676D01*
X58811D01*
Y88608D01*
X58675D01*
Y88541D01*
X58539D01*
Y88473D01*
X58607D01*
Y88337D01*
X58675D01*
Y88405D01*
X58743D01*
Y88473D01*
X58811D01*
Y88541D01*
X58947D01*
Y88608D01*
X59014D01*
Y88676D01*
X59150D01*
Y88744D01*
X59218D01*
Y88812D01*
D02*
G37*
G36*
X65669Y88473D02*
X65533D01*
Y88405D01*
X65465D01*
Y88269D01*
Y88201D01*
X65669D01*
Y88337D01*
X65737D01*
Y88405D01*
X65669D01*
Y88473D01*
D02*
G37*
G36*
X59082Y88133D02*
X59014D01*
Y88065D01*
X59082D01*
Y88133D01*
D02*
G37*
G36*
X80403Y87726D02*
X79792D01*
Y87658D01*
X80403D01*
Y87726D01*
D02*
G37*
G36*
X79656Y87658D02*
X79453D01*
Y87590D01*
X79656D01*
Y87658D01*
D02*
G37*
G36*
X79317Y87590D02*
X79045D01*
Y87522D01*
X79317D01*
Y87590D01*
D02*
G37*
G36*
X79045Y87522D02*
X78502D01*
Y87454D01*
X78298D01*
Y87386D01*
X78570D01*
Y87454D01*
X79045D01*
Y87522D01*
D02*
G37*
G36*
X68792Y87862D02*
X68453D01*
Y87794D01*
X68385D01*
Y87726D01*
X68317D01*
Y87590D01*
X68249D01*
Y87522D01*
X68181D01*
Y87454D01*
X68113D01*
Y87386D01*
X68249D01*
Y87454D01*
X68453D01*
Y87522D01*
X68589D01*
Y87590D01*
X68656D01*
Y87658D01*
X68724D01*
Y87794D01*
X68792D01*
Y87862D01*
D02*
G37*
G36*
X71984Y89288D02*
X71848D01*
Y89152D01*
X71780D01*
Y89016D01*
X71712D01*
Y88812D01*
X71644D01*
Y88744D01*
X71576D01*
Y88608D01*
X71508D01*
Y88405D01*
X71440D01*
Y88269D01*
X71372D01*
Y88133D01*
X71305D01*
Y88065D01*
X71237D01*
Y87997D01*
X71169D01*
Y87929D01*
X71101D01*
Y87862D01*
X71033D01*
Y87794D01*
X71169D01*
Y87726D01*
X71101D01*
Y87658D01*
X70965D01*
Y87590D01*
X70761D01*
Y87522D01*
X70626D01*
Y87454D01*
X70490D01*
Y87386D01*
X70354D01*
Y87318D01*
X70150D01*
Y87251D01*
X70015D01*
Y87183D01*
X69947D01*
Y87115D01*
X69879D01*
Y86911D01*
X69947D01*
Y86775D01*
X70015D01*
Y86436D01*
X70082D01*
Y85892D01*
X70218D01*
Y85960D01*
X70354D01*
Y86028D01*
X70490D01*
Y86096D01*
X70558D01*
Y86164D01*
X70626D01*
Y86232D01*
X70693D01*
Y86300D01*
X71101D01*
Y86368D01*
X71372D01*
Y86436D01*
X71508D01*
Y86504D01*
X71644D01*
Y86572D01*
X71712D01*
Y86639D01*
X71780D01*
Y86707D01*
X71848D01*
Y86775D01*
X71916D01*
Y86843D01*
X71984D01*
Y86911D01*
X72052D01*
Y86979D01*
X72119D01*
Y87115D01*
X72187D01*
Y87183D01*
X72255D01*
Y87318D01*
X72323D01*
Y87386D01*
X72391D01*
Y87454D01*
X72527D01*
Y87318D01*
X72595D01*
Y87386D01*
X72730D01*
Y87454D01*
X72798D01*
Y87522D01*
X72866D01*
Y87590D01*
X73002D01*
Y87726D01*
X73070D01*
Y87794D01*
X73138D01*
Y87862D01*
X73206D01*
Y87997D01*
X73274D01*
Y88065D01*
X73138D01*
Y88133D01*
X73070D01*
Y88201D01*
X73002D01*
Y88269D01*
X72934D01*
Y88337D01*
X72866D01*
Y88405D01*
X72798D01*
Y88473D01*
X72730D01*
Y88608D01*
X72663D01*
Y88676D01*
X72595D01*
Y88812D01*
X72527D01*
Y89016D01*
X72459D01*
Y89220D01*
X71984D01*
Y89288D01*
D02*
G37*
G36*
X78095Y87386D02*
X77823D01*
Y87318D01*
X77687D01*
Y87251D01*
X77891D01*
Y87318D01*
X78095D01*
Y87386D01*
D02*
G37*
G36*
X74021Y87997D02*
X73817D01*
Y87929D01*
X73749D01*
Y87726D01*
X73681D01*
Y87522D01*
X73613D01*
Y87454D01*
X73545D01*
Y87386D01*
X73613D01*
Y87318D01*
X73885D01*
Y87386D01*
X74224D01*
Y87318D01*
X74564D01*
Y87251D01*
X74700D01*
Y87318D01*
X74768D01*
Y87454D01*
X74700D01*
Y87522D01*
X74632D01*
Y87590D01*
X74564D01*
Y87658D01*
X74496D01*
Y87726D01*
X74428D01*
Y87794D01*
X74360D01*
Y87862D01*
X74292D01*
Y87929D01*
X74021D01*
Y87997D01*
D02*
G37*
G36*
X62342Y87251D02*
X62206D01*
Y87183D01*
X62342D01*
Y87251D01*
D02*
G37*
G36*
X62206Y87183D02*
X62070D01*
Y87115D01*
X62206D01*
Y87183D01*
D02*
G37*
G36*
X62070Y87115D02*
X62002D01*
Y87047D01*
X61866D01*
Y86979D01*
X61798D01*
Y87115D01*
X61527D01*
Y87047D01*
X61459D01*
Y86911D01*
X61663D01*
Y86843D01*
X61595D01*
Y86707D01*
X61663D01*
Y86775D01*
X61730D01*
Y86843D01*
X61798D01*
Y86707D01*
X61730D01*
Y86639D01*
X61595D01*
Y86707D01*
X61527D01*
Y86639D01*
X61459D01*
Y86572D01*
X61527D01*
Y86504D01*
X61595D01*
Y86572D01*
X61730D01*
Y86639D01*
X61798D01*
Y86707D01*
X61866D01*
Y86775D01*
X61934D01*
Y86911D01*
X62138D01*
Y86979D01*
X62070D01*
Y87115D01*
D02*
G37*
G36*
X59150Y88405D02*
X58879D01*
Y88337D01*
X58811D01*
Y88269D01*
X58743D01*
Y88201D01*
X58879D01*
Y88065D01*
X58947D01*
Y88201D01*
X59014D01*
Y88269D01*
X59082D01*
Y88133D01*
X59150D01*
Y88201D01*
X59286D01*
Y88133D01*
X59218D01*
Y87929D01*
X59286D01*
Y87997D01*
X59490D01*
Y87862D01*
X59558D01*
Y87794D01*
X59761D01*
Y87726D01*
X59897D01*
Y87794D01*
X60033D01*
Y87726D01*
X60101D01*
Y87590D01*
X60169D01*
Y87522D01*
X60305D01*
Y87454D01*
X60508D01*
Y87522D01*
X60576D01*
Y87590D01*
X60644D01*
Y87454D01*
X60576D01*
Y87318D01*
X60780D01*
Y87183D01*
X60712D01*
Y87115D01*
X60576D01*
Y87047D01*
X60508D01*
Y86979D01*
X60576D01*
Y86911D01*
X60644D01*
Y86979D01*
X60780D01*
Y87047D01*
X60916D01*
Y87115D01*
X61051D01*
Y87183D01*
X61187D01*
Y87251D01*
X61255D01*
Y87386D01*
X61119D01*
Y87454D01*
X60984D01*
Y87386D01*
X60780D01*
Y87454D01*
X60712D01*
Y87522D01*
X60780D01*
Y87590D01*
X61051D01*
Y87726D01*
X60848D01*
Y87794D01*
X60780D01*
Y87726D01*
X60712D01*
Y87658D01*
X60576D01*
Y87726D01*
X60508D01*
Y87794D01*
X60237D01*
Y87862D01*
X60169D01*
Y87929D01*
X59965D01*
Y87862D01*
X59829D01*
Y88065D01*
X59626D01*
Y88133D01*
X59558D01*
Y88201D01*
X59490D01*
Y88269D01*
X59422D01*
Y88201D01*
X59354D01*
Y88337D01*
X59286D01*
Y88269D01*
X59218D01*
Y88337D01*
X59150D01*
Y88405D01*
D02*
G37*
G36*
X62885Y87047D02*
X62817D01*
Y86979D01*
X62749D01*
Y86911D01*
X63021D01*
Y86843D01*
X63156D01*
Y86911D01*
X63089D01*
Y86979D01*
X62885D01*
Y87047D01*
D02*
G37*
G36*
X80064Y87183D02*
X79996D01*
Y87115D01*
X79792D01*
Y87047D01*
X79724D01*
Y86979D01*
X79589D01*
Y86911D01*
X79521D01*
Y86843D01*
X79453D01*
Y86775D01*
X79385D01*
Y86707D01*
X79317D01*
Y86504D01*
X79453D01*
Y86368D01*
X79521D01*
Y86436D01*
X79589D01*
Y86504D01*
X79656D01*
Y86368D01*
X79792D01*
Y86504D01*
X79860D01*
Y86572D01*
X79996D01*
Y86707D01*
X80064D01*
Y86639D01*
X80132D01*
Y86707D01*
X80200D01*
Y86843D01*
X80268D01*
Y86775D01*
X80335D01*
Y86843D01*
X80403D01*
Y86979D01*
X80335D01*
Y87047D01*
X80268D01*
Y86979D01*
X80132D01*
Y86911D01*
X79996D01*
Y86843D01*
X79928D01*
Y86775D01*
X79792D01*
Y86707D01*
X79656D01*
Y86775D01*
X79724D01*
Y86843D01*
X79792D01*
Y86911D01*
X79928D01*
Y86979D01*
X80064D01*
Y87183D01*
D02*
G37*
G36*
X77687Y87251D02*
X77484D01*
Y87183D01*
X77144D01*
Y87115D01*
X76940D01*
Y87047D01*
X76669D01*
Y86979D01*
X76465D01*
Y86911D01*
X76329D01*
Y86843D01*
X75515D01*
Y86775D01*
X75175D01*
Y86843D01*
X74971D01*
Y86911D01*
X74496D01*
Y86979D01*
X74360D01*
Y87047D01*
X74224D01*
Y87115D01*
X73749D01*
Y87047D01*
X73342D01*
Y86979D01*
X73274D01*
Y86911D01*
X73206D01*
Y86843D01*
X73138D01*
Y86775D01*
X73002D01*
Y86707D01*
X72866D01*
Y86639D01*
X72798D01*
Y86572D01*
X72730D01*
Y86504D01*
X72595D01*
Y86436D01*
X72527D01*
Y86368D01*
X72459D01*
Y86300D01*
X72391D01*
Y86232D01*
X72323D01*
Y86164D01*
X72255D01*
Y86096D01*
X72187D01*
Y86028D01*
X72052D01*
Y85960D01*
X71916D01*
Y85892D01*
X71644D01*
Y85825D01*
X71169D01*
Y85757D01*
X70965D01*
Y85689D01*
X71033D01*
Y85621D01*
X71237D01*
Y85553D01*
X71576D01*
Y85485D01*
X71780D01*
Y85417D01*
X71984D01*
Y85349D01*
X72119D01*
Y85281D01*
X72459D01*
Y85214D01*
X72527D01*
Y85146D01*
X72934D01*
Y85214D01*
X73002D01*
Y85281D01*
X73138D01*
Y85349D01*
X73206D01*
Y85417D01*
X73545D01*
Y85349D01*
X73613D01*
Y85281D01*
X73681D01*
Y85214D01*
X73749D01*
Y84874D01*
X73817D01*
Y84670D01*
X73953D01*
Y84602D01*
X74156D01*
Y84535D01*
X74360D01*
Y84467D01*
X74428D01*
Y85892D01*
X74496D01*
Y86164D01*
X74700D01*
Y86096D01*
X74768D01*
Y86028D01*
X74835D01*
Y85960D01*
X74971D01*
Y85892D01*
X75107D01*
Y85825D01*
X75243D01*
Y85757D01*
X75311D01*
Y85689D01*
X75379D01*
Y85621D01*
X75447D01*
Y85553D01*
X75515D01*
Y85417D01*
X75582D01*
Y85281D01*
X75650D01*
Y85078D01*
X75718D01*
Y84806D01*
X75786D01*
Y84263D01*
X75854D01*
Y84467D01*
X75922D01*
Y84670D01*
X76058D01*
Y84535D01*
X76126D01*
Y84059D01*
X76058D01*
Y83991D01*
X75990D01*
Y83923D01*
X75854D01*
Y83788D01*
X75990D01*
Y83720D01*
X76261D01*
Y83652D01*
X76533D01*
Y83584D01*
X76805D01*
Y83652D01*
X76940D01*
Y83720D01*
X77076D01*
Y83788D01*
X77144D01*
Y83855D01*
X77212D01*
Y83923D01*
X77348D01*
Y83991D01*
X77484D01*
Y84059D01*
X77552D01*
Y84127D01*
X77619D01*
Y84195D01*
X77687D01*
Y84263D01*
X77823D01*
Y84331D01*
X77891D01*
Y84399D01*
X78027D01*
Y84467D01*
X78095D01*
Y84535D01*
X78163D01*
Y84602D01*
X78366D01*
Y84738D01*
X78502D01*
Y84806D01*
X78570D01*
Y84874D01*
X78638D01*
Y84942D01*
X78774D01*
Y85010D01*
X78842D01*
Y85078D01*
X78977D01*
Y85146D01*
X79045D01*
Y85214D01*
X79113D01*
Y85281D01*
X79045D01*
Y85349D01*
X78910D01*
Y85417D01*
X78774D01*
Y85485D01*
X78570D01*
Y85553D01*
X78231D01*
Y85621D01*
X78027D01*
Y85689D01*
X77891D01*
Y85757D01*
X77755D01*
Y85825D01*
X77619D01*
Y85892D01*
X77484D01*
Y85960D01*
X77416D01*
Y86028D01*
X77280D01*
Y86096D01*
X77144D01*
Y86164D01*
X76940D01*
Y86232D01*
X76872D01*
Y86300D01*
X76805D01*
Y86368D01*
X76737D01*
Y86436D01*
X76669D01*
Y86504D01*
X76601D01*
Y86639D01*
X76669D01*
Y86707D01*
Y86775D01*
X76737D01*
Y86843D01*
X76872D01*
Y86911D01*
X77008D01*
Y86979D01*
X77076D01*
Y87047D01*
X77212D01*
Y87115D01*
X77552D01*
Y87183D01*
X77687D01*
Y87251D01*
D02*
G37*
G36*
X69132Y86979D02*
X68996D01*
Y86911D01*
X68928D01*
Y86843D01*
X68860D01*
Y86775D01*
X68113D01*
Y86843D01*
X68045D01*
Y86775D01*
X67977D01*
Y86707D01*
X67910D01*
Y86368D01*
X67842D01*
Y86028D01*
X67774D01*
Y85621D01*
X67706D01*
Y85485D01*
X67774D01*
Y84942D01*
X68385D01*
Y85146D01*
X68453D01*
Y85281D01*
X68589D01*
Y85349D01*
X68860D01*
Y85281D01*
X68928D01*
Y85214D01*
X68996D01*
Y85010D01*
X69200D01*
Y85078D01*
X69336D01*
Y85349D01*
Y85417D01*
Y85892D01*
X69403D01*
Y86028D01*
X69336D01*
Y86639D01*
X69268D01*
Y86843D01*
X69200D01*
Y86911D01*
X69132D01*
Y86979D01*
D02*
G37*
G36*
X80879Y86843D02*
X80539D01*
Y86775D01*
X80403D01*
Y86707D01*
X80335D01*
Y86639D01*
X80200D01*
Y86572D01*
X80132D01*
Y86504D01*
X80064D01*
Y86436D01*
X79996D01*
Y86368D01*
X79928D01*
Y86164D01*
X79996D01*
Y86232D01*
X80064D01*
Y86300D01*
X80200D01*
Y86368D01*
X80335D01*
Y86436D01*
X80539D01*
Y86368D01*
X80607D01*
Y86572D01*
X80539D01*
Y86707D01*
X80607D01*
Y86639D01*
X80811D01*
Y86707D01*
X80879D01*
Y86639D01*
X80947D01*
Y86572D01*
X81015D01*
Y86639D01*
X80947D01*
Y86775D01*
X80879D01*
Y86843D01*
D02*
G37*
G36*
X62749Y86911D02*
X62681D01*
Y86843D01*
X62545D01*
Y86775D01*
X62410D01*
Y86707D01*
X62342D01*
Y86639D01*
X62274D01*
Y86504D01*
X62342D01*
Y86572D01*
X62410D01*
Y86639D01*
X62477D01*
Y86707D01*
X62749D01*
Y86911D01*
D02*
G37*
G36*
X63903Y86300D02*
X63836D01*
Y86232D01*
X63903D01*
Y86300D01*
D02*
G37*
G36*
X64243Y86232D02*
X64107D01*
Y86164D01*
X64243D01*
Y86232D01*
D02*
G37*
G36*
X64107Y86164D02*
X64039D01*
Y86096D01*
X64107D01*
Y86164D01*
D02*
G37*
G36*
X81558Y86504D02*
X81218D01*
Y86368D01*
X81150D01*
Y86300D01*
X81082D01*
Y86232D01*
X80947D01*
Y86164D01*
X80879D01*
Y86096D01*
X80811D01*
Y86028D01*
X80743D01*
Y85960D01*
X80675D01*
Y85892D01*
X80743D01*
Y85689D01*
X80811D01*
Y85621D01*
X81015D01*
Y85689D01*
X81150D01*
Y85757D01*
X80947D01*
Y85825D01*
X81150D01*
Y85757D01*
X81286D01*
Y85825D01*
X81354D01*
Y85757D01*
X81286D01*
Y85689D01*
X81218D01*
Y85621D01*
X81286D01*
Y85485D01*
X81422D01*
Y85349D01*
X81490D01*
Y85417D01*
X81558D01*
Y85349D01*
X81694D01*
Y85417D01*
X81829D01*
Y85349D01*
X81897D01*
Y85214D01*
X81965D01*
Y85281D01*
X82101D01*
Y85349D01*
X82169D01*
Y85485D01*
X82576D01*
Y85553D01*
X82508D01*
Y85621D01*
X82576D01*
Y85757D01*
X82780D01*
Y85689D01*
X82848D01*
Y85621D01*
X82916D01*
Y85825D01*
X82848D01*
Y85892D01*
X82780D01*
Y85960D01*
X82440D01*
Y85892D01*
X82372D01*
Y85825D01*
X82305D01*
Y85757D01*
X82169D01*
Y85689D01*
X82033D01*
Y85621D01*
X81965D01*
Y85757D01*
X82033D01*
Y85825D01*
X82237D01*
Y86096D01*
X82169D01*
Y86232D01*
X81694D01*
Y86300D01*
X81626D01*
Y86368D01*
X81558D01*
Y86504D01*
D02*
G37*
G36*
X64990Y85960D02*
X64854D01*
Y85825D01*
X64786D01*
Y85757D01*
X64718D01*
Y85689D01*
X64854D01*
Y85757D01*
X64922D01*
Y85825D01*
X65126D01*
Y85621D01*
X65193D01*
Y85892D01*
X64990D01*
Y85960D01*
D02*
G37*
G36*
X63360Y86775D02*
X63089D01*
Y86707D01*
X63021D01*
Y86639D01*
X62885D01*
Y86572D01*
X62817D01*
Y86504D01*
X62749D01*
Y86436D01*
X62681D01*
Y86300D01*
X62885D01*
Y86164D01*
X63021D01*
Y86232D01*
X63089D01*
Y86096D01*
X63224D01*
Y86164D01*
X63360D01*
Y86096D01*
X63428D01*
Y85960D01*
X63564D01*
Y85892D01*
X63632D01*
Y85825D01*
X63768D01*
Y85757D01*
X63903D01*
Y85689D01*
X63971D01*
Y85621D01*
X64107D01*
Y85757D01*
X64175D01*
Y85825D01*
X64243D01*
Y85960D01*
X64039D01*
Y85892D01*
X63903D01*
Y85825D01*
X63836D01*
Y85960D01*
X63903D01*
Y86028D01*
X64039D01*
Y86096D01*
X63768D01*
Y86164D01*
X63564D01*
Y86232D01*
X63496D01*
Y86300D01*
X63224D01*
Y86436D01*
X63021D01*
Y86368D01*
X62953D01*
Y86436D01*
X62885D01*
Y86504D01*
X63021D01*
Y86572D01*
X63156D01*
Y86639D01*
X63292D01*
Y86707D01*
X63360D01*
Y86775D01*
D02*
G37*
G36*
X65126Y85621D02*
X65058D01*
Y85553D01*
X65126D01*
Y85621D01*
D02*
G37*
G36*
X64718Y85689D02*
X64582D01*
Y85553D01*
X64650D01*
Y85621D01*
X64718D01*
Y85689D01*
D02*
G37*
G36*
X64582Y85553D02*
X64514D01*
Y85485D01*
X64582D01*
Y85553D01*
D02*
G37*
G36*
X64786Y85417D02*
X64650D01*
Y85349D01*
X64786D01*
Y85417D01*
D02*
G37*
G36*
X64514Y85485D02*
X64379D01*
Y85417D01*
X64447D01*
Y85349D01*
X64582D01*
Y85417D01*
X64514D01*
Y85485D01*
D02*
G37*
G36*
X70286Y85757D02*
X70218D01*
Y85485D01*
X70286D01*
Y85349D01*
Y85281D01*
Y85214D01*
X70422D01*
Y85485D01*
X70354D01*
Y85621D01*
X70286D01*
Y85757D01*
D02*
G37*
G36*
X68792Y85214D02*
X68589D01*
Y85146D01*
X68521D01*
Y85010D01*
X68453D01*
Y84942D01*
X68521D01*
Y84874D01*
X68656D01*
Y84942D01*
X68860D01*
Y85146D01*
X68792D01*
Y85214D01*
D02*
G37*
G36*
X65058Y85553D02*
X64922D01*
Y85485D01*
X64786D01*
Y85417D01*
X64922D01*
Y85214D01*
X64990D01*
Y85146D01*
X65193D01*
Y85078D01*
X65261D01*
Y85010D01*
X65397D01*
Y84942D01*
X65533D01*
Y85010D01*
X65601D01*
Y84874D01*
X65533D01*
Y84806D01*
X65397D01*
Y84738D01*
X65329D01*
Y84602D01*
X65465D01*
Y84670D01*
X65601D01*
Y84738D01*
X65669D01*
Y84806D01*
X65873D01*
Y84738D01*
X66008D01*
Y84602D01*
X66076D01*
Y84670D01*
X66144D01*
Y84738D01*
X66212D01*
Y84806D01*
X66348D01*
Y84874D01*
X66212D01*
Y84942D01*
X66076D01*
Y84874D01*
X66008D01*
Y85078D01*
X65805D01*
Y85146D01*
X65669D01*
Y85281D01*
X65329D01*
Y85214D01*
X65261D01*
Y85281D01*
X65193D01*
Y85349D01*
X65261D01*
Y85417D01*
X65126D01*
Y85485D01*
X65058D01*
Y85553D01*
D02*
G37*
G36*
X57657Y87794D02*
X57589D01*
Y86572D01*
X57521D01*
Y85553D01*
X57589D01*
Y85485D01*
X57860D01*
Y85417D01*
X57996D01*
Y85349D01*
X58064D01*
Y85281D01*
X58200D01*
Y85214D01*
X58336D01*
Y85146D01*
X58403D01*
Y85078D01*
X58539D01*
Y85010D01*
X58675D01*
Y84942D01*
X58811D01*
Y84874D01*
X58879D01*
Y84806D01*
X59014D01*
Y84738D01*
X59082D01*
Y84670D01*
X59218D01*
Y84602D01*
X59422D01*
Y84535D01*
X59829D01*
Y84602D01*
X60033D01*
Y84670D01*
X60237D01*
Y84738D01*
X60373D01*
Y84806D01*
X60440D01*
Y84874D01*
X60644D01*
Y84942D01*
X60780D01*
Y85010D01*
X60848D01*
Y85078D01*
X61119D01*
Y85146D01*
X61323D01*
Y85214D01*
X61527D01*
Y85281D01*
X61663D01*
Y85349D01*
X61730D01*
Y85417D01*
X61798D01*
Y85553D01*
X61595D01*
Y85621D01*
X61459D01*
Y85689D01*
X61323D01*
Y85757D01*
X61187D01*
Y85825D01*
X61119D01*
Y85892D01*
X60984D01*
Y85960D01*
X60848D01*
Y86028D01*
X60712D01*
Y86096D01*
X60576D01*
Y86164D01*
X60440D01*
Y86232D01*
X60305D01*
Y86300D01*
X60169D01*
Y86368D01*
X60101D01*
Y86436D01*
X59965D01*
Y86504D01*
X59761D01*
Y86572D01*
X59626D01*
Y86639D01*
X59558D01*
Y86707D01*
X59422D01*
Y86775D01*
X59286D01*
Y86843D01*
X59150D01*
Y86911D01*
X59014D01*
Y86979D01*
X58947D01*
Y87047D01*
X58811D01*
Y87115D01*
X58743D01*
Y87183D01*
X58607D01*
Y87251D01*
X58539D01*
Y87318D01*
X58403D01*
Y87386D01*
X58268D01*
Y87454D01*
X58132D01*
Y87522D01*
X57996D01*
Y87590D01*
X57860D01*
Y87658D01*
X57792D01*
Y87726D01*
X57657D01*
Y87794D01*
D02*
G37*
G36*
X66280Y84602D02*
X66212D01*
Y84535D01*
X66076D01*
Y84399D01*
X66144D01*
Y84467D01*
X66212D01*
X66280Y84535D01*
Y84602D01*
D02*
G37*
G36*
X67366Y84874D02*
X67230D01*
Y84806D01*
X67163D01*
Y84738D01*
X67095D01*
Y84670D01*
X67027D01*
Y84602D01*
X66959D01*
Y84535D01*
X67163D01*
Y84467D01*
Y84331D01*
X67027D01*
Y84263D01*
X66823D01*
Y84399D01*
X66891D01*
Y84467D01*
X66959D01*
Y84535D01*
X66823D01*
Y84467D01*
X66755D01*
Y84399D01*
X66687D01*
Y84263D01*
X66823D01*
Y84195D01*
X67163D01*
Y84059D01*
X67298D01*
Y83991D01*
X67502D01*
Y84059D01*
X67638D01*
Y83855D01*
X67842D01*
Y83788D01*
X67910D01*
Y83720D01*
X67977D01*
Y83652D01*
X68045D01*
Y83584D01*
X67977D01*
Y83516D01*
X68113D01*
Y83584D01*
X68181D01*
Y83652D01*
X68045D01*
Y83788D01*
X68113D01*
Y83923D01*
X68249D01*
Y83991D01*
X68045D01*
Y84059D01*
X67977D01*
Y84127D01*
X68113D01*
Y84195D01*
X68181D01*
Y84263D01*
X68317D01*
Y84331D01*
X68045D01*
Y84263D01*
X67977D01*
Y84331D01*
X67842D01*
Y84127D01*
X67774D01*
Y84195D01*
X67638D01*
Y84127D01*
X67570D01*
Y84195D01*
X67502D01*
Y84263D01*
X67434D01*
Y84331D01*
X67366D01*
Y84263D01*
X67230D01*
Y84535D01*
X67434D01*
Y84602D01*
X67502D01*
Y84738D01*
X67434D01*
Y84806D01*
X67366D01*
Y84874D01*
D02*
G37*
G36*
X75039Y85281D02*
X74903D01*
Y85146D01*
X74835D01*
Y84806D01*
X74768D01*
Y84467D01*
Y84399D01*
X74700D01*
Y84331D01*
X74835D01*
Y84263D01*
X75039D01*
Y84195D01*
X75175D01*
Y84127D01*
X75379D01*
Y84263D01*
X75447D01*
Y84535D01*
X75379D01*
Y84738D01*
X75311D01*
Y84942D01*
X75243D01*
Y85010D01*
X75175D01*
Y85146D01*
X75107D01*
Y85214D01*
X75039D01*
Y85281D01*
D02*
G37*
G36*
X68521Y84195D02*
X68385D01*
Y84127D01*
X68521D01*
Y84195D01*
D02*
G37*
G36*
X68385Y84127D02*
X68317D01*
Y84059D01*
X68385D01*
Y84127D01*
D02*
G37*
G36*
X68317Y84059D02*
X68249D01*
Y83991D01*
X68317D01*
Y84059D01*
D02*
G37*
G36*
X56230Y88676D02*
X56095D01*
Y88608D01*
X56027D01*
Y88269D01*
X55959D01*
Y88133D01*
Y88065D01*
Y87929D01*
X55891D01*
Y86639D01*
X55959D01*
Y86572D01*
X55891D01*
Y86232D01*
X55823D01*
Y86096D01*
X55755D01*
Y85689D01*
X55687D01*
Y84942D01*
X55619D01*
Y84670D01*
X55551D01*
Y84535D01*
X55484D01*
Y84399D01*
X55416D01*
Y84263D01*
X55348D01*
Y84195D01*
X55280D01*
Y84059D01*
X55212D01*
Y83923D01*
X55144D01*
Y83788D01*
X55076D01*
Y83652D01*
X55144D01*
Y83720D01*
X55212D01*
Y83652D01*
X55280D01*
Y83720D01*
X55348D01*
Y83652D01*
X55687D01*
Y83720D01*
X55891D01*
Y83788D01*
X56027D01*
Y83855D01*
X56095D01*
Y83923D01*
X56230D01*
Y83991D01*
X56366D01*
Y84059D01*
X56502D01*
Y84127D01*
X56638D01*
Y84195D01*
X56842D01*
Y84263D01*
X57113D01*
Y84331D01*
X57317D01*
Y84399D01*
X57453D01*
Y84467D01*
X57521D01*
Y84535D01*
X57453D01*
Y84602D01*
X57385D01*
Y84806D01*
X57317D01*
Y85214D01*
X57249D01*
Y85621D01*
X57181D01*
Y85825D01*
X57249D01*
Y86639D01*
X57317D01*
Y87997D01*
X57249D01*
Y88065D01*
X57113D01*
Y88133D01*
X56977D01*
Y88201D01*
X56910D01*
Y88269D01*
X56774D01*
Y88337D01*
X56638D01*
Y88405D01*
X56570D01*
Y88473D01*
X56434D01*
Y88541D01*
X56298D01*
Y88608D01*
X56230D01*
Y88676D01*
D02*
G37*
G36*
X69132Y83788D02*
X69064D01*
Y83720D01*
X68860D01*
Y83652D01*
X68792D01*
Y83584D01*
X68724D01*
Y83516D01*
X68656D01*
Y83448D01*
X68589D01*
Y83380D01*
X68724D01*
Y83448D01*
X68792D01*
Y83516D01*
X68860D01*
Y83584D01*
X69132D01*
Y83788D01*
D02*
G37*
G36*
X75447Y82973D02*
X75311D01*
Y82837D01*
X75447D01*
Y82769D01*
X75515D01*
Y82905D01*
X75447D01*
Y82973D01*
D02*
G37*
G36*
X69268Y83923D02*
X69200D01*
Y83855D01*
X69132D01*
Y83788D01*
X69403D01*
Y83720D01*
X69471D01*
Y83584D01*
X69403D01*
Y83516D01*
X69268D01*
Y83448D01*
X69132D01*
Y83312D01*
X69064D01*
Y83176D01*
X69268D01*
Y83109D01*
X69200D01*
Y82973D01*
X68996D01*
Y82769D01*
X69064D01*
Y82837D01*
X69268D01*
Y82905D01*
X69336D01*
Y82973D01*
X69471D01*
Y83041D01*
X69675D01*
Y83244D01*
X69539D01*
Y83312D01*
X69403D01*
Y83244D01*
X69268D01*
Y83380D01*
X69403D01*
Y83448D01*
X69539D01*
Y83516D01*
X69675D01*
Y83584D01*
X69743D01*
Y83652D01*
X69539D01*
Y83788D01*
X69471D01*
Y83855D01*
X69268D01*
Y83923D01*
D02*
G37*
G36*
X75175Y82905D02*
X75039D01*
Y82769D01*
X75175D01*
Y82701D01*
X75447D01*
Y82769D01*
X75243D01*
Y82837D01*
X75175D01*
Y82905D01*
D02*
G37*
G36*
X74971Y82837D02*
X74835D01*
Y82769D01*
X74700D01*
Y82701D01*
X74632D01*
Y82633D01*
X74564D01*
Y82565D01*
X74496D01*
Y82429D01*
X74632D01*
Y82497D01*
X74700D01*
Y82565D01*
X74768D01*
Y82633D01*
X74835D01*
Y82701D01*
X74971D01*
Y82837D01*
D02*
G37*
G36*
X75786Y82565D02*
X75718D01*
Y82429D01*
X75786D01*
Y82362D01*
X75854D01*
Y82429D01*
X75786D01*
Y82565D01*
D02*
G37*
G36*
X77416Y82226D02*
X77348D01*
Y82158D01*
X77416D01*
Y82226D01*
D02*
G37*
G36*
X75854Y83041D02*
X75515D01*
Y82905D01*
X75786D01*
Y82837D01*
X75854D01*
Y82769D01*
X75990D01*
Y82701D01*
X76261D01*
Y82633D01*
X76329D01*
Y82565D01*
X76397D01*
Y82497D01*
X76601D01*
Y82429D01*
X76805D01*
Y82362D01*
X76940D01*
Y82158D01*
X77008D01*
Y82226D01*
X77076D01*
Y82158D01*
X77144D01*
Y82226D01*
X77212D01*
Y82158D01*
X77280D01*
Y82226D01*
X77212D01*
Y82294D01*
X77076D01*
Y82362D01*
X77008D01*
Y82429D01*
X76872D01*
Y82497D01*
X76805D01*
Y82565D01*
X76669D01*
Y82633D01*
X76533D01*
Y82769D01*
X76397D01*
Y82837D01*
X76329D01*
Y82905D01*
X76058D01*
Y82973D01*
X75922D01*
Y82905D01*
X75854D01*
Y83041D01*
D02*
G37*
G36*
X75515Y82158D02*
X75447D01*
Y81954D01*
X75379D01*
Y82022D01*
X75311D01*
Y81954D01*
X75243D01*
Y81886D01*
X75447D01*
Y81751D01*
X75582D01*
Y81615D01*
X75650D01*
Y81547D01*
X75718D01*
Y81615D01*
X75786D01*
Y81683D01*
X75922D01*
Y81615D01*
X75990D01*
Y81886D01*
X75854D01*
Y81818D01*
X75786D01*
Y81954D01*
X75582D01*
Y81886D01*
X75515D01*
Y82022D01*
X75582D01*
Y82090D01*
X75515D01*
Y82158D01*
D02*
G37*
G36*
X76533Y81886D02*
X76397D01*
Y81751D01*
X76533D01*
Y81886D01*
D02*
G37*
G36*
X76737Y81818D02*
X76669D01*
Y81751D01*
X76601D01*
Y81615D01*
X76737D01*
Y81683D01*
X76805D01*
Y81751D01*
X76737D01*
Y81818D01*
D02*
G37*
G36*
X77823Y81615D02*
X77755D01*
Y81547D01*
X77823D01*
Y81615D01*
D02*
G37*
G36*
X77484Y81683D02*
X77212D01*
Y81615D01*
X77144D01*
Y81547D01*
X77076D01*
Y81683D01*
X76872D01*
Y81479D01*
X76940D01*
Y81547D01*
X77076D01*
Y81411D01*
X77552D01*
Y81275D01*
X77484D01*
Y81139D01*
X77416D01*
Y81072D01*
X77348D01*
Y81004D01*
X77416D01*
Y80936D01*
X77484D01*
Y81004D01*
X77552D01*
Y81207D01*
X77619D01*
Y81343D01*
X77687D01*
Y81479D01*
X77755D01*
Y81547D01*
X77687D01*
Y81615D01*
X77484D01*
Y81683D01*
D02*
G37*
G36*
X58947Y83991D02*
X58268D01*
Y83923D01*
X57928D01*
Y83855D01*
X57724D01*
Y83788D01*
X57589D01*
Y83720D01*
X57453D01*
Y83652D01*
X57249D01*
Y83584D01*
X57113D01*
Y83516D01*
X56910D01*
Y83448D01*
X56842D01*
Y83380D01*
X57181D01*
Y83312D01*
X57589D01*
Y83244D01*
X57792D01*
Y83176D01*
X57860D01*
Y83109D01*
X57928D01*
Y83041D01*
X58064D01*
Y82973D01*
X58200D01*
Y82905D01*
X58268D01*
Y82837D01*
X58336D01*
Y82769D01*
X58471D01*
Y82701D01*
X58539D01*
Y82633D01*
X58607D01*
Y82565D01*
X58675D01*
Y82497D01*
X58811D01*
Y82429D01*
X58879D01*
Y82362D01*
X58947D01*
Y82294D01*
X59014D01*
Y82226D01*
X59150D01*
Y82090D01*
X59286D01*
Y82022D01*
X59354D01*
Y81954D01*
X59422D01*
Y81818D01*
X59490D01*
Y81683D01*
X59558D01*
Y81547D01*
X59626D01*
Y81343D01*
X59693D01*
Y81275D01*
X59829D01*
Y81343D01*
X60033D01*
Y81411D01*
X60169D01*
Y81479D01*
X60373D01*
Y81547D01*
X60712D01*
Y81615D01*
X61730D01*
Y81547D01*
X61866D01*
Y81683D01*
X61798D01*
Y81818D01*
X61730D01*
Y81886D01*
Y81954D01*
X61663D01*
Y82022D01*
X61595D01*
Y82090D01*
X61527D01*
Y82158D01*
X61459D01*
Y82226D01*
X61391D01*
Y82362D01*
X61323D01*
Y82429D01*
X61255D01*
Y82497D01*
X61187D01*
Y82565D01*
X61119D01*
Y82633D01*
X60984D01*
Y82701D01*
X60916D01*
Y82769D01*
X60848D01*
Y82837D01*
X60780D01*
Y82905D01*
X60712D01*
Y82973D01*
X60508D01*
Y83041D01*
X60440D01*
Y83109D01*
X60373D01*
Y83176D01*
X60305D01*
Y83244D01*
X60169D01*
Y83312D01*
X60101D01*
Y83380D01*
X60033D01*
Y83448D01*
X59897D01*
Y83516D01*
X59761D01*
Y83584D01*
X59626D01*
Y83652D01*
X59558D01*
Y83720D01*
X59422D01*
Y83788D01*
X59286D01*
Y83855D01*
X59014D01*
Y83923D01*
X58947D01*
Y83991D01*
D02*
G37*
G36*
X56774Y82429D02*
X56638D01*
Y82158D01*
X56706D01*
Y81886D01*
X56774D01*
Y81683D01*
X57181D01*
Y81615D01*
X57385D01*
Y81547D01*
X57453D01*
Y81683D01*
X57521D01*
Y81886D01*
X57589D01*
Y82090D01*
X57453D01*
Y82158D01*
X57249D01*
Y82226D01*
X57113D01*
Y82294D01*
X56977D01*
Y82362D01*
X56774D01*
Y82429D01*
D02*
G37*
G36*
X56502Y82362D02*
X56366D01*
Y82294D01*
X56230D01*
Y82226D01*
X56095D01*
Y82158D01*
X55959D01*
Y82090D01*
X55891D01*
Y82022D01*
X55823D01*
Y81954D01*
X55891D01*
Y81818D01*
X55959D01*
Y81683D01*
X56027D01*
Y81615D01*
X56095D01*
Y81547D01*
X56163D01*
Y81479D01*
X56298D01*
Y81547D01*
X56434D01*
Y81615D01*
X56502D01*
Y81683D01*
X56638D01*
Y81818D01*
X56570D01*
Y82090D01*
X56502D01*
Y82362D01*
D02*
G37*
G36*
X76261Y81886D02*
X76126D01*
Y81818D01*
X76058D01*
Y81751D01*
X76126D01*
Y81683D01*
X76193D01*
Y81547D01*
X76465D01*
Y81343D01*
X76737D01*
Y81411D01*
X76669D01*
Y81479D01*
X76601D01*
Y81547D01*
X76465D01*
Y81683D01*
X76193D01*
Y81751D01*
X76261D01*
Y81886D01*
D02*
G37*
G36*
X69947Y81751D02*
X69811D01*
Y81547D01*
X69879D01*
Y81479D01*
X69947D01*
Y81343D01*
X70082D01*
Y81479D01*
X70150D01*
Y81683D01*
X69947D01*
Y81751D01*
D02*
G37*
G36*
X76872Y81275D02*
X76669D01*
Y81207D01*
X76737D01*
Y81139D01*
X76805D01*
Y81207D01*
X76872D01*
Y81139D01*
X76940D01*
Y81072D01*
X77144D01*
Y81004D01*
X77280D01*
Y81072D01*
X77212D01*
Y81139D01*
X77144D01*
Y81207D01*
X76872D01*
Y81275D01*
D02*
G37*
G36*
X68724Y82362D02*
X68521D01*
Y82294D01*
X68453D01*
Y81886D01*
X68521D01*
Y81818D01*
Y81751D01*
Y81683D01*
X68589D01*
Y81547D01*
X68656D01*
Y81343D01*
X68724D01*
Y81275D01*
X68792D01*
Y81207D01*
X68860D01*
Y81139D01*
X68928D01*
Y81072D01*
X69064D01*
Y81004D01*
X69268D01*
Y81072D01*
X69336D01*
Y81139D01*
X69403D01*
Y81615D01*
X69336D01*
Y81886D01*
X69268D01*
Y82022D01*
X69200D01*
Y82090D01*
X69132D01*
Y82158D01*
X68996D01*
Y82226D01*
X68860D01*
Y82294D01*
X68724D01*
Y82362D01*
D02*
G37*
G36*
X57792Y81954D02*
X57724D01*
Y81818D01*
X57657D01*
Y81615D01*
X57589D01*
Y81411D01*
X57657D01*
Y81343D01*
X57724D01*
Y81275D01*
X57792D01*
Y81139D01*
X57860D01*
Y81004D01*
X57928D01*
Y81072D01*
X57996D01*
Y81139D01*
X58064D01*
Y81207D01*
X58132D01*
Y81275D01*
X58200D01*
Y81343D01*
X58268D01*
Y81411D01*
X58200D01*
Y81479D01*
Y81547D01*
X58132D01*
Y81615D01*
X58064D01*
Y81683D01*
X57996D01*
Y81751D01*
X57928D01*
Y81818D01*
X57860D01*
Y81886D01*
X57792D01*
Y81954D01*
D02*
G37*
G36*
X57045Y81547D02*
X56842D01*
Y81275D01*
X56910D01*
Y81072D01*
X57113D01*
Y81004D01*
X57249D01*
Y81139D01*
X57317D01*
Y81343D01*
X57385D01*
Y81411D01*
X57249D01*
Y81479D01*
X57045D01*
Y81547D01*
D02*
G37*
G36*
X56706Y81479D02*
X56502D01*
Y81411D01*
X56434D01*
Y81343D01*
X56366D01*
Y81207D01*
X56434D01*
Y81072D01*
X56502D01*
Y81004D01*
X56706D01*
Y81072D01*
X56774D01*
Y81207D01*
X56706D01*
Y81479D01*
D02*
G37*
G36*
X56366Y83176D02*
X56230D01*
Y83109D01*
X56095D01*
Y83041D01*
X55959D01*
Y82973D01*
X55823D01*
Y82905D01*
X55687D01*
Y82837D01*
X55619D01*
Y82769D01*
X55551D01*
Y82633D01*
X55484D01*
Y82565D01*
X55416D01*
Y82429D01*
X55348D01*
Y82362D01*
X55280D01*
Y82226D01*
X55212D01*
Y82022D01*
X55144D01*
Y81954D01*
X55076D01*
Y81751D01*
X55008D01*
Y81547D01*
X54940D01*
Y81343D01*
X54873D01*
Y80936D01*
X54805D01*
Y80257D01*
X54873D01*
Y80189D01*
X55144D01*
Y80121D01*
X55212D01*
Y80664D01*
X55280D01*
Y81072D01*
X55348D01*
Y81411D01*
X55416D01*
Y81615D01*
X55484D01*
Y81751D01*
X55551D01*
Y81886D01*
X55619D01*
Y82022D01*
X55687D01*
Y82090D01*
X55755D01*
Y82226D01*
X55823D01*
Y82294D01*
X55959D01*
Y82362D01*
X56095D01*
Y82429D01*
X56230D01*
Y82497D01*
X56366D01*
Y82565D01*
X56910D01*
Y82497D01*
X57045D01*
Y82429D01*
X57181D01*
Y82362D01*
X57385D01*
Y82294D01*
X57521D01*
Y82226D01*
X57724D01*
Y82158D01*
X57792D01*
Y82090D01*
X57860D01*
Y82022D01*
X57996D01*
Y81954D01*
X58064D01*
Y81886D01*
X58132D01*
Y81751D01*
X58200D01*
Y81683D01*
X58268D01*
Y81615D01*
X58336D01*
Y81547D01*
X58403D01*
Y81411D01*
X58471D01*
Y81275D01*
X58539D01*
Y81207D01*
X58607D01*
Y81072D01*
X58675D01*
Y80936D01*
X58879D01*
Y81004D01*
X59014D01*
Y81072D01*
X59218D01*
Y81139D01*
X59286D01*
Y81207D01*
X59218D01*
Y81479D01*
X59150D01*
Y81615D01*
X59082D01*
Y81683D01*
X59014D01*
Y81818D01*
X58947D01*
Y81886D01*
X58879D01*
Y81954D01*
X58811D01*
Y82022D01*
X58743D01*
Y82090D01*
X58675D01*
Y82158D01*
X58607D01*
Y82226D01*
X58539D01*
Y82294D01*
X58471D01*
Y82362D01*
X58403D01*
Y82429D01*
X58336D01*
Y82497D01*
X58268D01*
Y82565D01*
X58132D01*
Y82633D01*
X58064D01*
Y82701D01*
X57928D01*
Y82769D01*
X57792D01*
Y82837D01*
X57657D01*
Y82905D01*
X57385D01*
Y82973D01*
X57181D01*
Y83041D01*
X56638D01*
Y83109D01*
X56366D01*
Y83176D01*
D02*
G37*
G36*
X77416Y80936D02*
X77348D01*
Y80868D01*
X77416D01*
Y80936D01*
D02*
G37*
G36*
X57589Y81207D02*
X57453D01*
Y81072D01*
X57385D01*
Y80800D01*
X57453D01*
Y80732D01*
X57589D01*
Y80800D01*
X57657D01*
Y80868D01*
X57724D01*
Y81004D01*
X57657D01*
Y81139D01*
X57589D01*
Y81207D01*
D02*
G37*
G36*
X55755Y81818D02*
X55687D01*
Y81683D01*
X55619D01*
Y81479D01*
X55551D01*
Y81343D01*
X55484D01*
Y80936D01*
X55416D01*
Y80800D01*
X55551D01*
Y80732D01*
X55823D01*
Y80936D01*
X55891D01*
Y81072D01*
X55959D01*
Y81139D01*
X56027D01*
Y81275D01*
X56095D01*
Y81343D01*
X56027D01*
Y81479D01*
X55959D01*
Y81615D01*
X55891D01*
Y81683D01*
X55823D01*
Y81751D01*
X55755D01*
Y81818D01*
D02*
G37*
G36*
X58403Y81207D02*
X58268D01*
Y81139D01*
X58200D01*
Y81072D01*
X58132D01*
Y81004D01*
X58064D01*
Y80936D01*
X57996D01*
Y80868D01*
X57928D01*
Y80664D01*
X58200D01*
Y80732D01*
X58336D01*
Y80800D01*
X58539D01*
Y81004D01*
X58471D01*
Y81139D01*
X58403D01*
Y81207D01*
D02*
G37*
G36*
X56842Y80868D02*
X56706D01*
Y80732D01*
X56774D01*
Y80664D01*
X56842D01*
Y80868D01*
D02*
G37*
G36*
X74496Y82429D02*
X74428D01*
Y82294D01*
X74360D01*
Y82022D01*
X74428D01*
Y81886D01*
X74496D01*
Y81683D01*
X74564D01*
Y81547D01*
X74632D01*
Y81479D01*
X74700D01*
Y81411D01*
X74768D01*
Y81343D01*
X74903D01*
Y81207D01*
X74971D01*
Y81139D01*
X75175D01*
Y81004D01*
X75243D01*
Y80936D01*
X75447D01*
Y80868D01*
X75650D01*
Y80800D01*
X75786D01*
Y80732D01*
X75990D01*
Y80664D01*
X76465D01*
Y80596D01*
X76533D01*
Y80664D01*
X77144D01*
Y80732D01*
X77212D01*
Y80800D01*
X77280D01*
Y80868D01*
X77144D01*
Y80800D01*
X77008D01*
Y80732D01*
X76940D01*
Y80800D01*
X76872D01*
Y80868D01*
X76805D01*
Y80732D01*
X76193D01*
Y80800D01*
X76058D01*
Y80868D01*
X75786D01*
Y80936D01*
X75582D01*
Y81004D01*
X75447D01*
Y81072D01*
X75243D01*
Y81139D01*
X75175D01*
Y81275D01*
X75107D01*
Y81343D01*
X75039D01*
Y81411D01*
X74971D01*
Y81479D01*
X74768D01*
Y81615D01*
X74700D01*
Y81683D01*
X74564D01*
Y82022D01*
X74496D01*
Y82158D01*
X74428D01*
Y82226D01*
X74496D01*
Y82294D01*
X74564D01*
Y82362D01*
X74496D01*
Y82429D01*
D02*
G37*
G36*
X56298Y81139D02*
X56163D01*
Y81072D01*
X56095D01*
Y81004D01*
X56027D01*
Y80868D01*
X55959D01*
Y80664D01*
X56027D01*
Y80596D01*
X56366D01*
Y80732D01*
X56434D01*
Y80936D01*
X56366D01*
Y81004D01*
X56298D01*
Y81139D01*
D02*
G37*
G36*
X57792Y80732D02*
X57724D01*
Y80664D01*
X57657D01*
Y80596D01*
X57589D01*
Y80528D01*
X57792D01*
Y80596D01*
X57860D01*
Y80664D01*
X57792D01*
Y80732D01*
D02*
G37*
G36*
X57181Y80868D02*
X56977D01*
Y80664D01*
X57045D01*
Y80528D01*
X57113D01*
Y80732D01*
X57181D01*
Y80800D01*
Y80868D01*
D02*
G37*
G36*
X56910Y80596D02*
X56842D01*
Y80528D01*
X56910D01*
Y80596D01*
D02*
G37*
G36*
X56638Y80664D02*
X56502D01*
Y80596D01*
X56570D01*
Y80528D01*
X56638D01*
Y80664D01*
D02*
G37*
G36*
X57385D02*
X57249D01*
Y80528D01*
X57181D01*
Y80460D01*
X57317D01*
Y80528D01*
X57385D01*
Y80664D01*
D02*
G37*
G36*
X56095Y80460D02*
X55959D01*
Y80392D01*
X56095D01*
Y80460D01*
D02*
G37*
G36*
X55687Y80596D02*
X55348D01*
Y80325D01*
Y80257D01*
Y80121D01*
X55687D01*
Y80053D01*
X55755D01*
Y80121D01*
X55823D01*
Y80528D01*
X55687D01*
Y80596D01*
D02*
G37*
G36*
X60033Y78831D02*
X59897D01*
Y78763D01*
X59829D01*
Y78831D01*
X59761D01*
Y78763D01*
X59693D01*
Y78831D01*
X59422D01*
Y78695D01*
X59354D01*
Y78084D01*
X59286D01*
Y77473D01*
X59218D01*
Y77337D01*
X59150D01*
Y77201D01*
X59082D01*
Y77133D01*
X59014D01*
Y76997D01*
X58947D01*
Y76862D01*
X58879D01*
Y76794D01*
X58811D01*
Y76726D01*
X58743D01*
Y76658D01*
X58675D01*
Y76590D01*
X58607D01*
Y76522D01*
X58539D01*
Y76454D01*
X57657D01*
Y76522D01*
X57521D01*
Y76590D01*
X57317D01*
Y76658D01*
X57113D01*
Y76726D01*
X56977D01*
Y76794D01*
X56842D01*
Y76862D01*
X56774D01*
Y76929D01*
X56706D01*
Y76997D01*
X56638D01*
Y77065D01*
X56570D01*
Y77133D01*
X56502D01*
Y77201D01*
X56434D01*
Y77269D01*
X56366D01*
Y77337D01*
X56298D01*
Y77405D01*
X56230D01*
Y77473D01*
X56163D01*
Y77609D01*
X56095D01*
Y77676D01*
X56027D01*
Y77744D01*
X55959D01*
Y77812D01*
X55891D01*
Y77948D01*
X55823D01*
Y78084D01*
X55755D01*
Y78220D01*
X55484D01*
Y78016D01*
X55551D01*
Y77812D01*
X55619D01*
Y77676D01*
X55687D01*
Y77541D01*
X55755D01*
Y77473D01*
X55823D01*
Y77337D01*
X55891D01*
Y77269D01*
X55959D01*
Y77133D01*
X56027D01*
Y77065D01*
X56095D01*
Y76997D01*
X56230D01*
Y76862D01*
X56366D01*
Y76794D01*
X56434D01*
Y76726D01*
X56502D01*
Y76658D01*
X56570D01*
Y76590D01*
X56638D01*
Y76522D01*
X56706D01*
Y76454D01*
X56842D01*
Y76386D01*
X56977D01*
Y76318D01*
X57113D01*
Y76250D01*
X57181D01*
Y76183D01*
X57317D01*
Y76115D01*
X57453D01*
Y76047D01*
X57589D01*
Y75979D01*
X57792D01*
Y75911D01*
X57996D01*
Y75843D01*
X58539D01*
Y75911D01*
X58675D01*
Y75979D01*
X58811D01*
Y76047D01*
X58879D01*
Y76183D01*
X58947D01*
Y76250D01*
X59014D01*
Y76318D01*
X59082D01*
Y76386D01*
X59150D01*
Y76454D01*
X59218D01*
Y76522D01*
X59286D01*
Y76590D01*
X59354D01*
Y76658D01*
X59422D01*
Y76726D01*
X59490D01*
Y76794D01*
X59558D01*
Y76997D01*
X59626D01*
Y77065D01*
X59693D01*
Y77201D01*
X59761D01*
Y77405D01*
X59829D01*
Y77609D01*
X59897D01*
Y78084D01*
X59965D01*
Y78423D01*
X60033D01*
Y78831D01*
D02*
G37*
G36*
X58200D02*
X57860D01*
Y78763D01*
X58200D01*
Y78831D01*
D02*
G37*
G36*
X57724Y78355D02*
X57657D01*
Y78220D01*
X57724D01*
Y78355D01*
D02*
G37*
G36*
X57249D02*
X57181D01*
Y78288D01*
X57113D01*
Y78220D01*
X57181D01*
Y78152D01*
X57249D01*
Y78220D01*
Y78288D01*
Y78355D01*
D02*
G37*
G36*
X58268Y78627D02*
X57860D01*
Y78423D01*
X57928D01*
Y78355D01*
X57996D01*
Y78288D01*
X58132D01*
Y78220D01*
X58200D01*
Y78152D01*
X58268D01*
Y78084D01*
X58336D01*
Y78220D01*
Y78288D01*
Y78423D01*
X58268D01*
Y78627D01*
D02*
G37*
G36*
X57453Y78355D02*
X57385D01*
Y78084D01*
X57589D01*
Y78152D01*
X57521D01*
Y78288D01*
X57453D01*
Y78355D01*
D02*
G37*
G36*
X56842Y78220D02*
X56706D01*
Y78152D01*
X56502D01*
Y78084D01*
X56570D01*
Y78016D01*
X56706D01*
Y78084D01*
X56774D01*
Y78152D01*
X56842D01*
Y78220D01*
D02*
G37*
G36*
X59218Y78627D02*
X58471D01*
Y78491D01*
Y78423D01*
Y78016D01*
X58539D01*
Y77948D01*
X58607D01*
Y77880D01*
X58675D01*
Y77812D01*
X58811D01*
Y77744D01*
X58947D01*
Y77676D01*
X59150D01*
Y78152D01*
X59218D01*
Y78627D01*
D02*
G37*
G36*
X56027Y78220D02*
X55959D01*
Y78084D01*
Y78016D01*
X56027D01*
Y77880D01*
X56095D01*
Y77812D01*
X56163D01*
Y77744D01*
X56230D01*
Y77676D01*
X56366D01*
Y77744D01*
X56434D01*
Y77812D01*
X56502D01*
Y77880D01*
X56434D01*
Y78016D01*
X56366D01*
Y78084D01*
X56298D01*
Y78152D01*
X56027D01*
Y78220D01*
D02*
G37*
G36*
X57113Y78084D02*
X56910D01*
Y78016D01*
X56842D01*
Y77948D01*
X56774D01*
Y77880D01*
X56706D01*
Y77812D01*
Y77744D01*
X56774D01*
Y77676D01*
X56910D01*
Y77609D01*
X56977D01*
Y77541D01*
X57113D01*
Y77473D01*
X57181D01*
Y77812D01*
X57249D01*
Y77948D01*
X57181D01*
Y78016D01*
X57113D01*
Y78084D01*
D02*
G37*
G36*
X72459Y80528D02*
X72052D01*
Y80460D01*
X71916D01*
Y80392D01*
X71848D01*
Y80325D01*
X71712D01*
Y80257D01*
X71576D01*
Y80189D01*
X71440D01*
Y80121D01*
X71305D01*
Y80053D01*
X71169D01*
Y79985D01*
X71033D01*
Y79917D01*
X70897D01*
Y79849D01*
X70761D01*
Y79781D01*
X70626D01*
Y79713D01*
X70558D01*
Y79646D01*
X70354D01*
Y79510D01*
X70490D01*
Y79442D01*
X70558D01*
Y79374D01*
X70693D01*
Y79306D01*
X70761D01*
Y79238D01*
X70829D01*
Y79170D01*
X70897D01*
Y79102D01*
X70965D01*
Y79035D01*
X71033D01*
Y78967D01*
X71169D01*
Y78899D01*
X71237D01*
Y78831D01*
X71372D01*
Y78763D01*
X71576D01*
Y78695D01*
X71712D01*
Y78627D01*
X71916D01*
Y78559D01*
X71984D01*
Y78491D01*
X72187D01*
Y78423D01*
X72323D01*
Y78355D01*
X72459D01*
Y78288D01*
X72527D01*
Y78220D01*
X72663D01*
Y78152D01*
X72730D01*
Y78084D01*
X72798D01*
Y78016D01*
X72934D01*
Y77948D01*
X73002D01*
Y77880D01*
X73138D01*
Y77812D01*
X73274D01*
Y77744D01*
X73410D01*
Y77676D01*
X73477D01*
Y77609D01*
X73613D01*
Y77541D01*
X73749D01*
Y77473D01*
X73817D01*
Y77405D01*
X73885D01*
Y77880D01*
X73953D01*
Y79306D01*
X74021D01*
Y79510D01*
X74089D01*
Y79713D01*
X74156D01*
Y79917D01*
X74021D01*
Y79985D01*
X73817D01*
Y80053D01*
X73545D01*
Y80121D01*
X73274D01*
Y80189D01*
X73070D01*
Y80257D01*
X72866D01*
Y80325D01*
X72730D01*
Y80392D01*
X72595D01*
Y80460D01*
X72459D01*
Y80528D01*
D02*
G37*
G36*
X62410Y85281D02*
X62070D01*
Y85214D01*
X61934D01*
Y85146D01*
X61798D01*
Y85078D01*
X61730D01*
Y85010D01*
X61595D01*
Y84942D01*
X61730D01*
Y84874D01*
X61866D01*
Y84806D01*
X62002D01*
Y84738D01*
X62138D01*
Y84670D01*
X62206D01*
Y84602D01*
X62342D01*
Y84535D01*
X62410D01*
Y84467D01*
X62545D01*
Y84399D01*
X62613D01*
Y84331D01*
X62681D01*
Y84263D01*
X62749D01*
Y84195D01*
X62885D01*
Y84127D01*
X62953D01*
Y84059D01*
X63089D01*
Y83923D01*
X63224D01*
Y83855D01*
X63292D01*
Y83788D01*
X63428D01*
Y83652D01*
X63496D01*
Y83584D01*
X63564D01*
Y83516D01*
X63632D01*
Y83448D01*
X63700D01*
Y83380D01*
X63768D01*
Y83312D01*
X63836D01*
Y83244D01*
X63903D01*
Y83176D01*
X63971D01*
Y83041D01*
X64039D01*
Y82973D01*
X64107D01*
Y82769D01*
X64175D01*
Y82565D01*
X64243D01*
Y82362D01*
X64311D01*
Y82226D01*
X64379D01*
Y81954D01*
X64447D01*
Y81818D01*
X64514D01*
Y81547D01*
X64582D01*
Y81411D01*
X64514D01*
Y81275D01*
X64582D01*
Y80800D01*
X64650D01*
Y80460D01*
X64718D01*
Y79442D01*
X64650D01*
Y78695D01*
X64582D01*
Y78559D01*
Y78491D01*
Y78355D01*
X64514D01*
Y78016D01*
X64447D01*
Y77880D01*
X64379D01*
Y77609D01*
X64311D01*
Y77405D01*
X64379D01*
Y77473D01*
X64514D01*
Y77541D01*
X64650D01*
Y77609D01*
X64786D01*
Y77676D01*
X64922D01*
Y77744D01*
X65126D01*
Y77812D01*
X65329D01*
Y77880D01*
X65533D01*
Y77948D01*
X65669D01*
Y78016D01*
X65805D01*
Y78084D01*
X65940D01*
Y78152D01*
X66076D01*
Y78220D01*
X66212D01*
Y78288D01*
X66348D01*
Y78355D01*
X66619D01*
Y78423D01*
X66823D01*
Y78491D01*
X66959D01*
Y78559D01*
X67095D01*
Y78627D01*
X67298D01*
Y78695D01*
X67434D01*
Y78763D01*
X67570D01*
Y78831D01*
X67706D01*
Y78899D01*
X67910D01*
Y78967D01*
X68113D01*
Y79035D01*
X68317D01*
Y79102D01*
X68453D01*
Y79170D01*
X68521D01*
Y79238D01*
X68589D01*
Y79306D01*
X68792D01*
Y79374D01*
X68928D01*
Y79442D01*
X69064D01*
Y79510D01*
X69200D01*
Y79578D01*
X69268D01*
Y79646D01*
X69403D01*
Y79713D01*
X69607D01*
Y79781D01*
X69743D01*
Y79849D01*
X69947D01*
Y79917D01*
X70218D01*
Y79985D01*
X70354D01*
Y80053D01*
X70558D01*
Y80121D01*
X70693D01*
Y80189D01*
X70897D01*
Y80257D01*
X71101D01*
Y80325D01*
X71237D01*
Y80392D01*
X71372D01*
Y80460D01*
X71440D01*
Y80528D01*
X71576D01*
Y80596D01*
X71780D01*
Y80664D01*
X71848D01*
Y80732D01*
X71780D01*
Y80800D01*
X71644D01*
Y80868D01*
X71508D01*
Y80936D01*
X71372D01*
Y81004D01*
X71169D01*
Y81072D01*
X71033D01*
Y81139D01*
X70965D01*
Y81207D01*
X70829D01*
Y81275D01*
X70761D01*
Y81343D01*
X70693D01*
Y81411D01*
X70558D01*
Y81479D01*
X70422D01*
Y81275D01*
X70354D01*
Y81072D01*
X70286D01*
Y81004D01*
X70082D01*
Y80936D01*
X69947D01*
Y81004D01*
X69811D01*
Y80936D01*
X69743D01*
Y80868D01*
X69675D01*
Y80800D01*
X69607D01*
Y80732D01*
X69539D01*
Y80664D01*
X69471D01*
Y80596D01*
X69336D01*
Y80528D01*
X68792D01*
Y80596D01*
X68656D01*
Y80664D01*
X68589D01*
Y80732D01*
X68521D01*
Y80800D01*
X68453D01*
Y80936D01*
X68385D01*
Y81004D01*
X68317D01*
Y81207D01*
X68249D01*
Y81343D01*
X68181D01*
Y81479D01*
X68113D01*
Y81683D01*
X68045D01*
Y82022D01*
X67977D01*
Y82497D01*
X68045D01*
Y82565D01*
X67977D01*
Y82633D01*
X67842D01*
Y82701D01*
X67774D01*
Y82769D01*
X67570D01*
Y82837D01*
X67434D01*
Y82905D01*
X67298D01*
Y82973D01*
X67230D01*
Y83041D01*
X67163D01*
Y83109D01*
X67027D01*
Y82905D01*
X66959D01*
Y82769D01*
X66891D01*
Y82565D01*
X66823D01*
Y82497D01*
X66755D01*
Y82429D01*
X66687D01*
Y82362D01*
X66552D01*
Y82429D01*
X66484D01*
Y82497D01*
X66416D01*
Y82633D01*
X66348D01*
Y82701D01*
X66212D01*
Y82769D01*
X66008D01*
Y82701D01*
X65873D01*
Y82633D01*
X65805D01*
Y82565D01*
X65737D01*
Y82497D01*
X65669D01*
Y82362D01*
X65601D01*
Y82226D01*
X65533D01*
Y82022D01*
X65465D01*
Y81683D01*
X65533D01*
Y81411D01*
X65601D01*
Y81275D01*
X65669D01*
Y81072D01*
X65737D01*
Y81004D01*
X65805D01*
Y80868D01*
X65873D01*
Y80800D01*
X65940D01*
Y80732D01*
X66008D01*
Y80664D01*
X66076D01*
Y80596D01*
X66144D01*
Y80528D01*
X66212D01*
Y80460D01*
X66348D01*
Y80392D01*
X66416D01*
Y80325D01*
X66552D01*
Y80257D01*
X66823D01*
Y80189D01*
X66959D01*
Y80257D01*
X67163D01*
Y80325D01*
X67230D01*
Y80392D01*
X67298D01*
Y80596D01*
X67366D01*
Y80936D01*
X67298D01*
Y81072D01*
X67230D01*
Y81139D01*
X66959D01*
Y81207D01*
X66823D01*
Y81275D01*
X66755D01*
Y81751D01*
X66823D01*
Y81886D01*
X66891D01*
Y81954D01*
X66959D01*
Y82090D01*
X67027D01*
Y82158D01*
X67095D01*
Y82226D01*
X67163D01*
Y82294D01*
X67230D01*
Y82362D01*
X67502D01*
Y82294D01*
X67570D01*
Y82158D01*
X67638D01*
Y82090D01*
X67706D01*
Y81954D01*
X67774D01*
Y81818D01*
X67842D01*
Y81683D01*
X67910D01*
Y81547D01*
X67977D01*
Y81275D01*
X68045D01*
Y80325D01*
X67977D01*
Y80121D01*
X67910D01*
Y79985D01*
X67842D01*
Y79917D01*
X67774D01*
Y79781D01*
X67706D01*
Y79713D01*
X67638D01*
Y79646D01*
X67570D01*
Y79578D01*
X67434D01*
Y79510D01*
X67230D01*
Y79442D01*
X66823D01*
Y79510D01*
X66552D01*
Y79578D01*
X66348D01*
Y79646D01*
X66212D01*
Y79713D01*
X66076D01*
Y79781D01*
X66008D01*
Y79849D01*
X65940D01*
Y79917D01*
X65805D01*
Y79985D01*
X65737D01*
Y80053D01*
X65669D01*
Y80121D01*
X65601D01*
Y80257D01*
X65533D01*
Y80325D01*
X65465D01*
Y80392D01*
X65397D01*
Y80460D01*
X65329D01*
Y80596D01*
X65261D01*
Y80664D01*
X65193D01*
Y80800D01*
X65126D01*
Y80936D01*
X65058D01*
Y81139D01*
X64990D01*
Y81275D01*
X64922D01*
Y81547D01*
X64854D01*
Y82158D01*
X64922D01*
Y82429D01*
X64990D01*
Y82565D01*
X65058D01*
Y82769D01*
X65126D01*
Y82837D01*
X65193D01*
Y82905D01*
X65261D01*
Y82973D01*
X65329D01*
Y83041D01*
X65397D01*
Y83109D01*
X65465D01*
Y83176D01*
X65601D01*
Y83244D01*
X65737D01*
Y83312D01*
X65940D01*
Y83380D01*
X66552D01*
Y83448D01*
X66484D01*
Y83516D01*
X66348D01*
Y83584D01*
X66144D01*
Y83652D01*
X65873D01*
Y83720D01*
X65737D01*
Y83788D01*
X65669D01*
Y83855D01*
X65397D01*
Y83923D01*
X65058D01*
Y83991D01*
X64922D01*
Y84059D01*
X64786D01*
Y84127D01*
X64718D01*
Y84195D01*
X64582D01*
Y84263D01*
X64447D01*
Y84331D01*
X64243D01*
Y84399D01*
X64039D01*
Y84467D01*
X63971D01*
Y84535D01*
X63768D01*
Y84602D01*
X63700D01*
Y84670D01*
X63496D01*
Y84738D01*
X63360D01*
Y84806D01*
X63089D01*
Y84874D01*
X62953D01*
Y84942D01*
X62885D01*
Y85010D01*
X62749D01*
Y85078D01*
X62613D01*
Y85146D01*
X62477D01*
Y85214D01*
X62410D01*
Y85281D01*
D02*
G37*
G36*
X57928Y78220D02*
X57860D01*
Y77744D01*
X57928D01*
Y77609D01*
X57996D01*
Y77473D01*
X58064D01*
Y77405D01*
X58132D01*
Y77269D01*
X58200D01*
Y77337D01*
X58268D01*
Y77405D01*
X58336D01*
Y77541D01*
X58403D01*
Y77609D01*
Y77880D01*
X58336D01*
Y77948D01*
X58268D01*
Y78016D01*
X58132D01*
Y78084D01*
X57996D01*
Y78152D01*
X57928D01*
Y78220D01*
D02*
G37*
G36*
X57724Y77880D02*
X57385D01*
Y77812D01*
X57317D01*
Y77405D01*
X57385D01*
Y77337D01*
X57589D01*
Y77269D01*
X57860D01*
Y77201D01*
X57928D01*
Y77269D01*
X57996D01*
Y77337D01*
X57928D01*
Y77473D01*
X57860D01*
Y77609D01*
X57792D01*
Y77676D01*
Y77744D01*
X57724D01*
Y77880D01*
D02*
G37*
G36*
X56638Y77676D02*
X56502D01*
Y77609D01*
X56434D01*
Y77541D01*
Y77473D01*
X56502D01*
Y77405D01*
X56570D01*
Y77269D01*
X56638D01*
Y77201D01*
X56706D01*
Y77133D01*
X56842D01*
Y77065D01*
X56910D01*
Y76997D01*
X56977D01*
Y76929D01*
X57181D01*
Y77269D01*
X57113D01*
Y77337D01*
X56977D01*
Y77405D01*
X56842D01*
Y77473D01*
X56774D01*
Y77541D01*
X56706D01*
Y77609D01*
X56638D01*
Y77676D01*
D02*
G37*
G36*
X58607Y77744D02*
X58539D01*
Y77405D01*
X58471D01*
Y77269D01*
X58403D01*
Y77201D01*
X58336D01*
Y77133D01*
X58268D01*
Y76929D01*
X58336D01*
Y76794D01*
X58403D01*
Y76726D01*
X58471D01*
Y76658D01*
X58539D01*
Y76726D01*
X58607D01*
Y76794D01*
X58675D01*
Y76862D01*
X58743D01*
Y76997D01*
X58811D01*
Y77133D01*
X58947D01*
Y77337D01*
X59014D01*
Y77473D01*
X58947D01*
Y77541D01*
X58811D01*
Y77609D01*
X58743D01*
Y77676D01*
X58607D01*
Y77744D01*
D02*
G37*
G36*
X57385Y77201D02*
X57317D01*
Y76794D01*
X57453D01*
Y76726D01*
X57589D01*
Y76658D01*
X57928D01*
Y76590D01*
X58268D01*
Y76794D01*
X58200D01*
Y76862D01*
X58132D01*
Y77065D01*
X57589D01*
Y77133D01*
X57385D01*
Y77201D01*
D02*
G37*
G36*
X64311Y76997D02*
X64039D01*
Y76929D01*
X63700D01*
Y76862D01*
X63632D01*
Y76794D01*
X63700D01*
Y76726D01*
X63768D01*
Y76658D01*
X63903D01*
Y76590D01*
X63971D01*
Y76522D01*
X64039D01*
Y76590D01*
X64107D01*
Y76726D01*
X64175D01*
Y76794D01*
X64243D01*
Y76862D01*
X64311D01*
Y76997D01*
D02*
G37*
G36*
X61187Y84874D02*
X61051D01*
Y84806D01*
X60916D01*
Y84738D01*
X60780D01*
Y84670D01*
X60712D01*
Y84602D01*
X60576D01*
Y84535D01*
X60440D01*
Y84467D01*
X60373D01*
Y84399D01*
X60101D01*
Y84331D01*
X59897D01*
Y84263D01*
X59761D01*
Y84195D01*
X59558D01*
Y84127D01*
X59490D01*
Y84059D01*
X59558D01*
Y83991D01*
X59761D01*
Y83923D01*
X59829D01*
Y83855D01*
X59965D01*
Y83788D01*
X60101D01*
Y83720D01*
X60169D01*
Y83652D01*
X60237D01*
Y83584D01*
X60373D01*
Y83516D01*
X60440D01*
Y83448D01*
X60508D01*
Y83380D01*
X60576D01*
Y83312D01*
X60712D01*
Y83244D01*
X60848D01*
Y83176D01*
X60916D01*
Y83109D01*
X60984D01*
Y83041D01*
X61119D01*
Y82973D01*
X61187D01*
Y82905D01*
X61323D01*
Y82837D01*
X61391D01*
Y82769D01*
X61459D01*
Y82701D01*
X61527D01*
Y82633D01*
Y82565D01*
X61663D01*
Y82429D01*
X61730D01*
Y82362D01*
X61798D01*
Y82226D01*
X61866D01*
Y82158D01*
X61934D01*
Y82022D01*
X62002D01*
Y81954D01*
X62070D01*
Y81751D01*
X62138D01*
Y81615D01*
X62206D01*
Y81411D01*
X62342D01*
Y81343D01*
X62953D01*
Y81275D01*
X63156D01*
Y81207D01*
X63292D01*
Y81139D01*
X63360D01*
Y81072D01*
X63496D01*
Y81004D01*
X63564D01*
Y80868D01*
X63632D01*
Y80528D01*
X63564D01*
Y80392D01*
X63496D01*
Y80325D01*
X63428D01*
Y80257D01*
X63292D01*
Y80189D01*
X63224D01*
Y80121D01*
X63156D01*
Y80053D01*
X63021D01*
Y79985D01*
X62885D01*
Y79917D01*
X62749D01*
Y79849D01*
X62613D01*
Y79306D01*
X62681D01*
Y78763D01*
X62613D01*
Y78084D01*
X62545D01*
Y77948D01*
X62477D01*
Y77676D01*
X62410D01*
Y77337D01*
X62342D01*
Y77201D01*
X62274D01*
Y77065D01*
X62206D01*
Y76929D01*
X62138D01*
Y76794D01*
X62070D01*
Y76658D01*
X62002D01*
Y76454D01*
X62138D01*
Y76522D01*
X62274D01*
Y76590D01*
X62410D01*
Y76658D01*
X62545D01*
Y76726D01*
X62681D01*
Y76794D01*
X62885D01*
Y76862D01*
X63089D01*
Y76929D01*
X63224D01*
Y76997D01*
X63428D01*
Y77065D01*
X63496D01*
Y77133D01*
X63564D01*
Y77201D01*
X63700D01*
Y77269D01*
X63768D01*
Y77337D01*
X63836D01*
Y77405D01*
X63903D01*
Y77609D01*
X63971D01*
Y77744D01*
X64039D01*
Y77948D01*
X64107D01*
Y78220D01*
X64175D01*
Y78559D01*
X64243D01*
Y78763D01*
X64311D01*
Y79374D01*
X64379D01*
Y80528D01*
X64311D01*
Y80936D01*
X64243D01*
Y81547D01*
X64175D01*
Y81751D01*
X64107D01*
Y81954D01*
X64039D01*
Y82158D01*
X63971D01*
Y82294D01*
X63903D01*
Y82429D01*
X63836D01*
Y82633D01*
X63768D01*
Y82701D01*
X63700D01*
Y82837D01*
X63564D01*
Y82973D01*
X63496D01*
Y83041D01*
X63428D01*
Y83176D01*
X63360D01*
Y83244D01*
X63292D01*
Y83380D01*
X63224D01*
Y83448D01*
X63156D01*
Y83516D01*
X63089D01*
Y83584D01*
X63021D01*
Y83652D01*
X62885D01*
Y83720D01*
X62817D01*
Y83788D01*
X62749D01*
Y83855D01*
X62681D01*
Y83923D01*
X62545D01*
Y83991D01*
X62477D01*
Y84059D01*
X62410D01*
Y84127D01*
X62274D01*
Y84195D01*
X62206D01*
Y84331D01*
X62070D01*
Y84399D01*
X62002D01*
Y84467D01*
X61866D01*
Y84535D01*
X61730D01*
Y84602D01*
X61595D01*
Y84670D01*
X61459D01*
Y84738D01*
X61323D01*
Y84806D01*
X61187D01*
Y84874D01*
D02*
G37*
G36*
X62342Y79646D02*
X62206D01*
Y79578D01*
X62138D01*
Y79510D01*
X62002D01*
Y79442D01*
X61934D01*
Y79374D01*
X61866D01*
Y79306D01*
X61798D01*
Y79238D01*
X61663D01*
Y79170D01*
X61527D01*
Y79102D01*
X61391D01*
Y79035D01*
X61051D01*
Y78967D01*
X60712D01*
Y78899D01*
X60508D01*
Y78831D01*
X60305D01*
Y78288D01*
X60237D01*
Y77744D01*
X60169D01*
Y77541D01*
X60101D01*
Y77337D01*
X60033D01*
Y76997D01*
X59965D01*
Y76862D01*
X59897D01*
Y76794D01*
X59829D01*
Y76658D01*
X59761D01*
Y76590D01*
X59693D01*
Y76454D01*
X59626D01*
Y76386D01*
X59558D01*
Y76318D01*
X59422D01*
Y76250D01*
X59354D01*
Y76183D01*
X59286D01*
Y76115D01*
X59218D01*
Y75911D01*
X59150D01*
Y75843D01*
X59965D01*
Y75911D01*
X60169D01*
Y75979D01*
X60508D01*
Y76047D01*
X60848D01*
Y76115D01*
X61323D01*
Y76183D01*
X61459D01*
Y76318D01*
X61527D01*
Y76454D01*
X61595D01*
Y76522D01*
X61663D01*
Y76658D01*
X61730D01*
Y76794D01*
X61798D01*
Y76929D01*
X61866D01*
Y77133D01*
X61934D01*
Y77337D01*
X62002D01*
Y77473D01*
X62070D01*
Y77744D01*
X62138D01*
Y77948D01*
X62206D01*
Y78084D01*
X62274D01*
Y78288D01*
X62342D01*
Y78831D01*
X62410D01*
Y79306D01*
X62342D01*
Y79646D01*
D02*
G37*
G36*
X66348Y75300D02*
X66008D01*
Y75232D01*
X65940D01*
Y75164D01*
X65873D01*
Y75028D01*
X65805D01*
Y74892D01*
X65737D01*
Y74757D01*
X65805D01*
Y74553D01*
X65873D01*
Y74485D01*
X65940D01*
Y74417D01*
X66008D01*
Y74349D01*
X66076D01*
Y74281D01*
X66144D01*
Y74213D01*
X66484D01*
Y74281D01*
X66552D01*
Y74349D01*
X66619D01*
Y74485D01*
X66687D01*
Y74621D01*
X66755D01*
Y74892D01*
X66687D01*
Y75096D01*
X66552D01*
Y75164D01*
X66416D01*
Y75232D01*
X66348D01*
Y75300D01*
D02*
G37*
G36*
X74903Y79781D02*
X74496D01*
Y79713D01*
X74428D01*
Y79578D01*
X74360D01*
Y79510D01*
X74292D01*
Y79306D01*
X74224D01*
Y77812D01*
X74156D01*
Y77609D01*
Y77541D01*
Y76726D01*
X74089D01*
Y76386D01*
X74021D01*
Y76183D01*
X73953D01*
Y75572D01*
X73885D01*
Y75300D01*
X73817D01*
Y74960D01*
X73749D01*
Y74757D01*
X73681D01*
Y74621D01*
X73613D01*
Y74485D01*
X73545D01*
Y74349D01*
X73477D01*
Y74213D01*
X73410D01*
Y74146D01*
X73342D01*
Y73874D01*
X73681D01*
Y73942D01*
X73817D01*
Y74010D01*
X73885D01*
Y74078D01*
X74021D01*
Y74146D01*
X74292D01*
Y74213D01*
X74428D01*
Y74281D01*
X74564D01*
Y74349D01*
X74700D01*
Y74417D01*
X74768D01*
Y74485D01*
X74903D01*
Y74553D01*
X75039D01*
Y74621D01*
X75311D01*
Y74689D01*
X75447D01*
Y74757D01*
X75515D01*
Y74825D01*
X75650D01*
Y74892D01*
X75786D01*
Y74960D01*
X75922D01*
Y75028D01*
X75854D01*
Y75096D01*
X75786D01*
Y75232D01*
X75718D01*
Y75368D01*
X75650D01*
Y75436D01*
X75582D01*
Y75707D01*
X75515D01*
Y77473D01*
X75582D01*
Y78220D01*
X75650D01*
Y78831D01*
X75718D01*
Y79713D01*
X75515D01*
Y79646D01*
X75243D01*
Y79713D01*
X74903D01*
Y79781D01*
D02*
G37*
G36*
X65126Y72923D02*
X65058D01*
Y72855D01*
X65126D01*
Y72923D01*
D02*
G37*
%LPD*%
G36*
X62681Y93158D02*
X62477D01*
Y93226D01*
X62410D01*
Y93294D01*
X62477D01*
Y93362D01*
X62681D01*
Y93158D01*
D02*
G37*
G36*
X63836Y92479D02*
X63768D01*
Y92411D01*
Y92343D01*
X63632D01*
Y92275D01*
X63564D01*
Y92207D01*
X63428D01*
Y92139D01*
X63360D01*
Y92071D01*
X63224D01*
Y92004D01*
X63089D01*
Y91936D01*
X62953D01*
Y91868D01*
X62885D01*
Y91800D01*
X62817D01*
Y91732D01*
X62545D01*
Y91664D01*
X62206D01*
Y91732D01*
X62070D01*
Y91800D01*
X62138D01*
Y91868D01*
X62206D01*
Y91936D01*
X62274D01*
Y92004D01*
X62410D01*
Y92071D01*
X62477D01*
Y92139D01*
X62545D01*
Y92207D01*
X62885D01*
Y92275D01*
X63021D01*
Y92343D01*
X63224D01*
Y92411D01*
X63360D01*
Y92479D01*
X63496D01*
Y92547D01*
X63564D01*
Y92615D01*
X63700D01*
Y92683D01*
X63836D01*
Y92479D01*
D02*
G37*
G36*
X63903Y91528D02*
X63971D01*
Y91460D01*
X64039D01*
Y91392D01*
X63971D01*
Y91325D01*
X63768D01*
Y91392D01*
X63700D01*
Y91460D01*
X63768D01*
Y91528D01*
X63836D01*
Y91596D01*
X63903D01*
Y91528D01*
D02*
G37*
G36*
X61255Y91257D02*
X61187D01*
Y91189D01*
X61119D01*
Y91121D01*
X61051D01*
Y91053D01*
X60984D01*
Y91189D01*
X61051D01*
Y91257D01*
X61119D01*
Y91325D01*
X61255D01*
Y91257D01*
D02*
G37*
G36*
X59897Y91460D02*
X60033D01*
Y91392D01*
X60101D01*
Y90985D01*
X60033D01*
Y90917D01*
X59965D01*
Y90849D01*
X59897D01*
Y90781D01*
X59829D01*
Y90714D01*
X59761D01*
Y90646D01*
X59626D01*
Y90578D01*
X59422D01*
Y90646D01*
X59286D01*
Y90985D01*
X59354D01*
Y91053D01*
X59422D01*
Y91189D01*
X59490D01*
Y91257D01*
X59558D01*
Y91325D01*
X59693D01*
Y91460D01*
X59829D01*
Y91528D01*
X59897D01*
Y91460D01*
D02*
G37*
G36*
X62070Y90985D02*
X62206D01*
Y90578D01*
X62138D01*
Y90442D01*
X62070D01*
Y90374D01*
X62002D01*
Y90306D01*
X61934D01*
Y90238D01*
X61798D01*
Y90170D01*
X61459D01*
Y90306D01*
X61391D01*
Y90442D01*
X61459D01*
Y90510D01*
Y90646D01*
X61527D01*
Y90781D01*
X61595D01*
Y90849D01*
X61663D01*
Y90917D01*
X61730D01*
Y90985D01*
X61798D01*
Y91053D01*
X62070D01*
Y90985D01*
D02*
G37*
G36*
X66416Y89763D02*
X66348D01*
Y89831D01*
Y89899D01*
X66416D01*
Y89763D01*
D02*
G37*
G36*
X64243Y89899D02*
X64311D01*
Y89763D01*
X64243D01*
Y89695D01*
X64039D01*
Y89763D01*
X63971D01*
Y89967D01*
X64039D01*
Y90035D01*
X64243D01*
Y89899D01*
D02*
G37*
G36*
X65669Y89559D02*
X65737D01*
Y89491D01*
X65669D01*
Y89423D01*
X65533D01*
Y89627D01*
X65669D01*
Y89559D01*
D02*
G37*
G36*
X74768Y90238D02*
X74700D01*
Y89831D01*
X74768D01*
Y89763D01*
X75039D01*
Y89831D01*
X75107D01*
Y89899D01*
X75175D01*
Y89967D01*
X75243D01*
Y90035D01*
X75311D01*
Y90102D01*
X75447D01*
Y90035D01*
X75582D01*
Y89967D01*
X75650D01*
Y89899D01*
X75718D01*
Y89831D01*
X75650D01*
Y89695D01*
X75582D01*
Y89627D01*
X75515D01*
Y89559D01*
X75379D01*
Y89491D01*
X75243D01*
Y89423D01*
X75107D01*
Y89288D01*
X75039D01*
Y89220D01*
X74903D01*
Y89152D01*
X74700D01*
Y89084D01*
X74632D01*
Y89152D01*
X74564D01*
Y89220D01*
X74360D01*
Y89152D01*
X74224D01*
Y89355D01*
X74292D01*
Y89423D01*
X74224D01*
Y89695D01*
X74292D01*
Y90035D01*
X74360D01*
Y90170D01*
X74428D01*
Y90306D01*
X74496D01*
Y90374D01*
X74564D01*
Y90442D01*
X74700D01*
Y90510D01*
X74768D01*
Y90238D01*
D02*
G37*
G36*
X56842Y89695D02*
X56706D01*
Y89763D01*
X56842D01*
Y89695D01*
D02*
G37*
G36*
X67842Y88812D02*
X67774D01*
Y88880D01*
X67842D01*
Y88812D01*
D02*
G37*
G36*
X66484Y87454D02*
X66348D01*
Y87522D01*
X66484D01*
Y87454D01*
D02*
G37*
G36*
X71712Y87997D02*
X71644D01*
Y88065D01*
X71712D01*
Y87997D01*
D02*
G37*
G36*
X72187Y87862D02*
X72052D01*
Y87929D01*
X71984D01*
Y87997D01*
Y88065D01*
X72187D01*
Y87862D01*
D02*
G37*
G36*
X70761Y86911D02*
Y86843D01*
X70626D01*
Y86979D01*
X70761D01*
Y86911D01*
D02*
G37*
G36*
X70218Y86979D02*
X70354D01*
Y86911D01*
X70490D01*
Y86707D01*
X70558D01*
Y86639D01*
X70626D01*
Y86300D01*
X70558D01*
Y86232D01*
X70490D01*
Y86164D01*
X70354D01*
Y86096D01*
X70286D01*
Y86028D01*
X70218D01*
Y86096D01*
X70150D01*
Y86504D01*
X70082D01*
Y86843D01*
X70015D01*
Y87115D01*
X70218D01*
Y86979D01*
D02*
G37*
G36*
X60440Y87590D02*
Y87522D01*
X60305D01*
Y87590D01*
X60373D01*
Y87658D01*
X60440D01*
Y87590D01*
D02*
G37*
G36*
X79589Y86639D02*
X79453D01*
Y86707D01*
X79521D01*
Y86775D01*
X79589D01*
Y86639D01*
D02*
G37*
G36*
X73681Y86843D02*
X73545D01*
Y86775D01*
X73477D01*
Y86911D01*
X73613D01*
Y86979D01*
X73681D01*
Y86843D01*
D02*
G37*
G36*
X76533Y86639D02*
X76465D01*
Y86707D01*
X76533D01*
Y86639D01*
D02*
G37*
G36*
X74632D02*
X74564D01*
Y86707D01*
X74632D01*
Y86639D01*
D02*
G37*
G36*
X74971Y86504D02*
X74903D01*
Y86572D01*
X74971D01*
Y86504D01*
D02*
G37*
G36*
X74428Y86436D02*
X74292D01*
Y86504D01*
Y86572D01*
X74428D01*
Y86436D01*
D02*
G37*
G36*
X73070Y86368D02*
X73002D01*
Y86300D01*
X72866D01*
Y86504D01*
X73070D01*
Y86368D01*
D02*
G37*
G36*
X75039Y86164D02*
X74903D01*
Y86232D01*
X75039D01*
Y86164D01*
D02*
G37*
G36*
X72595D02*
X72527D01*
Y86096D01*
X72459D01*
Y86232D01*
X72595D01*
Y86164D01*
D02*
G37*
G36*
X76669Y85960D02*
X76533D01*
Y86028D01*
X76601D01*
Y86096D01*
X76669D01*
Y85960D01*
D02*
G37*
G36*
X73885Y85892D02*
X73817D01*
Y85960D01*
X73885D01*
Y85892D01*
D02*
G37*
G36*
X74156Y85960D02*
X74224D01*
Y85892D01*
Y85757D01*
X74156D01*
Y85960D01*
X74089D01*
Y86028D01*
Y86096D01*
X74156D01*
Y85960D01*
D02*
G37*
G36*
X73613Y85689D02*
X73477D01*
Y85757D01*
X73613D01*
Y85689D01*
D02*
G37*
G36*
X72663Y85757D02*
Y85689D01*
X72595D01*
Y85825D01*
X72663D01*
Y85757D01*
D02*
G37*
G36*
X72255Y85553D02*
X72119D01*
Y85621D01*
X71848D01*
Y85689D01*
X71984D01*
Y85757D01*
X72052D01*
Y85689D01*
X72119D01*
Y85757D01*
X72255D01*
Y85553D01*
D02*
G37*
G36*
X73206Y85621D02*
X73070D01*
Y85689D01*
X73206D01*
Y85621D01*
D02*
G37*
G36*
X77619D02*
X77755D01*
Y85553D01*
X77552D01*
Y85621D01*
X77484D01*
Y85689D01*
X77619D01*
Y85621D01*
D02*
G37*
G36*
X73953Y85417D02*
X73885D01*
Y85485D01*
X73817D01*
Y85553D01*
Y85621D01*
X73953D01*
Y85417D01*
D02*
G37*
G36*
X78027Y85349D02*
Y85281D01*
X77959D01*
Y85417D01*
X78027D01*
Y85349D01*
D02*
G37*
G36*
X78910Y85214D02*
X78842D01*
Y85281D01*
X78910D01*
Y85214D01*
D02*
G37*
G36*
X78298Y84806D02*
X78095D01*
Y84942D01*
X78231D01*
Y85010D01*
X78298D01*
Y84806D01*
D02*
G37*
G36*
X77959Y84535D02*
X77891D01*
Y84602D01*
X77959D01*
Y84535D01*
D02*
G37*
G36*
X77619Y84331D02*
X77416D01*
Y84399D01*
X77619D01*
Y84331D01*
D02*
G37*
G36*
X76397Y83991D02*
X76329D01*
Y84059D01*
X76397D01*
Y83991D01*
D02*
G37*
G36*
X76329Y83855D02*
X76397D01*
Y83788D01*
X76193D01*
Y83855D01*
X76261D01*
Y83923D01*
X76329D01*
Y83855D01*
D02*
G37*
G36*
X76940Y83720D02*
X76737D01*
Y83855D01*
X76940D01*
Y83720D01*
D02*
G37*
G36*
X76533D02*
X76465D01*
Y83788D01*
X76533D01*
Y83720D01*
D02*
G37*
G36*
X69064Y85892D02*
X68860D01*
Y86096D01*
X69064D01*
Y85892D01*
D02*
G37*
G36*
X81422Y86300D02*
X81558D01*
Y86232D01*
X81490D01*
Y86164D01*
X81422D01*
Y86096D01*
X81354D01*
Y86028D01*
X81218D01*
Y85960D01*
X81082D01*
Y86028D01*
X81150D01*
Y86096D01*
X81082D01*
Y86164D01*
X81150D01*
Y86096D01*
X81286D01*
Y86232D01*
X81422D01*
Y86300D01*
X81354D01*
Y86368D01*
X81422D01*
Y86300D01*
D02*
G37*
G36*
X81761Y86028D02*
X81626D01*
Y86096D01*
X81694D01*
Y86164D01*
X81761D01*
Y86028D01*
D02*
G37*
G36*
X82101D02*
X82033D01*
Y85960D01*
X81965D01*
Y86028D01*
Y86096D01*
X82101D01*
Y86028D01*
D02*
G37*
G36*
X81626Y85960D02*
X81490D01*
Y86028D01*
X81626D01*
Y85960D01*
D02*
G37*
G36*
X82169Y85892D02*
X82101D01*
Y85960D01*
X82169D01*
Y85892D01*
D02*
G37*
G36*
X81490D02*
X81422D01*
Y85960D01*
X81490D01*
Y85892D01*
D02*
G37*
G36*
X81082D02*
X81015D01*
Y85960D01*
X81082D01*
Y85892D01*
D02*
G37*
G36*
X81422Y85825D02*
X81354D01*
Y85892D01*
X81422D01*
Y85825D01*
D02*
G37*
G36*
X82033D02*
X81965D01*
Y85757D01*
X81897D01*
Y85825D01*
Y85892D01*
X82033D01*
Y85825D01*
D02*
G37*
G36*
X82508Y85689D02*
X82440D01*
Y85757D01*
Y85825D01*
X82508D01*
Y85689D01*
D02*
G37*
G36*
X81761Y85825D02*
X81829D01*
Y85689D01*
X81761D01*
Y85621D01*
X81422D01*
Y85689D01*
X81626D01*
Y85757D01*
X81694D01*
Y85825D01*
X81626D01*
Y85892D01*
X81761D01*
Y85825D01*
D02*
G37*
G36*
X82372Y85553D02*
X82305D01*
Y85621D01*
X82372D01*
Y85553D01*
D02*
G37*
G36*
X82237D02*
X82169D01*
Y85621D01*
X82237D01*
Y85553D01*
D02*
G37*
G36*
X81965D02*
X81897D01*
Y85621D01*
X81965D01*
Y85553D01*
D02*
G37*
G36*
X81897Y85485D02*
X81761D01*
Y85553D01*
X81897D01*
Y85485D01*
D02*
G37*
G36*
X65533Y85078D02*
X65465D01*
Y85010D01*
X65397D01*
Y85078D01*
Y85146D01*
X65533D01*
Y85078D01*
D02*
G37*
G36*
X67434Y84670D02*
Y84602D01*
X67230D01*
Y84670D01*
X67298D01*
Y84738D01*
X67434D01*
Y84670D01*
D02*
G37*
G36*
X56230Y88405D02*
X56298D01*
Y88269D01*
X56163D01*
Y88337D01*
Y88473D01*
X56230D01*
Y88405D01*
D02*
G37*
G36*
X56570Y88201D02*
X56502D01*
Y88269D01*
X56570D01*
Y88201D01*
D02*
G37*
G36*
X56163Y87997D02*
X56095D01*
Y88065D01*
X56163D01*
Y87997D01*
D02*
G37*
G36*
X56027Y87522D02*
X56095D01*
Y87386D01*
Y87318D01*
X56163D01*
Y87115D01*
X56095D01*
Y86979D01*
X56027D01*
Y87251D01*
X55959D01*
Y87590D01*
X56027D01*
Y87522D01*
D02*
G37*
G36*
X56095Y86572D02*
X56163D01*
Y86436D01*
X56095D01*
Y86504D01*
X56027D01*
Y86572D01*
Y86639D01*
X56095D01*
Y86572D01*
D02*
G37*
G36*
X56298Y86028D02*
X56163D01*
Y86096D01*
X56298D01*
Y86028D01*
D02*
G37*
G36*
X57181Y85078D02*
X57113D01*
Y85146D01*
X57181D01*
Y85078D01*
D02*
G37*
G36*
X55823Y85010D02*
X55755D01*
Y85078D01*
X55823D01*
Y85010D01*
D02*
G37*
G36*
Y84602D02*
X55891D01*
Y84535D01*
X55823D01*
Y84467D01*
X55755D01*
Y84806D01*
X55823D01*
Y84602D01*
D02*
G37*
G36*
X55891Y83855D02*
X55823D01*
Y83991D01*
X55891D01*
Y83855D01*
D02*
G37*
G36*
X55687Y83788D02*
X55416D01*
Y83855D01*
X55687D01*
Y83788D01*
D02*
G37*
G36*
X75786Y81751D02*
X75718D01*
Y81818D01*
X75786D01*
Y81751D01*
D02*
G37*
G36*
X58811Y83720D02*
X58879D01*
Y83652D01*
X58675D01*
Y83720D01*
X58743D01*
Y83788D01*
X58811D01*
Y83720D01*
D02*
G37*
G36*
X58268Y83652D02*
X58064D01*
Y83720D01*
X58132D01*
Y83788D01*
X58268D01*
Y83652D01*
D02*
G37*
G36*
X59490Y83516D02*
X59422D01*
Y83584D01*
X59490D01*
Y83516D01*
D02*
G37*
G36*
X57317Y83448D02*
X57249D01*
Y83516D01*
X57317D01*
Y83448D01*
D02*
G37*
G36*
X57792Y83380D02*
X57724D01*
Y83448D01*
Y83516D01*
X57792D01*
Y83380D01*
D02*
G37*
G36*
X59286Y83312D02*
X59150D01*
Y83380D01*
X59286D01*
Y83312D01*
D02*
G37*
G36*
X59965D02*
X59897D01*
Y83244D01*
X59829D01*
Y83312D01*
Y83380D01*
X59965D01*
Y83312D01*
D02*
G37*
G36*
X60101Y83041D02*
X60237D01*
Y82973D01*
X60305D01*
Y82905D01*
X60508D01*
Y82837D01*
X60576D01*
Y82769D01*
X60305D01*
Y82837D01*
X60101D01*
Y82905D01*
X60033D01*
Y83109D01*
X60101D01*
Y83041D01*
D02*
G37*
G36*
X59558Y82158D02*
X59422D01*
Y82226D01*
Y82294D01*
X59354D01*
Y82362D01*
X59558D01*
Y82158D01*
D02*
G37*
G36*
X61527Y81818D02*
X61459D01*
Y81886D01*
X61527D01*
Y81818D01*
D02*
G37*
G36*
X61255D02*
X60780D01*
Y81886D01*
X61255D01*
Y81818D01*
D02*
G37*
G36*
X59693D02*
X59626D01*
Y81886D01*
X59558D01*
Y82022D01*
X59693D01*
Y81818D01*
D02*
G37*
G36*
X59965Y81615D02*
X60101D01*
Y81547D01*
X59897D01*
Y81479D01*
X59761D01*
Y81615D01*
X59897D01*
Y81683D01*
X59965D01*
Y81615D01*
D02*
G37*
G36*
X57045Y81954D02*
X56977D01*
Y82022D01*
X57045D01*
Y81954D01*
D02*
G37*
G36*
X57453Y81818D02*
X57385D01*
Y81751D01*
X57317D01*
Y81818D01*
Y81886D01*
Y81954D01*
X57453D01*
Y81818D01*
D02*
G37*
G36*
X56366Y82090D02*
X56230D01*
Y82022D01*
X56163D01*
Y82158D01*
X56366D01*
Y82090D01*
D02*
G37*
G36*
X56502Y81818D02*
X56434D01*
Y81886D01*
X56502D01*
Y81818D01*
D02*
G37*
G36*
X56434Y81751D02*
X56366D01*
Y81818D01*
X56434D01*
Y81751D01*
D02*
G37*
G36*
X68860Y82022D02*
X68792D01*
Y82090D01*
X68860D01*
Y82022D01*
D02*
G37*
G36*
Y81683D02*
X68928D01*
Y81615D01*
X68792D01*
Y81818D01*
X68860D01*
Y81683D01*
D02*
G37*
G36*
X57860Y81479D02*
X57724D01*
Y81547D01*
Y81615D01*
X57860D01*
Y81479D01*
D02*
G37*
G36*
X57996Y81411D02*
X58064D01*
Y81343D01*
X57928D01*
Y81479D01*
X57996D01*
Y81411D01*
D02*
G37*
G36*
X56298Y82905D02*
X56163D01*
Y82973D01*
X56298D01*
Y82905D01*
D02*
G37*
G36*
X57521Y82429D02*
X57453D01*
Y82497D01*
X57521D01*
Y82429D01*
D02*
G37*
G36*
X57792Y82294D02*
X57724D01*
Y82362D01*
X57792D01*
Y82294D01*
D02*
G37*
G36*
X55755Y82362D02*
Y82294D01*
X55687D01*
Y82429D01*
X55755D01*
Y82362D01*
D02*
G37*
G36*
X58539Y82090D02*
X58471D01*
Y82158D01*
X58539D01*
Y82090D01*
D02*
G37*
G36*
X55484D02*
X55348D01*
Y82226D01*
X55416D01*
Y82294D01*
X55484D01*
Y82090D01*
D02*
G37*
G36*
X58336Y81954D02*
X58268D01*
Y82022D01*
X58336D01*
Y81954D01*
D02*
G37*
G36*
X55484Y81886D02*
Y81818D01*
X55416D01*
Y81954D01*
X55484D01*
Y81886D01*
D02*
G37*
G36*
X58471Y81683D02*
X58403D01*
Y81751D01*
X58471D01*
Y81683D01*
D02*
G37*
G36*
X58811Y81139D02*
X58743D01*
Y81207D01*
X58811D01*
Y81139D01*
D02*
G37*
G36*
X55144Y81343D02*
X55212D01*
Y81207D01*
X55144D01*
Y80868D01*
X55076D01*
Y81207D01*
Y81275D01*
Y81411D01*
X55144D01*
Y81343D01*
D02*
G37*
G36*
Y80392D02*
X55076D01*
Y80460D01*
X55144D01*
Y80392D01*
D02*
G37*
G36*
X55076Y80325D02*
X55008D01*
Y80392D01*
X55076D01*
Y80325D01*
D02*
G37*
G36*
X55687Y80868D02*
X55619D01*
Y81072D01*
X55687D01*
Y80868D01*
D02*
G37*
G36*
X58268Y80800D02*
X58132D01*
Y80868D01*
X58268D01*
Y80800D01*
D02*
G37*
G36*
X56230Y80868D02*
X56163D01*
Y80936D01*
X56230D01*
Y80868D01*
D02*
G37*
G36*
X59829Y78423D02*
X59761D01*
Y78559D01*
X59693D01*
Y78627D01*
X59829D01*
Y78423D01*
D02*
G37*
G36*
X59490Y78016D02*
X59422D01*
Y78084D01*
X59490D01*
Y78016D01*
D02*
G37*
G36*
X59693Y77609D02*
X59626D01*
Y77880D01*
X59693D01*
Y77609D01*
D02*
G37*
G36*
X59422Y77337D02*
X59354D01*
Y77405D01*
X59422D01*
Y77337D01*
D02*
G37*
G36*
X56230Y77201D02*
X56095D01*
Y77269D01*
X56230D01*
Y77201D01*
D02*
G37*
G36*
X59422Y76929D02*
X59354D01*
Y77065D01*
X59422D01*
Y76929D01*
D02*
G37*
G36*
X56502D02*
X56434D01*
Y76997D01*
X56366D01*
Y77065D01*
X56502D01*
Y76929D01*
D02*
G37*
G36*
X59218Y76590D02*
X59082D01*
Y76658D01*
X59150D01*
Y76726D01*
X59218D01*
Y76590D01*
D02*
G37*
G36*
X58539Y76250D02*
X58471D01*
Y76318D01*
X58539D01*
Y76250D01*
D02*
G37*
G36*
X58879Y76183D02*
X58811D01*
Y76250D01*
X58879D01*
Y76183D01*
D02*
G37*
G36*
X58132D02*
X57996D01*
Y76250D01*
X58064D01*
Y76318D01*
X58132D01*
Y76183D01*
D02*
G37*
G36*
X57792D02*
X57589D01*
Y76250D01*
X57521D01*
Y76318D01*
X57792D01*
Y76183D01*
D02*
G37*
G36*
X58879Y77880D02*
X58811D01*
Y77948D01*
X58879D01*
Y77880D01*
D02*
G37*
G36*
X56298D02*
X56230D01*
Y77948D01*
X56163D01*
Y78016D01*
X56298D01*
Y77880D01*
D02*
G37*
G36*
X62274Y85078D02*
X62070D01*
Y85146D01*
X62274D01*
Y85078D01*
D02*
G37*
G36*
X62545Y84806D02*
X62477D01*
Y84738D01*
X62342D01*
Y84806D01*
X62206D01*
Y84874D01*
X62545D01*
Y84806D01*
D02*
G37*
G36*
X62953Y84602D02*
X62885D01*
Y84670D01*
Y84738D01*
X62953D01*
Y84602D01*
D02*
G37*
G36*
X63564Y84263D02*
X63496D01*
Y84331D01*
X63564D01*
Y84263D01*
D02*
G37*
G36*
X62885Y84467D02*
X62953D01*
Y84331D01*
X63021D01*
Y84263D01*
X62885D01*
Y84331D01*
X62817D01*
Y84399D01*
X62749D01*
Y84535D01*
X62885D01*
Y84467D01*
D02*
G37*
G36*
X63903Y84195D02*
X63836D01*
Y84331D01*
X63903D01*
Y84195D01*
D02*
G37*
G36*
X63156Y84127D02*
X63089D01*
Y84195D01*
Y84263D01*
X63156D01*
Y84127D01*
D02*
G37*
G36*
X63496Y83923D02*
X63428D01*
Y83991D01*
X63496D01*
Y83923D01*
D02*
G37*
G36*
X65329Y83720D02*
X65193D01*
Y83788D01*
X65329D01*
Y83720D01*
D02*
G37*
G36*
X63836Y83584D02*
X63768D01*
Y83652D01*
X63700D01*
Y83720D01*
X63768D01*
Y83788D01*
X63836D01*
Y83584D01*
D02*
G37*
G36*
X65669D02*
X65737D01*
Y83516D01*
X65669D01*
Y83448D01*
X65465D01*
Y83584D01*
X65533D01*
Y83652D01*
X65669D01*
Y83584D01*
D02*
G37*
G36*
X65193Y83244D02*
X65126D01*
Y83312D01*
X65193D01*
Y83244D01*
D02*
G37*
G36*
X64175Y83176D02*
X64107D01*
Y83244D01*
X64039D01*
Y83312D01*
X64175D01*
Y83176D01*
D02*
G37*
G36*
X67366Y82769D02*
X67230D01*
Y82837D01*
X67366D01*
Y82769D01*
D02*
G37*
G36*
X67706Y82565D02*
Y82497D01*
X67570D01*
Y82633D01*
X67706D01*
Y82565D01*
D02*
G37*
G36*
X64379D02*
Y82497D01*
X64311D01*
Y82633D01*
X64379D01*
Y82565D01*
D02*
G37*
G36*
X66212Y82294D02*
X66144D01*
Y82362D01*
X66212D01*
Y82294D01*
D02*
G37*
G36*
X66008Y82226D02*
X65940D01*
Y82158D01*
X65873D01*
Y82294D01*
X66008D01*
Y82226D01*
D02*
G37*
G36*
X65873Y82022D02*
X65805D01*
Y82090D01*
Y82158D01*
X65873D01*
Y82022D01*
D02*
G37*
G36*
X66348Y81954D02*
X66212D01*
Y82022D01*
Y82158D01*
X66348D01*
Y81954D01*
D02*
G37*
G36*
X66552Y81275D02*
X66619D01*
Y81207D01*
X66484D01*
Y81343D01*
X66552D01*
Y81275D01*
D02*
G37*
G36*
X70829Y81004D02*
X70965D01*
Y80936D01*
X70761D01*
Y81072D01*
X70829D01*
Y81004D01*
D02*
G37*
G36*
X66212Y80936D02*
X66076D01*
Y81004D01*
X66008D01*
Y81072D01*
X66076D01*
Y81139D01*
X66212D01*
Y80936D01*
D02*
G37*
G36*
X64786D02*
X64718D01*
Y81004D01*
X64786D01*
Y80936D01*
D02*
G37*
G36*
X66484Y81004D02*
X66552D01*
Y80868D01*
X66619D01*
Y80732D01*
X66552D01*
Y80800D01*
X66484D01*
Y80868D01*
X66416D01*
Y81072D01*
X66484D01*
Y81004D01*
D02*
G37*
G36*
X66348Y80664D02*
X66280D01*
Y80732D01*
X66348D01*
Y80664D01*
D02*
G37*
G36*
X70354D02*
X70422D01*
Y80596D01*
X70218D01*
Y80664D01*
X70286D01*
Y80732D01*
X70354D01*
Y80664D01*
D02*
G37*
G36*
X64990Y80596D02*
X64922D01*
Y80732D01*
X64990D01*
Y80596D01*
D02*
G37*
G36*
X71305Y80528D02*
X71237D01*
Y80596D01*
X71169D01*
Y80664D01*
X71305D01*
Y80528D01*
D02*
G37*
G36*
X66959D02*
X66687D01*
Y80596D01*
X66619D01*
Y80664D01*
X66959D01*
Y80528D01*
D02*
G37*
G36*
X64854D02*
X64786D01*
Y80596D01*
X64854D01*
Y80528D01*
D02*
G37*
G36*
X69607Y80257D02*
X69471D01*
Y80325D01*
X69607D01*
Y80257D01*
D02*
G37*
G36*
X70422Y80189D02*
X70218D01*
Y80257D01*
X70422D01*
Y80189D01*
D02*
G37*
G36*
X68317D02*
X68249D01*
Y80325D01*
Y80392D01*
X68317D01*
Y80189D01*
D02*
G37*
G36*
X68996Y80121D02*
X68860D01*
Y80189D01*
X68724D01*
Y80257D01*
X68996D01*
Y80121D01*
D02*
G37*
G36*
X65261Y79985D02*
X65126D01*
Y80053D01*
X65261D01*
Y79985D01*
D02*
G37*
G36*
X65601Y79917D02*
X65533D01*
Y79849D01*
X65465D01*
Y79917D01*
Y79985D01*
X65601D01*
Y79917D01*
D02*
G37*
G36*
X69268Y79781D02*
X69200D01*
Y79849D01*
X69268D01*
Y79781D01*
D02*
G37*
G36*
X68656Y79510D02*
X68589D01*
Y79578D01*
X68656D01*
Y79510D01*
D02*
G37*
G36*
X67910D02*
X67774D01*
Y79578D01*
X67910D01*
Y79510D01*
D02*
G37*
G36*
X65669Y79646D02*
X65737D01*
Y79578D01*
X65940D01*
Y79510D01*
X66076D01*
Y79442D01*
X65873D01*
Y79510D01*
X65805D01*
Y79442D01*
X65669D01*
Y79374D01*
X65601D01*
Y79442D01*
Y79510D01*
Y79713D01*
X65669D01*
Y79646D01*
D02*
G37*
G36*
X66212Y79374D02*
X66144D01*
Y79442D01*
X66212D01*
Y79374D01*
D02*
G37*
G36*
X67842Y79306D02*
X67910D01*
Y79238D01*
X67774D01*
Y79374D01*
X67842D01*
Y79306D01*
D02*
G37*
G36*
X67298Y79170D02*
X67230D01*
Y79238D01*
X67298D01*
Y79170D01*
D02*
G37*
G36*
X68249Y79102D02*
X68113D01*
Y79170D01*
X68249D01*
Y79102D01*
D02*
G37*
G36*
X65058D02*
X64990D01*
Y79170D01*
Y79238D01*
X65058D01*
Y79102D01*
D02*
G37*
G36*
X67570Y79035D02*
X67638D01*
Y78967D01*
X67570D01*
Y78899D01*
X67366D01*
Y79035D01*
X67434D01*
Y79102D01*
X67570D01*
Y79035D01*
D02*
G37*
G36*
X65058Y78627D02*
X64990D01*
Y78763D01*
X65058D01*
Y78627D01*
D02*
G37*
G36*
X66348Y78559D02*
X66280D01*
Y78491D01*
X66212D01*
Y78559D01*
X66076D01*
Y78627D01*
X66348D01*
Y78559D01*
D02*
G37*
G36*
X66484Y78423D02*
X66416D01*
Y78491D01*
X66484D01*
Y78423D01*
D02*
G37*
G36*
X65737Y78220D02*
X65669D01*
Y78152D01*
X65533D01*
Y78084D01*
X65329D01*
Y78220D01*
X65397D01*
Y78288D01*
X65737D01*
Y78220D01*
D02*
G37*
G36*
X64990Y77880D02*
X64854D01*
Y77948D01*
X64990D01*
Y77880D01*
D02*
G37*
G36*
X64650Y77744D02*
X64514D01*
Y77812D01*
Y77880D01*
X64650D01*
Y77744D01*
D02*
G37*
G36*
X58268D02*
Y77676D01*
Y77541D01*
X58132D01*
Y77744D01*
X58200D01*
Y77812D01*
X58268D01*
Y77744D01*
D02*
G37*
G36*
X57657Y77541D02*
X57521D01*
Y77609D01*
X57657D01*
Y77541D01*
D02*
G37*
G36*
X56774Y77269D02*
X56706D01*
Y77337D01*
X56774D01*
Y77269D01*
D02*
G37*
G36*
X56977Y77133D02*
X56910D01*
Y77201D01*
X56977D01*
Y77133D01*
D02*
G37*
G36*
X58879Y77405D02*
X58811D01*
Y77201D01*
X58675D01*
Y77337D01*
X58743D01*
Y77473D01*
X58879D01*
Y77405D01*
D02*
G37*
G36*
X58539Y77065D02*
X58607D01*
Y76929D01*
X58403D01*
Y77133D01*
X58539D01*
Y77065D01*
D02*
G37*
G36*
X57589Y76929D02*
X57657D01*
Y76862D01*
X57521D01*
Y76997D01*
X57589D01*
Y76929D01*
D02*
G37*
G36*
X57996Y76794D02*
X58064D01*
Y76726D01*
X57928D01*
Y76794D01*
X57860D01*
Y76862D01*
X57792D01*
Y76929D01*
X57996D01*
Y76794D01*
D02*
G37*
G36*
X61051Y84602D02*
X60984D01*
Y84535D01*
X60848D01*
Y84602D01*
X60916D01*
Y84670D01*
X61051D01*
Y84602D01*
D02*
G37*
G36*
X60848Y84399D02*
X60712D01*
Y84467D01*
X60780D01*
Y84535D01*
X60848D01*
Y84399D01*
D02*
G37*
G36*
X60712Y84331D02*
X60508D01*
Y84399D01*
X60712D01*
Y84331D01*
D02*
G37*
G36*
X61934Y84263D02*
X61798D01*
Y84399D01*
X61934D01*
Y84263D01*
D02*
G37*
G36*
X61119Y84127D02*
X61051D01*
Y84263D01*
X61119D01*
Y84127D01*
D02*
G37*
G36*
X62138Y84059D02*
X62070D01*
Y84127D01*
X62002D01*
Y84195D01*
X62138D01*
Y84059D01*
D02*
G37*
G36*
X60916Y83923D02*
X60848D01*
Y83855D01*
X60712D01*
Y83923D01*
X60644D01*
Y84059D01*
X60916D01*
Y83923D01*
D02*
G37*
G36*
X60305Y83788D02*
X60169D01*
Y83855D01*
X60305D01*
Y83788D01*
D02*
G37*
G36*
X61187Y83720D02*
Y83652D01*
X60984D01*
Y83788D01*
X61187D01*
Y83720D01*
D02*
G37*
G36*
X60576Y83584D02*
X60508D01*
Y83652D01*
X60576D01*
Y83584D01*
D02*
G37*
G36*
X62613Y83720D02*
X62681D01*
Y83652D01*
X62817D01*
Y83584D01*
X62885D01*
Y83448D01*
X62681D01*
Y83584D01*
X62613D01*
Y83652D01*
X62545D01*
Y83720D01*
X62477D01*
Y83788D01*
X62613D01*
Y83720D01*
D02*
G37*
G36*
Y83312D02*
X62545D01*
Y83380D01*
X62613D01*
Y83312D01*
D02*
G37*
G36*
X60984D02*
X60848D01*
Y83380D01*
X60984D01*
Y83312D01*
D02*
G37*
G36*
X61187Y83109D02*
X61051D01*
Y83176D01*
X61187D01*
Y83109D01*
D02*
G37*
G36*
X63564Y82633D02*
X63496D01*
Y82701D01*
X63564D01*
Y82633D01*
D02*
G37*
G36*
X62070Y82429D02*
X62138D01*
Y82362D01*
X62206D01*
Y82158D01*
X62138D01*
Y82226D01*
X62002D01*
Y82362D01*
X61934D01*
Y82429D01*
X62002D01*
Y82497D01*
X62070D01*
Y82429D01*
D02*
G37*
G36*
X62477Y81954D02*
X62410D01*
Y82022D01*
X62477D01*
Y81954D01*
D02*
G37*
G36*
X62342Y81683D02*
Y81615D01*
X62274D01*
Y81751D01*
X62342D01*
Y81683D01*
D02*
G37*
G36*
X64107Y81411D02*
X64175D01*
Y81275D01*
X64107D01*
Y81139D01*
X63971D01*
Y81207D01*
Y81275D01*
X64039D01*
Y81479D01*
X64107D01*
Y81411D01*
D02*
G37*
G36*
X63632Y80257D02*
Y80189D01*
X63564D01*
Y80325D01*
X63632D01*
Y80257D01*
D02*
G37*
G36*
X64039Y80325D02*
X64107D01*
Y80257D01*
X64039D01*
Y80121D01*
X63971D01*
Y80392D01*
Y80460D01*
X64039D01*
Y80325D01*
D02*
G37*
G36*
Y79917D02*
X64107D01*
Y79781D01*
X63971D01*
Y79917D01*
Y79985D01*
X64039D01*
Y79917D01*
D02*
G37*
G36*
Y79306D02*
X63971D01*
Y79510D01*
X64039D01*
Y79306D01*
D02*
G37*
G36*
X63021Y79442D02*
X63089D01*
Y79306D01*
X62953D01*
Y79442D01*
Y79510D01*
X63021D01*
Y79442D01*
D02*
G37*
G36*
Y79035D02*
X63089D01*
Y78899D01*
X63021D01*
Y78831D01*
Y78763D01*
X62953D01*
Y79102D01*
X63021D01*
Y79035D01*
D02*
G37*
G36*
Y78559D02*
Y78423D01*
X62953D01*
Y78627D01*
X63021D01*
Y78559D01*
D02*
G37*
G36*
X64039Y78288D02*
X63971D01*
Y78423D01*
X64039D01*
Y78288D01*
D02*
G37*
G36*
X63089Y77948D02*
X63021D01*
Y78084D01*
X63089D01*
Y77948D01*
D02*
G37*
G36*
X62749D02*
X62681D01*
Y78016D01*
Y78220D01*
X62749D01*
Y77948D01*
D02*
G37*
G36*
X63836Y77541D02*
X63700D01*
Y77744D01*
X63836D01*
Y77541D01*
D02*
G37*
G36*
X63564Y77337D02*
X63496D01*
Y77269D01*
X63428D01*
Y77201D01*
X63360D01*
Y77405D01*
X63564D01*
Y77337D01*
D02*
G37*
G36*
X62545Y76929D02*
X62613D01*
Y76862D01*
X62477D01*
Y76929D01*
X62410D01*
Y76862D01*
X62342D01*
Y76997D01*
X62545D01*
Y76929D01*
D02*
G37*
G36*
X62206Y79306D02*
X62138D01*
Y79374D01*
X62206D01*
Y79306D01*
D02*
G37*
G36*
X61798Y78967D02*
X61663D01*
Y79035D01*
X61730D01*
Y79102D01*
X61798D01*
Y78967D01*
D02*
G37*
G36*
X62274Y78899D02*
Y78831D01*
X62206D01*
Y79102D01*
X62274D01*
Y78899D01*
D02*
G37*
G36*
X62002Y78763D02*
X61934D01*
Y78831D01*
Y79035D01*
X62002D01*
Y78763D01*
D02*
G37*
G36*
X60508Y78627D02*
X60440D01*
Y78695D01*
X60508D01*
Y78627D01*
D02*
G37*
G36*
X62070Y78220D02*
Y78084D01*
X62002D01*
Y78152D01*
X61934D01*
Y78220D01*
X62002D01*
Y78288D01*
X62070D01*
Y78220D01*
D02*
G37*
G36*
Y77812D02*
X61934D01*
Y77880D01*
Y77948D01*
X62070D01*
Y77812D01*
D02*
G37*
G36*
X61595Y76862D02*
Y76794D01*
X61527D01*
Y76862D01*
X61459D01*
Y76929D01*
X61595D01*
Y76862D01*
D02*
G37*
G36*
X60237Y76997D02*
X60305D01*
Y76929D01*
X60237D01*
Y76862D01*
X60169D01*
Y76794D01*
X60101D01*
Y76997D01*
X60169D01*
Y77065D01*
X60237D01*
Y76997D01*
D02*
G37*
G36*
X61255Y76726D02*
Y76658D01*
X61187D01*
Y76794D01*
X61255D01*
Y76726D01*
D02*
G37*
G36*
X60508Y76658D02*
X60373D01*
Y76726D01*
X60508D01*
Y76658D01*
D02*
G37*
G36*
X61459Y76522D02*
X61391D01*
Y76590D01*
X61459D01*
Y76522D01*
D02*
G37*
G36*
X61255Y76318D02*
Y76250D01*
X61119D01*
Y76318D01*
X61187D01*
Y76386D01*
X61255D01*
Y76318D01*
D02*
G37*
G36*
X60576Y76250D02*
X60644D01*
Y76183D01*
X60508D01*
Y76318D01*
X60576D01*
Y76250D01*
D02*
G37*
G36*
X59490Y76047D02*
X59558D01*
Y75911D01*
X59490D01*
Y75979D01*
X59422D01*
Y76047D01*
X59354D01*
Y76115D01*
X59490D01*
Y76047D01*
D02*
G37*
G36*
X75311Y79442D02*
X75243D01*
Y79510D01*
X75311D01*
Y79442D01*
D02*
G37*
G36*
X74564D02*
Y79374D01*
X74700D01*
Y79306D01*
X74564D01*
Y79374D01*
X74496D01*
Y79510D01*
X74564D01*
Y79442D01*
D02*
G37*
G36*
X75650Y79238D02*
X75582D01*
Y79170D01*
Y79102D01*
X75515D01*
Y79306D01*
X75582D01*
Y79442D01*
X75650D01*
Y79238D01*
D02*
G37*
G36*
X74428Y77473D02*
X74360D01*
Y77541D01*
Y77676D01*
X74428D01*
Y77473D01*
D02*
G37*
G36*
Y76115D02*
X74360D01*
Y76318D01*
Y76386D01*
Y76454D01*
X74428D01*
Y76115D01*
D02*
G37*
G36*
X74224Y75775D02*
X74156D01*
Y75843D01*
X74224D01*
Y75775D01*
D02*
G37*
G36*
X75515Y75300D02*
X75379D01*
Y75368D01*
Y75436D01*
X75515D01*
Y75300D01*
D02*
G37*
G36*
X75650Y74960D02*
X75515D01*
Y75096D01*
X75650D01*
Y74960D01*
D02*
G37*
G36*
X74632Y74485D02*
X74564D01*
Y74553D01*
X74632D01*
Y74485D01*
D02*
G37*
G36*
X73885Y74621D02*
X73953D01*
Y74485D01*
X73817D01*
Y74689D01*
X73885D01*
Y74621D01*
D02*
G37*
G36*
X73681Y74146D02*
X73613D01*
Y74213D01*
X73681D01*
Y74146D01*
D02*
G37*
G36*
X73613Y74078D02*
X73545D01*
Y74146D01*
X73613D01*
Y74078D01*
D02*
G37*
D10*
X200456Y36729D02*
G03*
X200456Y43271I-3271J3271D01*
G01*
X37686D02*
G03*
X37686Y36729I3271J-3271D01*
G01*
X54173Y10472D02*
X184095D01*
X54173Y69528D02*
X184095D01*
Y10472D02*
Y69528D01*
X54173Y10472D02*
Y69528D01*
X200456Y36728D02*
Y36729D01*
X184136Y20408D02*
X200456Y36728D01*
X184135Y59592D02*
X200456Y43271D01*
X37707Y36733D02*
X54027Y20412D01*
X37706Y43275D02*
X54027Y59596D01*
D11*
X217541Y60618D02*
G03*
X217541Y60618I-394J0D01*
G01*
X197876Y91312D02*
X197220Y91968D01*
X195908D01*
X195252Y91312D01*
Y88688D01*
X195908Y88032D01*
X197220D01*
X197876Y88688D01*
Y90000D01*
X196564D01*
X199188Y88032D02*
Y91968D01*
X201812Y88032D01*
Y91968D01*
X203124D02*
Y88032D01*
X205092D01*
X205748Y88688D01*
Y91312D01*
X205092Y91968D01*
X203124D01*
X189344D02*
X186720D01*
Y90000D01*
X188032Y90656D01*
X188688D01*
X189344Y90000D01*
Y88688D01*
X188688Y88032D01*
X187376D01*
X186720Y88688D01*
X190656Y91968D02*
Y89344D01*
X191968Y88032D01*
X193280Y89344D01*
Y91968D01*
X176720D02*
X179344D01*
X178032D01*
Y88032D01*
X180656Y91968D02*
X183280Y88032D01*
Y91968D02*
X180656Y88032D01*
X166220D02*
Y91968D01*
X168188D01*
X168844Y91312D01*
Y90000D01*
X168188Y89344D01*
X166220D01*
X167532D02*
X168844Y88032D01*
X170156Y91968D02*
X172780Y88032D01*
Y91968D02*
X170156Y88032D01*
X3188Y12000D02*
X5812D01*
X13188Y11500D02*
X15812D01*
X14500Y12812D02*
Y10188D01*
X22204Y12812D02*
X21548Y13468D01*
X20236D01*
X19580Y12812D01*
Y12156D01*
X20236Y11500D01*
X21548D01*
X22204Y10844D01*
Y10188D01*
X21548Y9532D01*
X20236D01*
X19580Y10188D01*
X23516Y13468D02*
X24828D01*
X24172D01*
Y9532D01*
X23516D01*
X24828D01*
X29420Y12812D02*
X28764Y13468D01*
X27452D01*
X26796Y12812D01*
Y10188D01*
X27452Y9532D01*
X28764D01*
X29420Y10188D01*
Y11500D01*
X28108D01*
X20473Y70968D02*
X17849D01*
Y67032D01*
X20473D01*
X17849Y69000D02*
X19161D01*
X21784Y67032D02*
Y70968D01*
X24408Y67032D01*
Y70968D01*
X25720Y67032D02*
Y69656D01*
X27032Y70968D01*
X28344Y69656D01*
Y67032D01*
Y69000D01*
X25720D01*
X29656Y70968D02*
Y67032D01*
X31624D01*
X32280Y67688D01*
Y68344D01*
X31624Y69000D01*
X29656D01*
X31624D01*
X32280Y69656D01*
Y70312D01*
X31624Y70968D01*
X29656D01*
X33592D02*
Y67032D01*
X36215D01*
X40151Y70968D02*
X37527D01*
Y67032D01*
X40151D01*
X37527Y69000D02*
X38839D01*
X21784Y77468D02*
Y73532D01*
X23752D01*
X24408Y74188D01*
Y76812D01*
X23752Y77468D01*
X21784D01*
X27688D02*
X26376D01*
X25720Y76812D01*
Y74188D01*
X26376Y73532D01*
X27688D01*
X28344Y74188D01*
Y76812D01*
X27688Y77468D01*
X31624D02*
X30312D01*
X29656Y76812D01*
Y74188D01*
X30312Y73532D01*
X31624D01*
X32280Y74188D01*
Y76812D01*
X31624Y77468D01*
X33592Y73532D02*
Y77468D01*
X35560D01*
X36215Y76812D01*
Y75500D01*
X35560Y74844D01*
X33592D01*
X34904D02*
X36215Y73532D01*
X18505Y82812D02*
X17849Y83468D01*
X16537D01*
X15881Y82812D01*
Y82156D01*
X16537Y81500D01*
X17849D01*
X18505Y80844D01*
Y80188D01*
X17849Y79532D01*
X16537D01*
X15881Y80188D01*
X19817Y83468D02*
X22440D01*
X21128D01*
Y79532D01*
X25720Y83468D02*
X24408D01*
X23752Y82812D01*
Y80188D01*
X24408Y79532D01*
X25720D01*
X26376Y80188D01*
Y82812D01*
X25720Y83468D01*
X27688Y79532D02*
Y83468D01*
X29656D01*
X30312Y82812D01*
Y81500D01*
X29656Y80844D01*
X27688D01*
X31624Y79532D02*
Y83468D01*
X33592D01*
X34248Y82812D01*
Y81500D01*
X33592Y80844D01*
X31624D01*
X38183Y83468D02*
X35560D01*
Y79532D01*
X38183D01*
X35560Y81500D02*
X36871D01*
X39495Y79532D02*
Y83468D01*
X41463D01*
X42119Y82812D01*
Y81500D01*
X41463Y80844D01*
X39495D01*
X40807D02*
X42119Y79532D01*
X15709Y89468D02*
X18333D01*
X17021D01*
Y85532D01*
X19645D02*
Y89468D01*
X21612D01*
X22268Y88812D01*
Y87500D01*
X21612Y86844D01*
X19645D01*
X20956D02*
X22268Y85532D01*
X23580Y89468D02*
X24892D01*
X24236D01*
Y85532D01*
X23580D01*
X24892D01*
X29484Y88812D02*
X28828Y89468D01*
X27516D01*
X26860Y88812D01*
Y86188D01*
X27516Y85532D01*
X28828D01*
X29484Y86188D01*
Y87500D01*
X28172D01*
X33420Y88812D02*
X32764Y89468D01*
X31452D01*
X30796Y88812D01*
Y86188D01*
X31452Y85532D01*
X32764D01*
X33420Y86188D01*
Y87500D01*
X32108D01*
X37355Y89468D02*
X34732D01*
Y85532D01*
X37355D01*
X34732Y87500D02*
X36044D01*
X38667Y85532D02*
Y89468D01*
X40635D01*
X41291Y88812D01*
Y87500D01*
X40635Y86844D01*
X38667D01*
X39979D02*
X41291Y85532D01*
X11773Y91532D02*
Y95468D01*
X13085Y94156D01*
X14397Y95468D01*
Y91532D01*
X18333Y95468D02*
X15709D01*
Y91532D01*
X18333D01*
X15709Y93500D02*
X17021D01*
X22268Y94812D02*
X21612Y95468D01*
X20301D01*
X19645Y94812D01*
Y92188D01*
X20301Y91532D01*
X21612D01*
X22268Y92188D01*
X23580Y95468D02*
Y91532D01*
Y93500D01*
X26204D01*
Y95468D01*
Y91532D01*
X27516D02*
Y94156D01*
X28828Y95468D01*
X30140Y94156D01*
Y91532D01*
Y93500D01*
X27516D01*
X31452Y91532D02*
Y95468D01*
X34076Y91532D01*
Y95468D01*
X38011Y94812D02*
X37355Y95468D01*
X36044D01*
X35388Y94812D01*
Y94156D01*
X36044Y93500D01*
X37355D01*
X38011Y92844D01*
Y92188D01*
X37355Y91532D01*
X36044D01*
X35388Y92188D01*
X39323Y95468D02*
X40635D01*
X39979D01*
Y91532D01*
X39323D01*
X40635D01*
X42603D02*
Y95468D01*
X43915Y94156D01*
X45227Y95468D01*
Y91532D01*
X230688Y85000D02*
X233312D01*
X220688D02*
X223312D01*
X222000Y86312D02*
Y83688D01*
X210452Y85180D02*
X213076D01*
D12*
X209076Y11996D02*
Y58059D01*
Y11996D02*
X238801D01*
Y58059D01*
X209076D02*
X238801D01*
D13*
X95402Y42952D02*
X99337D01*
X97369D01*
Y37048D01*
X105241Y42952D02*
X101305D01*
Y40000D01*
X103273D01*
X101305D01*
Y37048D01*
X107209Y40000D02*
X111145D01*
X113112Y37048D02*
Y40984D01*
X114096D01*
X115080Y40000D01*
Y37048D01*
Y40000D01*
X116064Y40984D01*
X117048Y40000D01*
Y37048D01*
X119016D02*
X120984D01*
X120000D01*
Y40984D01*
X119016D01*
X123936Y37048D02*
Y40984D01*
X126888D01*
X127872Y40000D01*
Y37048D01*
X129839D02*
X131807D01*
X130823D01*
Y40984D01*
X129839D01*
X134759Y40000D02*
X138695D01*
X140663Y37048D02*
X143614D01*
X144598Y38032D01*
X143614Y39016D01*
X141647D01*
X140663Y40000D01*
X141647Y40984D01*
X144598D01*
D14*
X39861Y-833D02*
Y1833D01*
X41194Y3166D01*
X42527Y1833D01*
Y-833D01*
Y1166D01*
X39861D01*
X43860Y3166D02*
X45193D01*
X44526D01*
Y-833D01*
X43860D01*
X45193D01*
X47192D02*
Y1833D01*
X48525Y3166D01*
X49858Y1833D01*
Y-833D01*
Y1166D01*
X47192D01*
X51191Y-833D02*
Y1833D01*
X52523Y3166D01*
X53856Y1833D01*
Y-833D01*
Y1166D01*
X51191D01*
X59188Y3166D02*
Y-833D01*
X61187D01*
X61854Y-166D01*
Y2499D01*
X61187Y3166D01*
X59188D01*
X65186Y-833D02*
X63853D01*
X63187Y-166D01*
Y1166D01*
X63853Y1833D01*
X65186D01*
X65853Y1166D01*
Y500D01*
X63187D01*
X67185Y-833D02*
X69185D01*
X69851Y-166D01*
X69185Y500D01*
X67852D01*
X67185Y1166D01*
X67852Y1833D01*
X69851D01*
X71184Y-833D02*
X72517D01*
X71851D01*
Y1833D01*
X71184D01*
X75849Y-2166D02*
X76516D01*
X77182Y-1499D01*
Y1833D01*
X75183D01*
X74516Y1166D01*
Y-166D01*
X75183Y-833D01*
X77182D01*
X78515D02*
Y1833D01*
X80515D01*
X81181Y1166D01*
Y-833D01*
X86513Y3166D02*
Y-833D01*
X88512D01*
X89178Y-166D01*
Y500D01*
X88512Y1166D01*
X86513D01*
X88512D01*
X89178Y1833D01*
Y2499D01*
X88512Y3166D01*
X86513D01*
X90511Y1833D02*
Y-166D01*
X91178Y-833D01*
X93177D01*
Y1833D01*
X94510Y-833D02*
X95843D01*
X95176D01*
Y1833D01*
X94510D01*
X97842Y-833D02*
X99175D01*
X98509D01*
Y3166D01*
X97842D01*
X103840D02*
Y-833D01*
X101841D01*
X101174Y-166D01*
Y1166D01*
X101841Y1833D01*
X103840D01*
X111838Y3166D02*
X109172D01*
Y1166D01*
X110505D01*
X109172D01*
Y-833D01*
X113171D02*
X114504D01*
X113837D01*
Y3166D01*
X113171D01*
X116503Y1833D02*
Y-166D01*
X117169Y-833D01*
X119169D01*
Y-1499D01*
X118502Y-2166D01*
X117836D01*
X119169Y-833D02*
Y1833D01*
X126500Y500D02*
Y1166D01*
X125833D01*
Y500D01*
X126500D01*
X127166Y1166D01*
Y2499D01*
X126500Y3166D01*
X125167D01*
X124500Y2499D01*
Y-166D01*
X125167Y-833D01*
X127166D01*
X132498Y3166D02*
Y-166D01*
X133164Y-833D01*
X134497D01*
X135164Y-166D01*
Y3166D01*
X136496Y-833D02*
Y1833D01*
X138496D01*
X139162Y1166D01*
Y-833D01*
X140495D02*
X141828D01*
X141162D01*
Y1833D01*
X140495D01*
X143827D02*
X145160Y-833D01*
X146493Y1833D01*
X149826Y-833D02*
X148493D01*
X147826Y-166D01*
Y1166D01*
X148493Y1833D01*
X149826D01*
X150492Y1166D01*
Y500D01*
X147826D01*
X151825Y1833D02*
Y-833D01*
Y500D01*
X152491Y1166D01*
X153158Y1833D01*
X153824D01*
X155824Y-833D02*
X157823D01*
X158489Y-166D01*
X157823Y500D01*
X156490D01*
X155824Y1166D01*
X156490Y1833D01*
X158489D01*
X159822Y-833D02*
X161155D01*
X160489D01*
Y1833D01*
X159822D01*
X163821Y2499D02*
Y1833D01*
X163154D01*
X164487D01*
X163821D01*
Y-166D01*
X164487Y-833D01*
X166487Y1833D02*
Y-166D01*
X167153Y-833D01*
X169153D01*
Y-1499D01*
X168486Y-2166D01*
X167820D01*
X169153Y-833D02*
Y1833D01*
X175151Y-833D02*
X176484D01*
X177150Y-166D01*
Y1166D01*
X176484Y1833D01*
X175151D01*
X174484Y1166D01*
Y-166D01*
X175151Y-833D01*
X179149D02*
Y2499D01*
Y1166D01*
X178483D01*
X179816D01*
X179149D01*
Y2499D01*
X179816Y3166D01*
X188480D02*
X185814D01*
Y1166D01*
X187147D01*
X185814D01*
Y-833D01*
X189813D02*
X191146D01*
X190479D01*
Y3166D01*
X189813D01*
X193811Y-833D02*
X195144D01*
X195811Y-166D01*
Y1166D01*
X195144Y1833D01*
X193811D01*
X193145Y1166D01*
Y-166D01*
X193811Y-833D01*
X197144Y1833D02*
Y-833D01*
Y500D01*
X197810Y1166D01*
X198477Y1833D01*
X199143D01*
X201142Y-833D02*
X202475D01*
X201809D01*
Y1833D01*
X201142D01*
X207140Y3166D02*
Y-833D01*
X205141D01*
X204474Y-166D01*
Y1166D01*
X205141Y1833D01*
X207140D01*
X209140D02*
X210473D01*
X211139Y1166D01*
Y-833D01*
X209140D01*
X208473Y-166D01*
X209140Y500D01*
X211139D01*
D15*
X38002Y14999D02*
Y10001D01*
X39001Y9001D01*
X41001D01*
X42000Y10001D01*
Y14999D01*
X46999Y9001D02*
Y14999D01*
X44000Y12000D01*
X47998D01*
X220529Y7919D02*
Y2920D01*
X221528Y1921D01*
X223528D01*
X224527Y2920D01*
Y7919D01*
X230525Y1921D02*
X226527D01*
X230525Y5919D01*
Y6919D01*
X229526Y7919D01*
X227526D01*
X226527Y6919D01*
X221584Y70276D02*
X219585D01*
X220585D01*
Y65278D01*
X219585Y64278D01*
X218585D01*
X217586Y65278D01*
X227582Y70276D02*
X225583Y69277D01*
X223584Y67277D01*
Y65278D01*
X224583Y64278D01*
X226583D01*
X227582Y65278D01*
Y66278D01*
X226583Y67277D01*
X223584D01*
X-5320Y41460D02*
X-6960D01*
X-6140D01*
Y37360D01*
X-6960Y36540D01*
X-7780D01*
X-8600Y37360D01*
X-400Y41460D02*
X-3680D01*
Y39000D01*
X-2040Y39820D01*
X-1220D01*
X-400Y39000D01*
Y37360D01*
X-1220Y36540D01*
X-2860D01*
X-3680Y37360D01*
X-4820Y31460D02*
X-6460D01*
X-5640D01*
Y27360D01*
X-6460Y26540D01*
X-7280D01*
X-8100Y27360D01*
X-720Y26540D02*
Y31460D01*
X-3180Y29000D01*
X100D01*
X-5320Y61460D02*
X-6960D01*
X-6140D01*
Y57360D01*
X-6960Y56540D01*
X-7780D01*
X-8600Y57360D01*
X-3680Y60640D02*
X-2860Y61460D01*
X-1220D01*
X-400Y60640D01*
Y59820D01*
X-1220Y59000D01*
X-2040D01*
X-1220D01*
X-400Y58180D01*
Y57360D01*
X-1220Y56540D01*
X-2860D01*
X-3680Y57360D01*
X-5820Y51460D02*
X-7460D01*
X-6640D01*
Y47360D01*
X-7460Y46540D01*
X-8280D01*
X-9100Y47360D01*
X-900Y46540D02*
X-4180D01*
X-900Y49820D01*
Y50640D01*
X-1720Y51460D01*
X-3360D01*
X-4180Y50640D01*
X-4000Y21960D02*
X-5640D01*
X-4820D01*
Y17860D01*
X-5640Y17040D01*
X-6460D01*
X-7280Y17860D01*
X-2360Y17040D02*
X-720D01*
X-1540D01*
Y21960D01*
X-2360Y21140D01*
M02*
