G04*
G04 #@! TF.GenerationSoftware,Altium Limited,Altium Designer,21.6.4 (81)*
G04*
G04 Layer_Color=32896*
%FSLAX25Y25*%
%MOIN*%
G70*
G04*
G04 #@! TF.SameCoordinates,E723B31F-DAC3-422C-9DD4-3D6A13DCE0CD*
G04*
G04*
G04 #@! TF.FilePolarity,Positive*
G04*
G01*
G75*
%ADD11C,0.00787*%
%ADD12C,0.00500*%
%ADD15C,0.01000*%
%ADD35C,0.00000*%
%ADD36C,0.00591*%
D11*
X40536Y65314D02*
G03*
X40536Y65314I-394J0D01*
G01*
D12*
X46835Y62913D02*
X53134D01*
X46835Y75196D02*
X53134D01*
D15*
X54998Y83999D02*
Y79001D01*
X53999Y78001D01*
X51999D01*
X51000Y79001D01*
Y83999D01*
X49000Y82999D02*
X48001Y83999D01*
X46001D01*
X45002Y82999D01*
Y82000D01*
X46001Y81000D01*
X47001D01*
X46001D01*
X45002Y80000D01*
Y79001D01*
X46001Y78001D01*
X48001D01*
X49000Y79001D01*
X155999Y88999D02*
Y84001D01*
X154999Y83001D01*
X153000D01*
X152000Y84001D01*
Y88999D01*
X150001Y83001D02*
X148001D01*
X149001D01*
Y88999D01*
X150001Y87999D01*
X74428Y78114D02*
X75428Y79114D01*
X77427D01*
X78427Y78114D01*
Y74115D01*
X77427Y73116D01*
X75428D01*
X74428Y74115D01*
X72429Y73116D02*
X70429D01*
X71429D01*
Y79114D01*
X72429Y78114D01*
D35*
X84019Y11934D02*
G03*
X84019Y11934I-1000J0D01*
G01*
D36*
X231796Y14927D02*
X232288Y15419D01*
X233272D01*
X233764Y14927D01*
Y12959D01*
X233272Y12467D01*
X232288D01*
X231796Y12959D01*
X230320Y12467D02*
X229336D01*
X228844Y12959D01*
Y13943D01*
X229336Y14435D01*
X230320D01*
X230812Y13943D01*
Y12959D01*
X230320Y12467D01*
X227860D02*
Y14435D01*
X226384D01*
X225892Y13943D01*
Y12467D01*
X224417Y14927D02*
Y14435D01*
X224909D01*
X223925D01*
X224417D01*
Y12959D01*
X223925Y12467D01*
X222449Y14435D02*
Y12467D01*
Y13451D01*
X221957Y13943D01*
X221465Y14435D01*
X220973D01*
X219005Y12467D02*
X218021D01*
X217529Y12959D01*
Y13943D01*
X218021Y14435D01*
X219005D01*
X219497Y13943D01*
Y12959D01*
X219005Y12467D01*
X216545D02*
X215561D01*
X216053D01*
Y15419D01*
X216545D01*
X211134D02*
Y12467D01*
X209658D01*
X209166Y12959D01*
Y13451D01*
X209658Y13943D01*
X211134D01*
X209658D01*
X209166Y14435D01*
Y14927D01*
X209658Y15419D01*
X211134D01*
X207690Y12467D02*
X206706D01*
X206214Y12959D01*
Y13943D01*
X206706Y14435D01*
X207690D01*
X208182Y13943D01*
Y12959D01*
X207690Y12467D01*
X204738Y14435D02*
X203754D01*
X203262Y13943D01*
Y12467D01*
X204738D01*
X205230Y12959D01*
X204738Y13451D01*
X203262D01*
X202278Y14435D02*
Y12467D01*
Y13451D01*
X201786Y13943D01*
X201294Y14435D01*
X200802D01*
X197358Y15419D02*
Y12467D01*
X198834D01*
X199326Y12959D01*
Y13943D01*
X198834Y14435D01*
X197358D01*
X193423Y15419D02*
Y13451D01*
X192439Y12467D01*
X191455Y13451D01*
Y15419D01*
X190471Y12467D02*
X189487D01*
X189979D01*
Y15419D01*
X190471Y14927D01*
X183091Y12467D02*
X185059D01*
X183091Y14435D01*
Y14927D01*
X183583Y15419D01*
X184567D01*
X185059Y14927D01*
X182107D02*
X181615Y15419D01*
X180632D01*
X180140Y14927D01*
Y12959D01*
X180632Y12467D01*
X181615D01*
X182107Y12959D01*
Y14927D01*
X177188Y12467D02*
X179156D01*
X177188Y14435D01*
Y14927D01*
X177680Y15419D01*
X178664D01*
X179156Y14927D01*
X174236Y12467D02*
X176204D01*
X174236Y14435D01*
Y14927D01*
X174728Y15419D01*
X175712D01*
X176204Y14927D01*
X240406Y9968D02*
X240897Y10460D01*
X241881D01*
X242373Y9968D01*
Y9476D01*
X241881Y8984D01*
X240897D01*
X240406Y8492D01*
Y8000D01*
X240897Y7508D01*
X241881D01*
X242373Y8000D01*
X237454Y9476D02*
X238930D01*
X239422Y8984D01*
Y8000D01*
X238930Y7508D01*
X237454D01*
X236470Y10460D02*
Y7508D01*
Y8984D01*
X235978Y9476D01*
X234994D01*
X234502Y8984D01*
Y7508D01*
X232042D02*
X233026D01*
X233518Y8000D01*
Y8984D01*
X233026Y9476D01*
X232042D01*
X231550Y8984D01*
Y8492D01*
X233518D01*
X230566Y7508D02*
Y9476D01*
X230074D01*
X229582Y8984D01*
Y7508D01*
Y8984D01*
X229090Y9476D01*
X228598Y8984D01*
Y7508D01*
X227122Y9476D02*
X226138D01*
X225646Y8984D01*
Y7508D01*
X227122D01*
X227614Y8000D01*
X227122Y8492D01*
X225646D01*
X224171Y9968D02*
Y9476D01*
X224663D01*
X223679D01*
X224171D01*
Y8000D01*
X223679Y7508D01*
X222203D02*
X221219D01*
X221711D01*
Y9476D01*
X222203D01*
X217775D02*
X219251D01*
X219743Y8984D01*
Y8000D01*
X219251Y7508D01*
X217775D01*
X213347Y9476D02*
X212363D01*
X211872Y8984D01*
Y7508D01*
X213347D01*
X213839Y8000D01*
X213347Y8492D01*
X211872D01*
X210888Y7508D02*
Y9476D01*
X209412D01*
X208920Y8984D01*
Y7508D01*
X205968Y10460D02*
Y7508D01*
X207444D01*
X207936Y8000D01*
Y8984D01*
X207444Y9476D01*
X205968D01*
X202032Y10460D02*
Y7508D01*
X200064D01*
X198588Y9476D02*
X197604D01*
X197113Y8984D01*
Y7508D01*
X198588D01*
X199080Y8000D01*
X198588Y8492D01*
X197113D01*
X196128Y9476D02*
Y8000D01*
X195637Y7508D01*
X194161D01*
Y7016D01*
X194653Y6524D01*
X195145D01*
X194161Y7508D02*
Y9476D01*
X192685Y7508D02*
X191701D01*
X191209Y8000D01*
Y8984D01*
X191701Y9476D01*
X192685D01*
X193177Y8984D01*
Y8000D01*
X192685Y7508D01*
X190225Y9476D02*
Y8000D01*
X189733Y7508D01*
X188257D01*
Y9476D01*
X186781Y9968D02*
Y9476D01*
X187273D01*
X186289D01*
X186781D01*
Y8000D01*
X186289Y7508D01*
X181861Y10460D02*
Y7508D01*
X180386D01*
X179894Y8000D01*
Y9968D01*
X180386Y10460D01*
X181861D01*
X177434Y7508D02*
X178418D01*
X178910Y8000D01*
Y8984D01*
X178418Y9476D01*
X177434D01*
X176942Y8984D01*
Y8492D01*
X178910D01*
X175958Y7508D02*
X174482D01*
X173990Y8000D01*
X174482Y8492D01*
X175466D01*
X175958Y8984D01*
X175466Y9476D01*
X173990D01*
X173006Y7508D02*
X172022D01*
X172514D01*
Y9476D01*
X173006D01*
X169562Y6524D02*
X169070D01*
X168578Y7016D01*
Y9476D01*
X170054D01*
X170546Y8984D01*
Y8000D01*
X170054Y7508D01*
X168578D01*
X167595D02*
Y9476D01*
X166119D01*
X165627Y8984D01*
Y7508D01*
X226876Y4516D02*
Y1565D01*
X225400D01*
X224909Y2057D01*
Y2549D01*
Y3041D01*
X225400Y3532D01*
X226876D01*
X223925D02*
Y2057D01*
X223433Y1565D01*
X221957D01*
Y1073D01*
X222449Y581D01*
X222941D01*
X221957Y1565D02*
Y3532D01*
X216053Y4516D02*
X218021D01*
Y1565D01*
X216053D01*
X218021Y3041D02*
X217037D01*
X214577Y4025D02*
Y3532D01*
X215069D01*
X214085D01*
X214577D01*
Y2057D01*
X214085Y1565D01*
X212609Y4516D02*
Y1565D01*
Y3041D01*
X212117Y3532D01*
X211134D01*
X210642Y3041D01*
Y1565D01*
X209166Y3532D02*
X208182D01*
X207690Y3041D01*
Y1565D01*
X209166D01*
X209658Y2057D01*
X209166Y2549D01*
X207690D01*
X206706Y1565D02*
Y3532D01*
X205230D01*
X204738Y3041D01*
Y1565D01*
X200802D02*
Y4516D01*
X199326D01*
X198834Y4025D01*
Y3041D01*
X199326Y2549D01*
X200802D01*
X199818D02*
X198834Y1565D01*
X196374D02*
X197358D01*
X197850Y2057D01*
Y3041D01*
X197358Y3532D01*
X196374D01*
X195882Y3041D01*
Y2549D01*
X197850D01*
X194899Y3532D02*
Y2057D01*
X194407Y1565D01*
X192931D01*
Y3532D01*
X191947Y1565D02*
X190471D01*
X189979Y2057D01*
X190471Y2549D01*
X191455D01*
X191947Y3041D01*
X191455Y3532D01*
X189979D01*
X188995Y1565D02*
X187519D01*
X187027Y2057D01*
X187519Y2549D01*
X188503D01*
X188995Y3041D01*
X188503Y3532D01*
X187027D01*
X185551Y1565D02*
X184567D01*
X184075Y2057D01*
Y3041D01*
X184567Y3532D01*
X185551D01*
X186043Y3041D01*
Y2057D01*
X185551Y1565D01*
X183091Y3532D02*
Y2057D01*
X182599Y1565D01*
X182107Y2057D01*
X181615Y1565D01*
X181124Y2057D01*
Y3532D01*
M02*
