G04*
G04 #@! TF.GenerationSoftware,Altium Limited,Altium Designer,21.6.4 (81)*
G04*
G04 Layer_Color=8388736*
%FSLAX25Y25*%
%MOIN*%
G70*
G04*
G04 #@! TF.SameCoordinates,E723B31F-DAC3-422C-9DD4-3D6A13DCE0CD*
G04*
G04*
G04 #@! TF.FilePolarity,Negative*
G04*
G01*
G75*
%ADD16C,0.10052*%
%ADD17C,0.05170*%
%ADD18R,0.05170X0.05170*%
%ADD19C,0.08200*%
%ADD20C,0.04737*%
D16*
X190000Y40000D02*
D03*
X48268D02*
D03*
X0Y90000D02*
D03*
X241000Y0D02*
D03*
X240000Y90000D02*
D03*
X0Y0D02*
D03*
D17*
X216754Y25027D02*
D03*
Y35027D02*
D03*
D18*
Y45027D02*
D03*
D19*
X200000Y80000D02*
D03*
X190000D02*
D03*
X180000D02*
D03*
X170000D02*
D03*
X232094Y76176D02*
D03*
X222094D02*
D03*
X212094D02*
D03*
X24757Y39691D02*
D03*
X14757D02*
D03*
X4757D02*
D03*
X24757Y29691D02*
D03*
X14757D02*
D03*
X4757D02*
D03*
X24757Y59691D02*
D03*
X14757D02*
D03*
X4757D02*
D03*
X24757Y49691D02*
D03*
X14757D02*
D03*
X4757D02*
D03*
X24757Y19691D02*
D03*
X14757D02*
D03*
X4757D02*
D03*
D20*
X104000Y83000D02*
D03*
X86000Y93000D02*
D03*
X133000Y56000D02*
D03*
X129000Y33000D02*
D03*
X105000Y58000D02*
D03*
X71000Y67000D02*
D03*
X174000Y5000D02*
D03*
X173000Y31000D02*
D03*
Y47000D02*
D03*
Y62000D02*
D03*
X48000Y6000D02*
D03*
X68000D02*
D03*
X48000Y17000D02*
D03*
X68000D02*
D03*
X48000Y27000D02*
D03*
X68000D02*
D03*
Y40000D02*
D03*
X77500Y70500D02*
D03*
X40000Y57000D02*
D03*
M02*
