M48
;Layer_Color=9474304
;FILE_FORMAT=2:5
INCH,TZ
;TYPE=PLATED
T1F00S00C0.02362
T2F00S00C0.02795
T3F00S00C0.04000
;TYPE=NON_PLATED
T4F00S00C0.09252
%
T01
X174000Y5000
X173000Y31000
Y47000
Y62000
X133000Y56000
X129000Y33000
X105000Y58000
X104000Y83000
X86000Y93000
X77500Y70500
X71000Y67000
X68000Y40000
Y27000
Y17000
Y6000
X48000
Y17000
Y27000
X40000Y57000
T02
X216754Y25027
Y35027
Y45027
T03
X170000Y80000
X180000
X190000
X200000
X212094Y76176
X222094
X232094
X24757Y59691
X14757
X4757
Y49691
Y39691
X14757
X24757
Y29691
X14757
X4757
Y19691
X14757
X24757
Y49691
X14757
T04
X190000Y40000
X241000Y0
X240000Y90000
X0
Y0
X48268Y40000
M30
