G04*
G04 #@! TF.GenerationSoftware,Altium Limited,Altium Designer,21.6.4 (81)*
G04*
G04 Layer_Physical_Order=1*
G04 Layer_Color=255*
%FSLAX25Y25*%
%MOIN*%
G70*
G04*
G04 #@! TF.SameCoordinates,E723B31F-DAC3-422C-9DD4-3D6A13DCE0CD*
G04*
G04*
G04 #@! TF.FilePolarity,Positive*
G04*
G01*
G75*
%ADD15C,0.01000*%
%ADD21C,0.07500*%
%ADD22C,0.09252*%
%ADD23C,0.04370*%
%ADD24R,0.04370X0.04370*%
%ADD25C,0.07400*%
%ADD26C,0.03937*%
G36*
X241656Y98328D02*
X243249Y97845D01*
X244717Y97060D01*
X246004Y96004D01*
X247060Y94717D01*
X247845Y93249D01*
X248328Y91657D01*
X248484Y90068D01*
X248471Y90000D01*
Y0D01*
X248484Y-68D01*
X248328Y-1657D01*
X247845Y-3249D01*
X247060Y-4717D01*
X246004Y-6004D01*
X244717Y-7060D01*
X243249Y-7845D01*
X241656Y-8328D01*
X240068Y-8484D01*
X240000Y-8471D01*
X0D01*
X-68Y-8484D01*
X-1657Y-8328D01*
X-3249Y-7845D01*
X-4717Y-7060D01*
X-6004Y-6004D01*
X-7060Y-4717D01*
X-7845Y-3249D01*
X-8328Y-1657D01*
X-8484Y-68D01*
X-8471Y0D01*
Y90000D01*
X-8484Y90068D01*
X-8328Y91657D01*
X-7845Y93249D01*
X-7060Y94717D01*
X-6004Y96004D01*
X-4717Y97060D01*
X-3249Y97845D01*
X-1657Y98328D01*
X-68Y98484D01*
X0Y98471D01*
X240000D01*
X240068Y98484D01*
X241656Y98328D01*
D02*
G37*
%LPC*%
G36*
X240741Y95626D02*
X239259D01*
X237828Y95243D01*
X236546Y94502D01*
X235498Y93454D01*
X234757Y92172D01*
X234374Y90741D01*
Y89259D01*
X234757Y87828D01*
X235498Y86546D01*
X236546Y85498D01*
X237828Y84757D01*
X239259Y84374D01*
X240741D01*
X242172Y84757D01*
X243454Y85498D01*
X244502Y86546D01*
X245243Y87828D01*
X245626Y89259D01*
Y90741D01*
X245243Y92172D01*
X244502Y93454D01*
X243454Y94502D01*
X242172Y95243D01*
X240741Y95626D01*
D02*
G37*
G36*
X741D02*
X-741D01*
X-2172Y95243D01*
X-3454Y94502D01*
X-4502Y93454D01*
X-5243Y92172D01*
X-5626Y90741D01*
Y89259D01*
X-5243Y87828D01*
X-4502Y86546D01*
X-3454Y85498D01*
X-2172Y84757D01*
X-741Y84374D01*
X741D01*
X2172Y84757D01*
X3454Y85498D01*
X4502Y86546D01*
X5243Y87828D01*
X5626Y89259D01*
Y90741D01*
X5243Y92172D01*
X4502Y93454D01*
X3454Y94502D01*
X2172Y95243D01*
X741Y95626D01*
D02*
G37*
G36*
X201000Y84598D02*
Y81000D01*
X204598D01*
X204380Y81814D01*
X203761Y82886D01*
X202886Y83761D01*
X201814Y84380D01*
X201000Y84598D01*
D02*
G37*
G36*
X199000D02*
X198186Y84380D01*
X197114Y83761D01*
X196239Y82886D01*
X195620Y81814D01*
X195402Y81000D01*
X199000D01*
Y84598D01*
D02*
G37*
G36*
X233094Y80774D02*
Y77176D01*
X236691D01*
X236473Y77990D01*
X235855Y79062D01*
X234980Y79936D01*
X233908Y80555D01*
X233094Y80774D01*
D02*
G37*
G36*
X213094D02*
Y77176D01*
X216691D01*
X216473Y77990D01*
X215855Y79062D01*
X214980Y79936D01*
X213908Y80555D01*
X213094Y80774D01*
D02*
G37*
G36*
X231094D02*
X230279Y80555D01*
X229208Y79936D01*
X228333Y79062D01*
X227714Y77990D01*
X227496Y77176D01*
X231094D01*
Y80774D01*
D02*
G37*
G36*
X211094D02*
X210279Y80555D01*
X209208Y79936D01*
X208333Y79062D01*
X207714Y77990D01*
X207496Y77176D01*
X211094D01*
Y80774D01*
D02*
G37*
G36*
X204598Y79000D02*
X201000D01*
Y75402D01*
X201814Y75620D01*
X202886Y76239D01*
X203761Y77114D01*
X204380Y78186D01*
X204598Y79000D01*
D02*
G37*
G36*
X199000D02*
X195402D01*
X195620Y78186D01*
X196239Y77114D01*
X197114Y76239D01*
X198186Y75620D01*
X199000Y75402D01*
Y79000D01*
D02*
G37*
G36*
X190619Y84700D02*
X189381D01*
X188186Y84380D01*
X187114Y83761D01*
X186239Y82886D01*
X185620Y81814D01*
X185300Y80619D01*
Y79381D01*
X185620Y78186D01*
X186239Y77114D01*
X187114Y76239D01*
X188186Y75620D01*
X189381Y75300D01*
X190619D01*
X191814Y75620D01*
X192886Y76239D01*
X193761Y77114D01*
X194380Y78186D01*
X194700Y79381D01*
Y80619D01*
X194380Y81814D01*
X193761Y82886D01*
X192886Y83761D01*
X191814Y84380D01*
X190619Y84700D01*
D02*
G37*
G36*
X170000Y91529D02*
X97000D01*
X96512Y91432D01*
X96415Y91413D01*
X95919Y91081D01*
X78958Y74121D01*
X78797Y73986D01*
X78622Y73858D01*
X78452Y73751D01*
X78288Y73665D01*
X78130Y73598D01*
X77977Y73548D01*
X77828Y73514D01*
X77679Y73495D01*
X77482Y73487D01*
X77403Y73469D01*
X77109D01*
X76354Y73266D01*
X75677Y72875D01*
X75125Y72323D01*
X74734Y71646D01*
X74532Y70891D01*
Y70109D01*
X74734Y69354D01*
X75125Y68677D01*
X75677Y68125D01*
X76354Y67734D01*
X77109Y67532D01*
X77891D01*
X78646Y67734D01*
X79323Y68125D01*
X79875Y68677D01*
X80266Y69354D01*
X80468Y70109D01*
Y70403D01*
X80487Y70482D01*
X80495Y70679D01*
X80514Y70828D01*
X80548Y70977D01*
X80598Y71130D01*
X80665Y71288D01*
X80751Y71452D01*
X80858Y71622D01*
X80986Y71797D01*
X81121Y71959D01*
X97633Y88471D01*
X169367D01*
X173871Y83966D01*
X174020Y83805D01*
X174289Y83462D01*
X174524Y83104D01*
X174726Y82729D01*
X174898Y82337D01*
X175037Y81924D01*
X175146Y81490D01*
X175223Y81034D01*
X175268Y80553D01*
X175281Y80013D01*
X175300Y79928D01*
Y79381D01*
X175620Y78186D01*
X176239Y77114D01*
X177114Y76239D01*
X178186Y75620D01*
X179381Y75300D01*
X180619D01*
X181814Y75620D01*
X182886Y76239D01*
X183761Y77114D01*
X184380Y78186D01*
X184700Y79381D01*
Y80619D01*
X184380Y81814D01*
X183761Y82886D01*
X182886Y83761D01*
X181814Y84380D01*
X180619Y84700D01*
X180072D01*
X179987Y84719D01*
X179447Y84732D01*
X178966Y84777D01*
X178510Y84854D01*
X178076Y84963D01*
X177663Y85102D01*
X177271Y85274D01*
X176896Y85476D01*
X176538Y85711D01*
X176195Y85980D01*
X176034Y86129D01*
X171081Y91081D01*
X170585Y91413D01*
X170000Y91529D01*
D02*
G37*
G36*
X170619Y84700D02*
X169381D01*
X168186Y84380D01*
X167114Y83761D01*
X166239Y82886D01*
X165620Y81814D01*
X165300Y80619D01*
Y79381D01*
X165620Y78186D01*
X166239Y77114D01*
X167114Y76239D01*
X168186Y75620D01*
X169381Y75300D01*
X170619D01*
X171814Y75620D01*
X172886Y76239D01*
X173761Y77114D01*
X174380Y78186D01*
X174700Y79381D01*
Y80619D01*
X174380Y81814D01*
X173761Y82886D01*
X172886Y83761D01*
X171814Y84380D01*
X170619Y84700D01*
D02*
G37*
G36*
X236691Y75176D02*
X233094D01*
Y71578D01*
X233908Y71796D01*
X234980Y72415D01*
X235855Y73290D01*
X236473Y74361D01*
X236691Y75176D01*
D02*
G37*
G36*
X216691D02*
X213094D01*
Y71578D01*
X213908Y71796D01*
X214980Y72415D01*
X215855Y73290D01*
X216473Y74361D01*
X216691Y75176D01*
D02*
G37*
G36*
X231094D02*
X227496D01*
X227714Y74361D01*
X228333Y73290D01*
X229208Y72415D01*
X230279Y71796D01*
X231094Y71578D01*
Y75176D01*
D02*
G37*
G36*
X211094D02*
X207496D01*
X207714Y74361D01*
X208333Y73290D01*
X209208Y72415D01*
X210279Y71796D01*
X211094Y71578D01*
Y75176D01*
D02*
G37*
G36*
X222712Y80876D02*
X221475D01*
X220280Y80555D01*
X219208Y79936D01*
X218333Y79062D01*
X217714Y77990D01*
X217394Y76794D01*
Y75557D01*
X217714Y74361D01*
X218333Y73290D01*
X219208Y72415D01*
X220280Y71796D01*
X221475Y71476D01*
X222712D01*
X223908Y71796D01*
X224979Y72415D01*
X225855Y73290D01*
X226473Y74361D01*
X226794Y75557D01*
Y76794D01*
X226473Y77990D01*
X225855Y79062D01*
X224979Y79936D01*
X223908Y80555D01*
X222712Y80876D01*
D02*
G37*
G36*
X5757Y64289D02*
Y60691D01*
X9355D01*
X9137Y61505D01*
X8518Y62577D01*
X7643Y63452D01*
X6571Y64070D01*
X5757Y64289D01*
D02*
G37*
G36*
X3757D02*
X2943Y64070D01*
X1871Y63452D01*
X996Y62577D01*
X377Y61505D01*
X159Y60691D01*
X3757D01*
Y64289D01*
D02*
G37*
G36*
X9355Y58691D02*
X5757D01*
Y55093D01*
X6571Y55311D01*
X7643Y55930D01*
X8518Y56805D01*
X9137Y57876D01*
X9355Y58691D01*
D02*
G37*
G36*
X3757D02*
X159D01*
X377Y57876D01*
X996Y56805D01*
X1871Y55930D01*
X2943Y55311D01*
X3757Y55093D01*
Y58691D01*
D02*
G37*
G36*
X25376Y64391D02*
X24138D01*
X22943Y64070D01*
X21871Y63452D01*
X20996Y62577D01*
X20377Y61505D01*
X20057Y60309D01*
Y59072D01*
X20377Y57876D01*
X20996Y56805D01*
X21871Y55930D01*
X22943Y55311D01*
X24138Y54991D01*
X25376D01*
X26571Y55311D01*
X27643Y55930D01*
X28518Y56805D01*
X29137Y57876D01*
X29457Y59072D01*
Y60309D01*
X29137Y61505D01*
X28518Y62577D01*
X27643Y63452D01*
X26571Y64070D01*
X25376Y64391D01*
D02*
G37*
G36*
X5757Y54289D02*
Y50691D01*
X9355D01*
X9137Y51505D01*
X8518Y52577D01*
X7643Y53452D01*
X6571Y54070D01*
X5757Y54289D01*
D02*
G37*
G36*
X3757D02*
X2943Y54070D01*
X1871Y53452D01*
X996Y52577D01*
X377Y51505D01*
X159Y50691D01*
X3757D01*
Y54289D01*
D02*
G37*
G36*
X9355Y48691D02*
X5757D01*
Y45093D01*
X6571Y45311D01*
X7643Y45930D01*
X8518Y46805D01*
X9137Y47877D01*
X9355Y48691D01*
D02*
G37*
G36*
X3757D02*
X159D01*
X377Y47877D01*
X996Y46805D01*
X1871Y45930D01*
X2943Y45311D01*
X3757Y45093D01*
Y48691D01*
D02*
G37*
G36*
X25376Y54391D02*
X24138D01*
X22943Y54070D01*
X21871Y53452D01*
X20996Y52577D01*
X20377Y51505D01*
X20057Y50309D01*
Y49072D01*
X20377Y47877D01*
X20996Y46805D01*
X21871Y45930D01*
X22943Y45311D01*
X24138Y44991D01*
X25376D01*
X26571Y45311D01*
X27643Y45930D01*
X28518Y46805D01*
X29137Y47877D01*
X29457Y49072D01*
Y50309D01*
X29137Y51505D01*
X28518Y52577D01*
X27643Y53452D01*
X26571Y54070D01*
X25376Y54391D01*
D02*
G37*
G36*
X219938Y48213D02*
X213568D01*
Y41842D01*
X219938D01*
Y48213D01*
D02*
G37*
G36*
X5757Y44289D02*
Y40691D01*
X9355D01*
X9137Y41505D01*
X8518Y42577D01*
X7643Y43452D01*
X6571Y44070D01*
X5757Y44289D01*
D02*
G37*
G36*
X3757D02*
X2943Y44070D01*
X1871Y43452D01*
X996Y42577D01*
X377Y41505D01*
X159Y40691D01*
X3757D01*
Y44289D01*
D02*
G37*
G36*
X217754Y38057D02*
Y36027D01*
X219783D01*
X219722Y36257D01*
X219302Y36983D01*
X218709Y37576D01*
X217983Y37995D01*
X217754Y38057D01*
D02*
G37*
G36*
X215754D02*
X215524Y37995D01*
X214798Y37576D01*
X214205Y36983D01*
X213786Y36257D01*
X213724Y36027D01*
X215754D01*
Y38057D01*
D02*
G37*
G36*
X9355Y38691D02*
X5757D01*
Y35093D01*
X6571Y35311D01*
X7643Y35930D01*
X8518Y36805D01*
X9137Y37876D01*
X9355Y38691D01*
D02*
G37*
G36*
X3757D02*
X159D01*
X377Y37876D01*
X996Y36805D01*
X1871Y35930D01*
X2943Y35311D01*
X3757Y35093D01*
Y38691D01*
D02*
G37*
G36*
X25376Y44391D02*
X24138D01*
X22943Y44070D01*
X21871Y43452D01*
X20996Y42577D01*
X20377Y41505D01*
X20057Y40309D01*
Y39072D01*
X20377Y37876D01*
X20996Y36805D01*
X21871Y35930D01*
X22943Y35311D01*
X24138Y34991D01*
X25376D01*
X26571Y35311D01*
X27643Y35930D01*
X28518Y36805D01*
X29137Y37876D01*
X29457Y39072D01*
Y40309D01*
X29137Y41505D01*
X28518Y42577D01*
X27643Y43452D01*
X26571Y44070D01*
X25376Y44391D01*
D02*
G37*
G36*
X190741Y45626D02*
X189259D01*
X187828Y45243D01*
X186546Y44502D01*
X185498Y43454D01*
X184757Y42172D01*
X184374Y40741D01*
Y39259D01*
X184757Y37828D01*
X185498Y36546D01*
X186546Y35498D01*
X187828Y34757D01*
X189259Y34374D01*
X190741D01*
X192172Y34757D01*
X193454Y35498D01*
X194502Y36546D01*
X195243Y37828D01*
X195626Y39259D01*
Y40741D01*
X195243Y42172D01*
X194502Y43454D01*
X193454Y44502D01*
X192172Y45243D01*
X190741Y45626D01*
D02*
G37*
G36*
X49008D02*
X47527D01*
X46096Y45243D01*
X44813Y44502D01*
X43766Y43454D01*
X43025Y42172D01*
X42642Y40741D01*
Y39259D01*
X43025Y37828D01*
X43766Y36546D01*
X44813Y35498D01*
X46096Y34757D01*
X47527Y34374D01*
X49008D01*
X50439Y34757D01*
X51722Y35498D01*
X52770Y36546D01*
X53510Y37828D01*
X53894Y39259D01*
Y40741D01*
X53510Y42172D01*
X52770Y43454D01*
X51722Y44502D01*
X50439Y45243D01*
X49008Y45626D01*
D02*
G37*
G36*
X219783Y34027D02*
X217754D01*
Y31998D01*
X217983Y32059D01*
X218709Y32479D01*
X219302Y33072D01*
X219722Y33798D01*
X219783Y34027D01*
D02*
G37*
G36*
X215754D02*
X213724D01*
X213786Y33798D01*
X214205Y33072D01*
X214798Y32479D01*
X215524Y32059D01*
X215754Y31998D01*
Y34027D01*
D02*
G37*
G36*
X5757Y34288D02*
Y30691D01*
X9355D01*
X9137Y31505D01*
X8518Y32577D01*
X7643Y33452D01*
X6571Y34070D01*
X5757Y34288D01*
D02*
G37*
G36*
X3757D02*
X2943Y34070D01*
X1871Y33452D01*
X996Y32577D01*
X377Y31505D01*
X159Y30691D01*
X3757D01*
Y34288D01*
D02*
G37*
G36*
X9355Y28691D02*
X5757D01*
Y25093D01*
X6571Y25311D01*
X7643Y25930D01*
X8518Y26805D01*
X9137Y27876D01*
X9355Y28691D01*
D02*
G37*
G36*
X3757D02*
X159D01*
X377Y27876D01*
X996Y26805D01*
X1871Y25930D01*
X2943Y25311D01*
X3757Y25093D01*
Y28691D01*
D02*
G37*
G36*
X25376Y34391D02*
X24138D01*
X22943Y34070D01*
X21871Y33452D01*
X20996Y32577D01*
X20377Y31505D01*
X20057Y30309D01*
Y29072D01*
X20377Y27876D01*
X20996Y26805D01*
X21871Y25930D01*
X22943Y25311D01*
X24138Y24991D01*
X25376D01*
X26571Y25311D01*
X27643Y25930D01*
X28518Y26805D01*
X29137Y27876D01*
X29457Y29072D01*
Y30309D01*
X29137Y31505D01*
X28518Y32577D01*
X27643Y33452D01*
X26571Y34070D01*
X25376Y34391D01*
D02*
G37*
G36*
X217173Y28212D02*
X216334D01*
X215524Y27995D01*
X214798Y27576D01*
X214205Y26983D01*
X213786Y26257D01*
X213568Y25447D01*
Y24608D01*
X213786Y23798D01*
X214205Y23072D01*
X214798Y22479D01*
X215524Y22059D01*
X216334Y21842D01*
X217173D01*
X217983Y22059D01*
X218709Y22479D01*
X219302Y23072D01*
X219722Y23798D01*
X219938Y24608D01*
Y25447D01*
X219722Y26257D01*
X219302Y26983D01*
X218709Y27576D01*
X217983Y27995D01*
X217173Y28212D01*
D02*
G37*
G36*
X5757Y24288D02*
Y20691D01*
X9355D01*
X9137Y21505D01*
X8518Y22577D01*
X7643Y23452D01*
X6571Y24070D01*
X5757Y24288D01*
D02*
G37*
G36*
X3757D02*
X2943Y24070D01*
X1871Y23452D01*
X996Y22577D01*
X377Y21505D01*
X159Y20691D01*
X3757D01*
Y24288D01*
D02*
G37*
G36*
X9355Y18691D02*
X5757D01*
Y15093D01*
X6571Y15311D01*
X7643Y15930D01*
X8518Y16805D01*
X9137Y17877D01*
X9355Y18691D01*
D02*
G37*
G36*
X3757D02*
X159D01*
X377Y17877D01*
X996Y16805D01*
X1871Y15930D01*
X2943Y15311D01*
X3757Y15093D01*
Y18691D01*
D02*
G37*
G36*
X25376Y24391D02*
X24138D01*
X22943Y24070D01*
X21871Y23452D01*
X20996Y22577D01*
X20377Y21505D01*
X20057Y20310D01*
Y19072D01*
X20377Y17877D01*
X20996Y16805D01*
X21871Y15930D01*
X22943Y15311D01*
X24138Y14991D01*
X25376D01*
X26571Y15311D01*
X27643Y15930D01*
X28518Y16805D01*
X29137Y17877D01*
X29457Y19072D01*
Y20310D01*
X29137Y21505D01*
X28518Y22577D01*
X27643Y23452D01*
X26571Y24070D01*
X25376Y24391D01*
D02*
G37*
G36*
X14757Y64482D02*
X13517Y64318D01*
X12362Y63840D01*
X11369Y63078D01*
X10608Y62086D01*
X10129Y60931D01*
X9966Y59691D01*
Y19691D01*
X10129Y18451D01*
X10608Y17295D01*
X11369Y16303D01*
X12362Y15542D01*
X13517Y15063D01*
X14757Y14900D01*
X15997Y15063D01*
X17153Y15542D01*
X18145Y16303D01*
X18906Y17295D01*
X19385Y18451D01*
X19548Y19691D01*
Y59691D01*
X19385Y60931D01*
X18906Y62086D01*
X18145Y63078D01*
X17153Y63840D01*
X15997Y64318D01*
X14757Y64482D01*
D02*
G37*
G36*
X241741Y5626D02*
X240259D01*
X238828Y5243D01*
X237546Y4502D01*
X236498Y3454D01*
X235757Y2172D01*
X235374Y741D01*
Y-741D01*
X235757Y-2172D01*
X236498Y-3454D01*
X237546Y-4502D01*
X238828Y-5243D01*
X240259Y-5626D01*
X241741D01*
X243172Y-5243D01*
X244454Y-4502D01*
X245502Y-3454D01*
X246243Y-2172D01*
X246626Y-741D01*
Y741D01*
X246243Y2172D01*
X245502Y3454D01*
X244454Y4502D01*
X243172Y5243D01*
X241741Y5626D01*
D02*
G37*
G36*
X741D02*
X-741D01*
X-2172Y5243D01*
X-3454Y4502D01*
X-4502Y3454D01*
X-5243Y2172D01*
X-5626Y741D01*
Y-741D01*
X-5243Y-2172D01*
X-4502Y-3454D01*
X-3454Y-4502D01*
X-2172Y-5243D01*
X-741Y-5626D01*
X741D01*
X2172Y-5243D01*
X3454Y-4502D01*
X4502Y-3454D01*
X5243Y-2172D01*
X5626Y-741D01*
Y741D01*
X5243Y2172D01*
X4502Y3454D01*
X3454Y4502D01*
X2172Y5243D01*
X741Y5626D01*
D02*
G37*
%LPD*%
G36*
X175534Y85203D02*
X175943Y84882D01*
X176373Y84600D01*
X176824Y84356D01*
X177295Y84151D01*
X177787Y83984D01*
X178300Y83855D01*
X178834Y83765D01*
X179388Y83713D01*
X179963Y83700D01*
X176300Y80037D01*
X176287Y80612D01*
X176235Y81166D01*
X176145Y81700D01*
X176016Y82213D01*
X175849Y82705D01*
X175644Y83176D01*
X175400Y83627D01*
X175118Y84057D01*
X174797Y84466D01*
X174438Y84855D01*
X175145Y85562D01*
X175534Y85203D01*
D02*
G37*
G36*
X80592Y72885D02*
X80376Y72657D01*
X80183Y72427D01*
X80014Y72195D01*
X79867Y71961D01*
X79743Y71726D01*
X79642Y71488D01*
X79564Y71249D01*
X79509Y71008D01*
X79477Y70765D01*
X79468Y70520D01*
X77520Y72468D01*
X77765Y72477D01*
X78008Y72509D01*
X78249Y72564D01*
X78488Y72642D01*
X78726Y72743D01*
X78961Y72867D01*
X79195Y73014D01*
X79427Y73183D01*
X79657Y73376D01*
X79885Y73592D01*
X80592Y72885D01*
D02*
G37*
D15*
X77500Y70500D02*
X97000Y90000D01*
X170000D01*
X180000Y80000D01*
D21*
X14757Y19691D02*
Y59691D01*
D22*
X190000Y40000D02*
D03*
X48268D02*
D03*
X0Y90000D02*
D03*
X241000Y0D02*
D03*
X240000Y90000D02*
D03*
X0Y0D02*
D03*
D23*
X216754Y25027D02*
D03*
Y35027D02*
D03*
D24*
Y45027D02*
D03*
D25*
X200000Y80000D02*
D03*
X190000D02*
D03*
X180000D02*
D03*
X170000D02*
D03*
X232094Y76176D02*
D03*
X222094D02*
D03*
X212094D02*
D03*
X24757Y39691D02*
D03*
X14757D02*
D03*
X4757D02*
D03*
X24757Y29691D02*
D03*
X14757D02*
D03*
X4757D02*
D03*
X24757Y59691D02*
D03*
X14757D02*
D03*
X4757D02*
D03*
X24757Y49691D02*
D03*
X14757D02*
D03*
X4757D02*
D03*
X24757Y19691D02*
D03*
X14757D02*
D03*
X4757D02*
D03*
D26*
X104000Y83000D02*
D03*
X86000Y93000D02*
D03*
X133000Y56000D02*
D03*
X129000Y33000D02*
D03*
X105000Y58000D02*
D03*
X71000Y67000D02*
D03*
X174000Y5000D02*
D03*
X173000Y31000D02*
D03*
Y47000D02*
D03*
Y62000D02*
D03*
X48000Y6000D02*
D03*
X68000D02*
D03*
X48000Y17000D02*
D03*
X68000D02*
D03*
X48000Y27000D02*
D03*
X68000D02*
D03*
Y40000D02*
D03*
X77500Y70500D02*
D03*
X40000Y57000D02*
D03*
M02*
